Dekko-Regular.ufo
<glyph name="exclam" format="1">
  <advance width="471"/>
  <unicode hex="0021"/>
  <outline>
    <contour>
      <point x="311" y="702" type="curve" smooth="yes"/>
      <point x="332" y="1018"/>
      <point x="354" y="1276"/>
      <point x="354" y="1357" type="curve" smooth="yes"/>
      <point x="354" y="1436"/>
      <point x="332" y="1471"/>
      <point x="279" y="1471" type="curve" smooth="yes"/>
      <point x="229" y="1471"/>
      <point x="198" y="1414"/>
      <point x="195" y="1335" type="curve"/>
      <point x="213" y="1087" type="line"/>
      <point x="213" y="1031"/>
      <point x="210" y="952"/>
      <point x="205" y="885" type="curve" smooth="yes"/>
      <point x="184" y="592" type="line"/>
      <point x="184" y="542"/>
      <point x="198" y="495"/>
      <point x="243" y="495" type="curve" smooth="yes"/>
      <point x="293" y="495"/>
      <point x="307" y="641"/>
    </contour>
    <contour>
      <point x="228" y="243" type="curve" smooth="yes"/>
      <point x="173" y="243"/>
      <point x="132" y="193"/>
      <point x="132" y="105" type="curve" smooth="yes"/>
      <point x="132" y="20"/>
      <point x="134" y="-29"/>
      <point x="208" y="-29" type="curve" smooth="yes"/>
      <point x="277" y="-29"/>
      <point x="293" y="55"/>
      <point x="293" y="94" type="curve" smooth="yes"/>
      <point x="293" y="169"/>
      <point x="292" y="243"/>
    </contour>
  </outline>
</glyph>
<glyph name="parenleft" format="1">
  <advance width="533"/>
  <unicode hex="0028"/>
  <outline>
    <contour>
      <point x="57" y="478" type="curve"/>
      <point x="55" y="303"/>
      <point x="165" y="91"/>
      <point x="240" y="-25" type="curve" smooth="yes"/>
      <point x="266" y="-66" type="line" smooth="yes"/>
      <point x="282" y="-91"/>
      <point x="309" y="-158"/>
      <point x="346" y="-158" type="curve" smooth="yes"/>
      <point x="391" y="-158"/>
      <point x="443" y="-136"/>
      <point x="443" y="-60" type="curve" smooth="yes"/>
      <point x="443" y="14"/>
      <point x="421" y="55"/>
      <point x="382" y="85" type="curve" smooth="yes"/>
      <point x="293" y="159"/>
      <point x="218" y="344"/>
      <point x="218" y="486" type="curve" smooth="yes"/>
      <point x="218" y="610"/>
      <point x="268" y="897"/>
      <point x="346" y="1018" type="curve" smooth="yes"/>
      <point x="378" y="1066"/>
      <point x="448" y="1132"/>
      <point x="448" y="1216" type="curve" smooth="yes"/>
      <point x="448" y="1270"/>
      <point x="413" y="1288"/>
      <point x="373" y="1288" type="curve" smooth="yes"/>
      <point x="347" y="1288"/>
      <point x="293" y="1231"/>
      <point x="293" y="1231" type="curve"/>
      <point x="153" y="1066"/>
      <point x="57" y="757"/>
    </contour>
  </outline>
</glyph>
<glyph name="parenright" format="1">
  <advance width="555"/>
  <unicode hex="0029"/>
  <outline>
    <contour>
      <point x="473" y="521" type="curve" smooth="yes"/>
      <point x="473" y="786"/>
      <point x="418" y="1074"/>
      <point x="274" y="1252" type="curve"/>
      <point x="274" y="1252"/>
      <point x="232" y="1288"/>
      <point x="208" y="1288" type="curve" smooth="yes"/>
      <point x="165" y="1288"/>
      <point x="132" y="1272"/>
      <point x="132" y="1194" type="curve" smooth="yes"/>
      <point x="132" y="1152"/>
      <point x="195" y="1066"/>
      <point x="228" y="1018" type="curve" smooth="yes"/>
      <point x="305" y="901"/>
      <point x="337" y="629"/>
      <point x="337" y="502" type="curve" smooth="yes"/>
      <point x="337" y="367"/>
      <point x="253" y="167"/>
      <point x="167" y="84" type="curve" smooth="yes"/>
      <point x="132" y="49"/>
      <point x="94" y="4"/>
      <point x="94" y="-53" type="curve" smooth="yes"/>
      <point x="94" y="-105"/>
      <point x="139" y="-146"/>
      <point x="181" y="-146" type="curve" smooth="yes"/>
      <point x="208" y="-146"/>
      <point x="240" y="-99"/>
      <point x="274" y="-59" type="curve" smooth="yes"/>
      <point x="289" y="-39" type="line" smooth="yes"/>
      <point x="392" y="81"/>
      <point x="473" y="311"/>
    </contour>
  </outline>
</glyph>
<glyph name="plus" format="1">
  <advance width="977"/>
  <unicode hex="002B"/>
  <outline>
    <contour>
      <point x="486" y="119" type="curve" smooth="yes"/>
      <point x="532" y="119"/>
      <point x="570" y="122"/>
      <point x="570" y="247" type="curve"/>
      <point x="563" y="427" type="line"/>
      <point x="565" y="446"/>
      <point x="595" y="450"/>
      <point x="626" y="450" type="curve" smooth="yes"/>
      <point x="666" y="450"/>
      <point x="710" y="443"/>
      <point x="726" y="443" type="curve" smooth="yes"/>
      <point x="777" y="443"/>
      <point x="836" y="454"/>
      <point x="836" y="553" type="curve" smooth="yes"/>
      <point x="836" y="570" type="line" smooth="yes"/>
      <point x="836" y="615"/>
      <point x="825" y="676"/>
      <point x="773" y="676" type="curve" smooth="yes"/>
      <point x="757" y="676"/>
      <point x="732" y="661"/>
      <point x="719" y="652" type="curve"/>
      <point x="694" y="643"/>
      <point x="641" y="643"/>
      <point x="571" y="643" type="curve"/>
      <point x="570" y="660"/>
      <point x="567" y="688"/>
      <point x="567" y="689" type="curve" smooth="yes"/>
      <point x="570" y="745"/>
      <point x="578" y="849"/>
      <point x="578" y="849" type="curve"/>
      <point x="578" y="904"/>
      <point x="578" y="938"/>
      <point x="528" y="938" type="curve" smooth="yes"/>
      <point x="439" y="938"/>
      <point x="429" y="834"/>
      <point x="429" y="732" type="curve" smooth="yes"/>
      <point x="429" y="696"/>
      <point x="431" y="661"/>
      <point x="431" y="631" type="curve"/>
      <point x="254" y="645" type="line"/>
      <point x="203" y="645"/>
      <point x="142" y="623"/>
      <point x="142" y="523" type="curve" smooth="yes"/>
      <point x="142" y="476"/>
      <point x="160" y="436"/>
      <point x="195" y="436" type="curve" smooth="yes"/>
      <point x="427" y="436" type="line"/>
      <point x="426" y="359"/>
      <point x="411" y="287"/>
      <point x="411" y="218" type="curve" smooth="yes"/>
      <point x="411" y="134"/>
      <point x="443" y="119"/>
    </contour>
  </outline>
</glyph>
<glyph name="two" format="1">
  <advance width="1058"/>
  <unicode hex="0032"/>
  <outline>
    <contour>
      <point x="680" y="9" type="curve" smooth="yes"/>
      <point x="710" y="9"/>
      <point x="746" y="2"/>
      <point x="771" y="2" type="curve" smooth="yes"/>
      <point x="768" y="2"/>
      <point x="891" y="5"/>
      <point x="891" y="115" type="curve" smooth="yes"/>
      <point x="891" y="160"/>
      <point x="845" y="253"/>
      <point x="807" y="258" type="curve"/>
      <point x="800" y="250"/>
      <point x="780" y="247"/>
      <point x="775" y="247" type="curve"/>
      <point x="712" y="231"/>
      <point x="490" y="186"/>
      <point x="447" y="208" type="curve"/>
      <point x="558" y="438"/>
      <point x="773" y="788"/>
      <point x="773" y="1067" type="curve" smooth="yes"/>
      <point x="773" y="1253"/>
      <point x="615" y="1368"/>
      <point x="475" y="1368" type="curve" smooth="yes"/>
      <point x="362" y="1368"/>
      <point x="160" y="1303"/>
      <point x="154" y="1094" type="curve" smooth="yes"/>
      <point x="154" y="1072"/>
      <point x="166" y="971"/>
      <point x="215" y="971" type="curve" smooth="yes"/>
      <point x="298" y="971"/>
      <point x="270" y="1148"/>
      <point x="464" y="1148" type="curve" smooth="yes"/>
      <point x="540" y="1148"/>
      <point x="622" y="1115"/>
      <point x="622" y="1027" type="curve" smooth="yes"/>
      <point x="622" y="878"/>
      <point x="430" y="518"/>
      <point x="348" y="335" type="curve" smooth="yes"/>
      <point x="310" y="248"/>
      <point x="226" y="208"/>
      <point x="226" y="75" type="curve" smooth="yes"/>
      <point x="226" y="26"/>
      <point x="267" y="-11"/>
      <point x="296" y="-11" type="curve" smooth="yes"/>
      <point x="419" y="-11"/>
      <point x="557" y="9"/>
    </contour>
  </outline>
</glyph>
<glyph name="seven" format="1">
  <advance width="927"/>
  <unicode hex="0037"/>
  <outline>
    <contour>
      <point x="281" y="162" type="curve" smooth="yes"/>
      <point x="276" y="127"/>
      <point x="276" y="115"/>
      <point x="276" y="109" type="curve" smooth="yes"/>
      <point x="276" y="48"/>
      <point x="285" y="-11"/>
      <point x="341" y="-11" type="curve" smooth="yes"/>
      <point x="425" y="-11"/>
      <point x="441" y="67"/>
      <point x="453" y="149" type="curve"/>
      <point x="464" y="253"/>
      <point x="534" y="419"/>
      <point x="565" y="481" type="curve"/>
      <point x="791" y="1027"/>
      <point x="839" y="1203"/>
      <point x="839" y="1259" type="curve" smooth="yes"/>
      <point x="839" y="1316"/>
      <point x="822" y="1381"/>
      <point x="775" y="1381" type="curve" smooth="yes"/>
      <point x="766" y="1381"/>
      <point x="749" y="1374"/>
      <point x="738" y="1370" type="curve"/>
      <point x="271" y="1368"/>
      <point x="237" y="1373"/>
      <point x="167" y="1373" type="curve"/>
      <point x="117" y="1373"/>
      <point x="93" y="1318"/>
      <point x="93" y="1275" type="curve" smooth="yes"/>
      <point x="93" y="1160"/>
      <point x="203" y="1148"/>
      <point x="263" y="1148" type="curve"/>
      <point x="656" y="1160" type="line"/>
      <point x="572" y="965"/>
      <point x="285" y="203"/>
    </contour>
  </outline>
</glyph>
<glyph name="colon" format="1">
  <advance width="363"/>
  <unicode hex="003A"/>
  <outline>
    <contour>
      <point x="274" y="757" type="curve" smooth="yes"/>
      <point x="274" y="846"/>
      <point x="229" y="901"/>
      <point x="215" y="901" type="curve" smooth="yes"/>
      <point x="167" y="901"/>
      <point x="88" y="839"/>
      <point x="88" y="769" type="curve" smooth="yes"/>
      <point x="88" y="651"/>
      <point x="126" y="619"/>
      <point x="198" y="619" type="curve" smooth="yes"/>
      <point x="240" y="619"/>
      <point x="274" y="664"/>
    </contour>
    <contour>
      <point x="81" y="116" type="curve" smooth="yes"/>
      <point x="81" y="26"/>
      <point x="105" y="-18"/>
      <point x="173" y="-18" type="curve" smooth="yes"/>
      <point x="218" y="-18"/>
      <point x="268" y="49"/>
      <point x="268" y="116" type="curve" smooth="yes"/>
      <point x="268" y="175"/>
      <point x="222" y="253"/>
      <point x="177" y="253" type="curve" smooth="yes"/>
      <point x="112" y="253"/>
      <point x="81" y="192"/>
    </contour>
  </outline>
</glyph>
<glyph name="semicolon" format="1">
  <advance width="346"/>
  <unicode hex="003B"/>
  <outline>
    <contour>
      <point x="274" y="757" type="curve" smooth="yes"/>
      <point x="274" y="846"/>
      <point x="229" y="901"/>
      <point x="215" y="901" type="curve" smooth="yes"/>
      <point x="167" y="901"/>
      <point x="88" y="839"/>
      <point x="88" y="769" type="curve" smooth="yes"/>
      <point x="88" y="651"/>
      <point x="126" y="619"/>
      <point x="198" y="619" type="curve" smooth="yes"/>
      <point x="240" y="619"/>
      <point x="274" y="664"/>
    </contour>
    <component base="comma"/>
  </outline>
</glyph>
<glyph name="at" format="1">
  <advance width="1744"/>
  <unicode hex="0040"/>
  <outline>
    <contour>
      <point x="963" y="-284" type="curve" smooth="yes"/>
      <point x="1159" y="-284"/>
      <point x="1307" y="-198"/>
      <point x="1386" y="-198" type="curve" smooth="yes"/>
      <point x="1375" y="-198"/>
      <point x="1464" y="-195"/>
      <point x="1464" y="-273" type="curve" smooth="yes"/>
      <point x="1464" y="-381"/>
      <point x="1087" y="-437"/>
      <point x="938" y="-437" type="curve" smooth="yes"/>
      <point x="598" y="-437"/>
      <point x="175" y="-359"/>
      <point x="175" y="299" type="curve" smooth="yes"/>
      <point x="175" y="839"/>
      <point x="563" y="1233"/>
      <point x="983" y="1233" type="curve" smooth="yes"/>
      <point x="1297" y="1233"/>
      <point x="1569" y="1005"/>
      <point x="1569" y="537" type="curve" smooth="yes"/>
      <point x="1569" y="279"/>
      <point x="1504" y="-14"/>
      <point x="1278" y="-14" type="curve" smooth="yes"/>
      <point x="1204" y="-14"/>
      <point x="1112" y="20"/>
      <point x="1028" y="132" type="curve"/>
      <point x="958" y="25"/>
      <point x="871" y="-18"/>
      <point x="833" y="-18" type="curve" smooth="yes"/>
      <point x="676" y="-18"/>
      <point x="600" y="114"/>
      <point x="600" y="297" type="curve" smooth="yes"/>
      <point x="600" y="518"/>
      <point x="743" y="804"/>
      <point x="916" y="804" type="curve" smooth="yes"/>
      <point x="1097" y="804"/>
      <point x="1184" y="562"/>
      <point x="1184" y="317" type="curve"/>
      <point x="1162" y="149" type="line"/>
      <point x="1183" y="130"/>
      <point x="1217" y="129"/>
      <point x="1254" y="129" type="curve" smooth="yes"/>
      <point x="1273" y="129"/>
      <point x="1295" y="129"/>
      <point x="1310" y="129" type="curve" smooth="yes"/>
      <point x="1449" y="129"/>
      <point x="1461" y="354"/>
      <point x="1461" y="537" type="curve" smooth="yes"/>
      <point x="1461" y="841"/>
      <point x="1254" y="1047"/>
      <point x="968" y="1047" type="curve" smooth="yes"/>
      <point x="612" y="1047"/>
      <point x="277" y="755"/>
      <point x="277" y="292" type="curve" smooth="yes"/>
      <point x="277" y="-139"/>
      <point x="499" y="-284"/>
    </contour>
    <contour>
      <point x="726" y="282" type="curve" smooth="yes"/>
      <point x="726" y="237"/>
      <point x="745" y="173"/>
      <point x="841" y="173" type="curve" smooth="yes"/>
      <point x="1023" y="173"/>
      <point x="1074" y="436"/>
      <point x="1074" y="502" type="curve" smooth="yes"/>
      <point x="1074" y="574"/>
      <point x="988" y="619"/>
      <point x="924" y="619" type="curve" smooth="yes"/>
      <point x="786" y="619"/>
      <point x="729" y="418"/>
    </contour>
  </outline>
</glyph>
<glyph name="H" format="1">
  <advance width="1114"/>
  <unicode hex="0048"/>
  <outline>
    <contour>
      <point x="305" y="492" type="curve"/>
      <point x="373" y="499"/>
      <point x="436" y="501"/>
      <point x="615" y="501" type="curve" smooth="yes"/>
      <point x="671" y="501"/>
      <point x="736" y="501"/>
      <point x="818" y="501" type="curve"/>
      <point x="812" y="136" type="line" smooth="yes"/>
      <point x="810" y="20"/>
      <point x="836" y="-12"/>
      <point x="889" y="-12" type="curve" smooth="yes"/>
      <point x="934" y="-12"/>
      <point x="963" y="36"/>
      <point x="963" y="94" type="curve" smooth="yes"/>
      <point x="963" y="134"/>
      <point x="963" y="305"/>
      <point x="955" y="544" type="curve"/>
      <point x="968" y="610" type="line"/>
      <point x="967" y="641"/>
      <point x="958" y="671"/>
      <point x="949" y="688" type="curve"/>
      <point x="949" y="942"/>
      <point x="952" y="993"/>
      <point x="952" y="1025" type="curve" smooth="yes"/>
      <point x="952" y="1152"/>
      <point x="938" y="1221"/>
      <point x="875" y="1221" type="curve" smooth="yes"/>
      <point x="820" y="1221"/>
      <point x="812" y="1154"/>
      <point x="810" y="1074" type="curve" smooth="yes"/>
      <point x="810" y="1057"/>
      <point x="810" y="999"/>
      <point x="814" y="696" type="curve"/>
      <point x="305" y="696" type="line"/>
      <point x="305" y="822"/>
      <point x="307" y="965"/>
      <point x="307" y="1092" type="curve" smooth="yes"/>
      <point x="307" y="1146"/>
      <point x="268" y="1216"/>
      <point x="238" y="1216" type="curve" smooth="yes"/>
      <point x="139" y="1216"/>
      <point x="165" y="905"/>
      <point x="165" y="483" type="curve" smooth="yes"/>
      <point x="165" y="394"/>
      <point x="160" y="283"/>
      <point x="160" y="146" type="curve" smooth="yes"/>
      <point x="160" y="60"/>
      <point x="169" y="-10"/>
      <point x="228" y="-10" type="curve" smooth="yes"/>
      <point x="256" y="-10"/>
      <point x="309" y="26"/>
      <point x="311" y="69" type="curve" smooth="yes"/>
      <point x="311" y="91"/>
      <point x="309" y="155"/>
    </contour>
    <contour>
      <point x="563" y="-297" type="move" name="btm"/>
    </contour>
    <contour>
      <point x="596" y="1497" type="move" name="top"/>
    </contour>
  </outline>
</glyph>
<glyph name="K" format="1">
  <advance width="1005"/>
  <unicode hex="004B"/>
  <outline>
    <contour>
      <point x="812" y="359" type="curve"/>
      <point x="705" y="590" type="line" smooth="yes"/>
      <point x="674" y="655"/>
      <point x="641" y="726"/>
      <point x="602" y="792" type="curve"/>
      <point x="716" y="955"/>
      <point x="829" y="975"/>
      <point x="829" y="1126" type="curve" smooth="yes"/>
      <point x="829" y="1191"/>
      <point x="792" y="1216"/>
      <point x="775" y="1216" type="curve" smooth="yes"/>
      <point x="694" y="1213"/>
      <point x="679" y="1146"/>
      <point x="626" y="1083" type="curve" smooth="yes"/>
      <point x="588" y="1035"/>
      <point x="590" y="1035"/>
      <point x="515" y="930" type="curve"/>
      <point x="472" y="924"/>
      <point x="454" y="894"/>
      <point x="427" y="839" type="curve"/>
      <point x="391" y="781"/>
      <point x="337" y="729"/>
      <point x="305" y="676" type="curve"/>
      <point x="303" y="681"/>
      <point x="303" y="706"/>
      <point x="303" y="729" type="curve" smooth="yes"/>
      <point x="303" y="755"/>
      <point x="303" y="779"/>
      <point x="303" y="792" type="curve" smooth="yes"/>
      <point x="315" y="1126" type="line"/>
      <point x="315" y="1192"/>
      <point x="282" y="1221"/>
      <point x="253" y="1221" type="curve" smooth="yes"/>
      <point x="200" y="1221"/>
      <point x="183" y="1157"/>
      <point x="181" y="1112" type="curve" smooth="yes"/>
      <point x="173" y="909"/>
      <point x="169" y="715"/>
      <point x="165" y="518" type="curve" smooth="yes"/>
      <point x="157" y="192" type="line"/>
      <point x="157" y="74"/>
      <point x="165" y="-25"/>
      <point x="248" y="-25" type="curve" smooth="yes"/>
      <point x="279" y="-25"/>
      <point x="324" y="8"/>
      <point x="322" y="66" type="curve" smooth="yes"/>
      <point x="317" y="193" type="line" smooth="yes"/>
      <point x="315" y="256"/>
      <point x="307" y="319"/>
      <point x="309" y="436" type="curve"/>
      <point x="352" y="499"/>
      <point x="443" y="619"/>
      <point x="502" y="676" type="curve"/>
      <point x="489" y="678" type="line"/>
      <point x="540" y="616"/>
      <point x="715" y="208"/>
      <point x="750" y="105" type="curve" smooth="yes"/>
      <point x="781" y="12"/>
      <point x="820" y="-104"/>
      <point x="860" y="-104" type="curve" smooth="yes"/>
      <point x="924" y="-104"/>
      <point x="942" y="-49"/>
      <point x="942" y="18" type="curve" smooth="yes"/>
      <point x="942" y="95"/>
      <point x="860" y="254"/>
    </contour>
    <contour>
      <point x="550" y="-297" type="move" name="btm"/>
    </contour>
    <contour>
      <point x="518" y="1429" type="move" name="top"/>
    </contour>
  </outline>
</glyph>
<glyph name="P" format="1">
  <advance width="988"/>
  <unicode hex="0050"/>
  <outline>
    <contour>
      <point x="150" y="478" type="curve" smooth="yes"/>
      <point x="150" y="461"/>
      <point x="160" y="427"/>
      <point x="167" y="413" type="curve"/>
      <point x="147" y="203" type="line" smooth="yes"/>
      <point x="125" y="-24"/>
      <point x="192" y="-10"/>
      <point x="236" y="-10" type="curve" smooth="yes"/>
      <point x="253" y="-10"/>
      <point x="302" y="-5"/>
      <point x="302" y="63" type="curve"/>
      <point x="283" y="332"/>
      <point x="301" y="342"/>
      <point x="297" y="384" type="curve"/>
      <point x="307" y="381"/>
      <point x="322" y="378"/>
      <point x="332" y="378" type="curve" smooth="yes"/>
      <point x="678" y="378"/>
      <point x="914" y="533"/>
      <point x="914" y="875" type="curve" smooth="yes"/>
      <point x="914" y="1076"/>
      <point x="836" y="1198"/>
      <point x="581" y="1198" type="curve"/>
      <point x="481" y="1202"/>
      <point x="366" y="1140"/>
      <point x="317" y="1090" type="curve"/>
      <point x="301" y="1090"/>
      <point x="279" y="1134"/>
      <point x="262" y="1134" type="curve" smooth="yes"/>
      <point x="157" y="1129"/>
      <point x="167" y="874"/>
      <point x="167" y="639" type="curve" smooth="yes"/>
      <point x="167" y="574"/>
      <point x="150" y="537"/>
    </contour>
    <contour>
      <point x="295" y="600" type="curve"/>
      <point x="305" y="904"/>
      <point x="312" y="944"/>
      <point x="312" y="952" type="curve"/>
      <point x="337" y="983"/>
      <point x="473" y="1015"/>
      <point x="542" y="1015" type="curve" smooth="yes"/>
      <point x="715" y="1015"/>
      <point x="791" y="934"/>
      <point x="791" y="822" type="curve" smooth="yes"/>
      <point x="791" y="666"/>
      <point x="595" y="582"/>
      <point x="396" y="582" type="curve" smooth="yes"/>
      <point x="354" y="582"/>
      <point x="327" y="590"/>
    </contour>
    <contour>
      <point x="532" y="-297" type="move" name="btm"/>
    </contour>
    <contour>
      <point x="535" y="1515" type="move" name="top"/>
    </contour>
  </outline>
</glyph>
<glyph name="R" format="1">
  <advance width="1060"/>
  <unicode hex="0052"/>
  <outline>
    <contour>
      <point x="293" y="481" type="curve"/>
      <point x="344" y="507"/>
      <point x="448" y="533"/>
      <point x="483" y="533" type="curve" smooth="yes"/>
      <point x="596" y="533"/>
      <point x="760" y="495"/>
      <point x="812" y="387" type="curve"/>
      <point x="822" y="328"/>
      <point x="824" y="292"/>
      <point x="824" y="237" type="curve" smooth="yes"/>
      <point x="824" y="184"/>
      <point x="822" y="134"/>
      <point x="822" y="85" type="curve" smooth="yes"/>
      <point x="822" y="60" type="line" smooth="yes"/>
      <point x="822" y="-5"/>
      <point x="832" y="-60"/>
      <point x="887" y="-60" type="curve" smooth="yes"/>
      <point x="959" y="-60"/>
      <point x="960" y="55"/>
      <point x="960" y="173" type="curve" smooth="yes"/>
      <point x="960" y="421"/>
      <point x="930" y="605"/>
      <point x="715" y="678" type="curve"/>
      <point x="781" y="720"/>
      <point x="844" y="792"/>
      <point x="844" y="914" type="curve" smooth="yes"/>
      <point x="844" y="1109"/>
      <point x="705" y="1194"/>
      <point x="570" y="1194" type="curve" smooth="yes"/>
      <point x="437" y="1194"/>
      <point x="315" y="1128"/>
      <point x="208" y="1023" type="curve"/>
      <point x="155" y="967"/>
      <point x="150" y="823"/>
      <point x="150" y="730" type="curve" smooth="yes"/>
      <point x="150" y="441"/>
      <point x="183" y="256"/>
      <point x="183" y="195" type="curve" smooth="yes"/>
      <point x="183" y="167"/>
      <point x="175" y="130"/>
      <point x="175" y="101" type="curve" smooth="yes"/>
      <point x="175" y="45"/>
      <point x="208" y="-14"/>
      <point x="248" y="-14" type="curve" smooth="yes"/>
      <point x="299" y="-14"/>
      <point x="334" y="25"/>
      <point x="334" y="88" type="curve"/>
      <point x="312" y="184"/>
      <point x="295" y="367"/>
    </contour>
    <contour>
      <point x="277" y="856" type="curve" smooth="yes"/>
      <point x="279" y="949"/>
      <point x="471" y="1013"/>
      <point x="572" y="1013" type="curve" smooth="yes"/>
      <point x="641" y="1013"/>
      <point x="719" y="987"/>
      <point x="719" y="891" type="curve" smooth="yes"/>
      <point x="719" y="814"/>
      <point x="429" y="722"/>
      <point x="282" y="694" type="curve"/>
      <point x="277" y="724"/>
      <point x="274" y="757"/>
      <point x="274" y="794" type="curve" smooth="yes"/>
      <point x="274" y="814"/>
      <point x="277" y="836"/>
    </contour>
    <contour>
      <point x="555" y="-297" type="move" name="btm"/>
    </contour>
    <contour>
      <point x="552" y="1515" type="move" name="top"/>
    </contour>
  </outline>
</glyph>
<glyph name="T" format="1">
  <advance width="871"/>
  <unicode hex="0054"/>
  <outline>
    <contour>
      <point x="537" y="198" type="curve" smooth="yes"/>
      <point x="537" y="205"/>
      <point x="537" y="193"/>
      <point x="508" y="1013" type="curve"/>
      <point x="557" y="1020"/>
      <point x="643" y="1020"/>
      <point x="660" y="1020" type="curve" smooth="yes"/>
      <point x="691" y="1020"/>
      <point x="726" y="977"/>
      <point x="755" y="977" type="curve" smooth="yes"/>
      <point x="798" y="977"/>
      <point x="839" y="1062"/>
      <point x="839" y="1102" type="curve" smooth="yes"/>
      <point x="839" y="1159"/>
      <point x="808" y="1206"/>
      <point x="757" y="1206" type="curve"/>
      <point x="598" y="1196" type="line"/>
      <point x="177" y="1192" type="line" smooth="yes"/>
      <point x="119" y="1192"/>
      <point x="57" y="1166"/>
      <point x="57" y="1054" type="curve" smooth="yes"/>
      <point x="57" y="998"/>
      <point x="88" y="975"/>
      <point x="150" y="975" type="curve" smooth="yes"/>
      <point x="213" y="975"/>
      <point x="287" y="988"/>
      <point x="367" y="998" type="curve"/>
      <point x="394" y="193" type="line" smooth="yes"/>
      <point x="394" y="175"/>
      <point x="392" y="153"/>
      <point x="392" y="134" type="curve" smooth="yes"/>
      <point x="392" y="43"/>
      <point x="403" y="-12"/>
      <point x="483" y="-12" type="curve" smooth="yes"/>
      <point x="547" y="-12"/>
      <point x="553" y="10"/>
      <point x="555" y="81" type="curve"/>
      <point x="553" y="99"/>
      <point x="542" y="169"/>
    </contour>
    <contour>
      <point x="448" y="-297" type="move" name="btm"/>
    </contour>
    <contour>
      <point x="456" y="1497" type="move" name="top"/>
    </contour>
  </outline>
</glyph>
<glyph name="U" format="1">
  <advance width="1050"/>
  <unicode hex="0055"/>
  <outline>
    <contour>
      <point x="884" y="413" type="curve" smooth="yes"/>
      <point x="884" y="652"/>
      <point x="905" y="928"/>
      <point x="932" y="1052" type="curve"/>
      <point x="936" y="1094" type="line" smooth="yes"/>
      <point x="936" y="1099"/>
      <point x="938" y="1102"/>
      <point x="938" y="1111" type="curve" smooth="yes"/>
      <point x="938" y="1181"/>
      <point x="914" y="1231"/>
      <point x="884" y="1231" type="curve" smooth="yes"/>
      <point x="815" y="1231"/>
      <point x="781" y="1144"/>
      <point x="771" y="894" type="curve"/>
      <point x="740" y="391" type="line" smooth="yes"/>
      <point x="732" y="247"/>
      <point x="629" y="163"/>
      <point x="481" y="163" type="curve" smooth="yes"/>
      <point x="305" y="163"/>
      <point x="284" y="429"/>
      <point x="284" y="635" type="curve" smooth="yes"/>
      <point x="284" y="760"/>
      <point x="322" y="999"/>
      <point x="322" y="1128" type="curve" smooth="yes"/>
      <point x="322" y="1176"/>
      <point x="309" y="1216"/>
      <point x="268" y="1216" type="curve" smooth="yes"/>
      <point x="153" y="1216"/>
      <point x="144" y="804"/>
      <point x="144" y="629" type="curve" smooth="yes"/>
      <point x="144" y="598" type="line" smooth="yes"/>
      <point x="144" y="319"/>
      <point x="200" y="-26"/>
      <point x="458" y="-26" type="curve" smooth="yes"/>
      <point x="540" y="-26"/>
      <point x="671" y="25"/>
      <point x="747" y="132" type="curve"/>
      <point x="750" y="25"/>
      <point x="773" y="-12"/>
      <point x="818" y="-12" type="curve" smooth="yes"/>
      <point x="871" y="-12"/>
      <point x="904" y="20"/>
      <point x="904" y="67" type="curve" smooth="yes"/>
      <point x="904" y="159"/>
      <point x="884" y="287"/>
    </contour>
    <contour>
      <point x="542" y="-297" type="move" name="btm"/>
    </contour>
    <contour>
      <point x="547" y="1515" type="move" name="top"/>
    </contour>
  </outline>
</glyph>
<glyph name="Y" format="1">
  <advance width="798"/>
  <unicode hex="0059"/>
  <outline>
    <contour>
      <point x="205" y="74" type="curve" smooth="yes"/>
      <point x="205" y="23"/>
      <point x="270" y="-29"/>
      <point x="292" y="-29" type="curve" smooth="yes"/>
      <point x="313" y="-29"/>
      <point x="342" y="35"/>
      <point x="347" y="58" type="curve"/>
      <point x="436" y="293"/>
      <point x="705" y="812"/>
      <point x="788" y="1013" type="curve" smooth="yes"/>
      <point x="831" y="1109"/>
      <point x="849" y="1128"/>
      <point x="849" y="1147" type="curve" smooth="yes"/>
      <point x="849" y="1191"/>
      <point x="833" y="1231"/>
      <point x="802" y="1231" type="curve" smooth="yes"/>
      <point x="709" y="1231"/>
      <point x="616" y="977"/>
      <point x="515" y="769" type="curve" smooth="yes"/>
      <point x="427" y="590" type="line"/>
      <point x="359" y="696"/>
      <point x="160" y="1102"/>
      <point x="122" y="1164" type="curve" smooth="yes"/>
      <point x="98" y="1206"/>
      <point x="85" y="1216"/>
      <point x="63" y="1216" type="curve" smooth="yes"/>
      <point x="33" y="1216"/>
      <point x="5" y="1174"/>
      <point x="5" y="1129" type="curve" smooth="yes"/>
      <point x="5" y="1002"/>
      <point x="283" y="523"/>
      <point x="322" y="463" type="curve" smooth="yes"/>
      <point x="329" y="454"/>
      <point x="334" y="433"/>
      <point x="334" y="427" type="curve" smooth="yes"/>
      <point x="334" y="426"/>
      <point x="311" y="382"/>
      <point x="301" y="364" type="curve" smooth="yes"/>
      <point x="248" y="268"/>
      <point x="208" y="146"/>
    </contour>
    <contour>
      <point x="427" y="-297" type="move" name="btm"/>
    </contour>
    <contour>
      <point x="450" y="1497" type="move" name="top"/>
    </contour>
  </outline>
</glyph>
<glyph name="Z" format="1">
  <advance width="960"/>
  <unicode hex="005A"/>
  <outline>
    <contour>
      <point x="877" y="-14" type="curve" smooth="yes"/>
      <point x="930" y="-14"/>
      <point x="952" y="67"/>
      <point x="952" y="126" type="curve" smooth="yes"/>
      <point x="952" y="179"/>
      <point x="932" y="225"/>
      <point x="877" y="225" type="curve" smooth="yes"/>
      <point x="834" y="225"/>
      <point x="790" y="183"/>
      <point x="739" y="183" type="curve" smooth="yes"/>
      <point x="679" y="183"/>
      <point x="625" y="181"/>
      <point x="567" y="181" type="curve" smooth="yes"/>
      <point x="553" y="181"/>
      <point x="537" y="181"/>
      <point x="525" y="181" type="curve" smooth="yes"/>
      <point x="287" y="181" type="line"/>
      <point x="309" y="229"/>
      <point x="374" y="337"/>
      <point x="403" y="381" type="curve" smooth="yes"/>
      <point x="485" y="502"/>
      <point x="786" y="977"/>
      <point x="786" y="1070" type="curve" smooth="yes"/>
      <point x="786" y="1109"/>
      <point x="779" y="1166"/>
      <point x="751" y="1171" type="curve" smooth="yes"/>
      <point x="694" y="1176"/>
      <point x="643" y="1178"/>
      <point x="590" y="1178" type="curve" smooth="yes"/>
      <point x="499" y="1178"/>
      <point x="411" y="1173"/>
      <point x="326" y="1173" type="curve" smooth="yes"/>
      <point x="277" y="1173"/>
      <point x="205" y="1181"/>
      <point x="157" y="1181" type="curve" smooth="yes"/>
      <point x="114" y="1181"/>
      <point x="79" y="1147"/>
      <point x="79" y="1080" type="curve" smooth="yes"/>
      <point x="79" y="1013"/>
      <point x="119" y="963"/>
      <point x="169" y="963" type="curve" smooth="yes"/>
      <point x="277" y="963"/>
      <point x="427" y="980"/>
      <point x="550" y="980" type="curve" smooth="yes"/>
      <point x="562" y="980"/>
      <point x="578" y="980"/>
      <point x="590" y="980" type="curve"/>
      <point x="489" y="757"/>
      <point x="326" y="535"/>
      <point x="208" y="334" type="curve" smooth="yes"/>
      <point x="159" y="253"/>
      <point x="124" y="173"/>
      <point x="124" y="84" type="curve" smooth="yes"/>
      <point x="124" y="25"/>
      <point x="132" y="-5"/>
      <point x="175" y="-8" type="curve" smooth="yes"/>
      <point x="277" y="-18"/>
      <point x="307" y="-18"/>
      <point x="342" y="-18" type="curve" smooth="yes"/>
      <point x="505" y="-18"/>
      <point x="666" y="-5"/>
      <point x="802" y="-5" type="curve" smooth="yes"/>
      <point x="829" y="-5"/>
      <point x="849" y="-14"/>
    </contour>
    <contour>
      <point x="515" y="-297" type="move" name="btm"/>
    </contour>
    <contour>
      <point x="499" y="1497" type="move" name="top"/>
    </contour>
  </outline>
</glyph>
<glyph name="backslash" format="1">
  <advance width="621"/>
  <unicode hex="005C"/>
  <outline>
    <contour>
      <point x="570" y="-81" type="curve"/>
      <point x="462" y="344"/>
      <point x="299" y="963"/>
      <point x="173" y="1343" type="curve" smooth="yes"/>
      <point x="159" y="1381"/>
      <point x="122" y="1449"/>
      <point x="94" y="1449" type="curve" smooth="yes"/>
      <point x="55" y="1449"/>
      <point x="29" y="1414"/>
      <point x="29" y="1350" type="curve" smooth="yes"/>
      <point x="29" y="1341"/>
      <point x="33" y="1325"/>
      <point x="36" y="1315" type="curve" smooth="yes"/>
      <point x="136" y="1035"/>
      <point x="220" y="722"/>
      <point x="413" y="-71" type="curve"/>
      <point x="413" y="-124"/>
      <point x="446" y="-183"/>
      <point x="472" y="-183" type="curve" smooth="yes"/>
      <point x="505" y="-183"/>
      <point x="570" y="-160"/>
    </contour>
  </outline>
</glyph>
<glyph name="grave" format="1">
  <advance width="408"/>
  <unicode hex="0060"/>
  <outline>
    <contour>
      <point x="167" y="999" type="curve" smooth="yes"/>
      <point x="210" y="999"/>
      <point x="215" y="1023"/>
      <point x="215" y="1064" type="curve" smooth="yes"/>
      <point x="215" y="1093" type="line" smooth="yes"/>
      <point x="215" y="1144"/>
      <point x="189" y="1168"/>
      <point x="159" y="1194" type="curve" smooth="yes"/>
      <point x="89" y="1262"/>
      <point x="14" y="1443"/>
      <point x="-69" y="1443" type="curve" smooth="yes"/>
      <point x="-110" y="1443"/>
      <point x="-142" y="1410"/>
      <point x="-142" y="1350" type="curve" smooth="yes"/>
      <point x="-142" y="1307"/>
      <point x="81" y="999"/>
    </contour>
    <contour>
      <point x="144" y="1516" type="move" name="_top"/>
    </contour>
  </outline>
</glyph>
<glyph name="a" format="1">
  <advance width="1021"/>
  <unicode hex="0061"/>
  <outline>
    <contour>
      <point x="920" y="169" type="curve" smooth="yes"/>
      <point x="875" y="169"/>
      <point x="850" y="198"/>
      <point x="850" y="279" type="curve" smooth="yes"/>
      <point x="850" y="399"/>
      <point x="879" y="472"/>
      <point x="879" y="570" type="curve" smooth="yes"/>
      <point x="879" y="757"/>
      <point x="720" y="963"/>
      <point x="521" y="963" type="curve" smooth="yes"/>
      <point x="258" y="963"/>
      <point x="45" y="661"/>
      <point x="45" y="374" type="curve" smooth="yes"/>
      <point x="45" y="153"/>
      <point x="243" y="-23"/>
      <point x="409" y="-23" type="curve" smooth="yes"/>
      <point x="540" y="-23"/>
      <point x="649" y="76"/>
      <point x="736" y="187" type="curve"/>
      <point x="736" y="85"/>
      <point x="825" y="-12"/>
      <point x="904" y="-12" type="curve" smooth="yes"/>
      <point x="987" y="-12"/>
      <point x="1048" y="67"/>
      <point x="1048" y="134" type="curve" smooth="yes"/>
      <point x="1048" y="193"/>
      <point x="1031" y="218"/>
      <point x="990" y="218" type="curve"/>
      <point x="970" y="212"/>
      <point x="944" y="169"/>
    </contour>
    <contour>
      <point x="181" y="381" type="curve" smooth="yes"/>
      <point x="181" y="562"/>
      <point x="319" y="769"/>
      <point x="535" y="769" type="curve" smooth="yes"/>
      <point x="619" y="769"/>
      <point x="753" y="664"/>
      <point x="753" y="600" type="curve"/>
      <point x="726" y="423"/>
      <point x="696" y="169"/>
      <point x="441" y="169" type="curve" smooth="yes"/>
      <point x="317" y="169"/>
      <point x="181" y="254"/>
    </contour>
    <contour>
      <point x="545" y="-297" type="move" name="btm"/>
    </contour>
    <contour>
      <point x="525" y="1515" type="move" name="top"/>
    </contour>
  </outline>
</glyph>
<glyph name="b" format="1">
  <advance width="942"/>
  <unicode hex="0062"/>
  <outline>
    <contour>
      <point x="859" y="492" type="curve" smooth="yes"/>
      <point x="859" y="802"/>
      <point x="732" y="960"/>
      <point x="486" y="960" type="curve" smooth="yes"/>
      <point x="403" y="960"/>
      <point x="324" y="924"/>
      <point x="253" y="881" type="curve"/>
      <point x="253" y="1119"/>
      <point x="260" y="1246"/>
      <point x="260" y="1390" type="curve" smooth="yes"/>
      <point x="260" y="1436"/>
      <point x="218" y="1467"/>
      <point x="193" y="1467" type="curve" smooth="yes"/>
      <point x="136" y="1467"/>
      <point x="122" y="1426"/>
      <point x="122" y="1372" type="curve" smooth="yes"/>
      <point x="105" y="284" type="line"/>
      <point x="105" y="198" type="line" smooth="yes"/>
      <point x="105" y="69"/>
      <point x="114" y="-12"/>
      <point x="181" y="-12" type="curve" smooth="yes"/>
      <point x="213" y="-12"/>
      <point x="228" y="12"/>
      <point x="256" y="12" type="curve"/>
      <point x="301" y="-2"/>
      <point x="347" y="-10"/>
      <point x="394" y="-10" type="curve" smooth="yes"/>
      <point x="562" y="-10"/>
      <point x="859" y="119"/>
    </contour>
    <contour>
      <point x="253" y="668" type="curve"/>
      <point x="292" y="722"/>
      <point x="391" y="769"/>
      <point x="461" y="769" type="curve" smooth="yes"/>
      <point x="555" y="769"/>
      <point x="716" y="684"/>
      <point x="716" y="553" type="curve" smooth="yes"/>
      <point x="716" y="478"/>
      <point x="702" y="371"/>
      <point x="676" y="324" type="curve" smooth="yes"/>
      <point x="625" y="243"/>
      <point x="486" y="179"/>
      <point x="394" y="179" type="curve" smooth="yes"/>
      <point x="352" y="179"/>
      <point x="292" y="181"/>
      <point x="266" y="195" type="curve"/>
      <point x="256" y="215"/>
      <point x="250" y="250"/>
      <point x="250" y="458" type="curve" smooth="yes"/>
      <point x="250" y="515"/>
      <point x="250" y="585"/>
    </contour>
    <contour>
      <point x="481" y="-297" type="move" name="btm"/>
    </contour>
    <contour>
      <point x="557" y="1515" type="move" name="top"/>
    </contour>
  </outline>
</glyph>
<glyph name="c" format="1">
  <advance width="875"/>
  <unicode hex="0063"/>
  <outline>
    <contour>
      <point x="563" y="181" type="curve" smooth="yes"/>
      <point x="317" y="181"/>
      <point x="208" y="225"/>
      <point x="208" y="423" type="curve" smooth="yes"/>
      <point x="208" y="590"/>
      <point x="324" y="755"/>
      <point x="495" y="755" type="curve" smooth="yes"/>
      <point x="679" y="755"/>
      <point x="676" y="586"/>
      <point x="743" y="586" type="curve" smooth="yes"/>
      <point x="777" y="586"/>
      <point x="788" y="660"/>
      <point x="788" y="694" type="curve" smooth="yes"/>
      <point x="788" y="846"/>
      <point x="668" y="958"/>
      <point x="528" y="958" type="curve" smooth="yes"/>
      <point x="237" y="958"/>
      <point x="74" y="688"/>
      <point x="74" y="364" type="curve" smooth="yes"/>
      <point x="74" y="71"/>
      <point x="247" y="-10"/>
      <point x="454" y="-10" type="curve" smooth="yes"/>
      <point x="523" y="-10"/>
      <point x="582" y="-2"/>
      <point x="651" y="-2" type="curve" smooth="yes"/>
      <point x="710" y="-2" type="line" smooth="yes"/>
      <point x="740" y="-2"/>
      <point x="792" y="58"/>
      <point x="792" y="105" type="curve" smooth="yes"/>
      <point x="792" y="198"/>
      <point x="736" y="225"/>
      <point x="715" y="225" type="curve"/>
      <point x="657" y="212"/>
      <point x="631" y="181"/>
    </contour>
    <contour>
      <point x="431" y="-297" type="move" name="btm"/>
    </contour>
    <contour>
      <point x="439" y="1515" type="move" name="top"/>
    </contour>
  </outline>
</glyph>
<glyph name="g" format="1">
  <advance width="955"/>
  <unicode hex="0067"/>
  <outline>
    <contour>
      <point x="356" y="-237" type="curve" smooth="yes"/>
      <point x="305" y="-237"/>
      <point x="293" y="-279"/>
      <point x="293" y="-339" type="curve" smooth="yes"/>
      <point x="293" y="-456"/>
      <point x="502" y="-483"/>
      <point x="555" y="-483" type="curve" smooth="yes"/>
      <point x="814" y="-483"/>
      <point x="796" y="-159"/>
      <point x="833" y="60" type="curve" smooth="yes"/>
      <point x="833" y="66"/>
      <point x="834" y="69"/>
      <point x="834" y="74" type="curve" smooth="yes"/>
      <point x="853" y="547" type="line"/>
      <point x="853" y="720"/>
      <point x="660" y="958"/>
      <point x="454" y="958" type="curve" smooth="yes"/>
      <point x="192" y="958"/>
      <point x="74" y="688"/>
      <point x="74" y="416" type="curve" smooth="yes"/>
      <point x="74" y="124"/>
      <point x="203" y="-23"/>
      <point x="441" y="-23" type="curve" smooth="yes"/>
      <point x="533" y="-23"/>
      <point x="674" y="33"/>
      <point x="697" y="129" type="curve"/>
      <point x="679" y="-31"/>
      <point x="694" y="-284"/>
      <point x="567" y="-284" type="curve" smooth="yes"/>
      <point x="384" y="-284"/>
      <point x="397" y="-237"/>
    </contour>
    <contour>
      <point x="213" y="429" type="curve"/>
      <point x="215" y="605"/>
      <point x="279" y="765"/>
      <point x="476" y="765" type="curve" smooth="yes"/>
      <point x="657" y="765"/>
      <point x="697" y="586"/>
      <point x="715" y="448" type="curve"/>
      <point x="686" y="334"/>
      <point x="596" y="163"/>
      <point x="463" y="163" type="curve" smooth="yes"/>
      <point x="317" y="163"/>
      <point x="213" y="220"/>
    </contour>
    <contour>
      <point x="462" y="-297" type="move" name="btm"/>
    </contour>
    <contour>
      <point x="450" y="1515" type="move" name="top"/>
    </contour>
  </outline>
</glyph>
<glyph name="j" format="1">
  <advance width="570"/>
  <unicode hex="006A"/>
  <outline>
    <contour>
      <point x="423" y="866" type="curve"/>
      <point x="418" y="913"/>
      <point x="399" y="968"/>
      <point x="349" y="968" type="curve" smooth="yes"/>
      <point x="284" y="968"/>
      <point x="274" y="868"/>
      <point x="273" y="796" type="curve"/>
      <point x="270" y="222" type="line" smooth="yes"/>
      <point x="268" y="-39"/>
      <point x="256" y="-303"/>
      <point x="-41" y="-303" type="curve" smooth="yes"/>
      <point x="-71" y="-303" type="line" smooth="yes"/>
      <point x="-119" y="-303"/>
      <point x="-153" y="-317"/>
      <point x="-153" y="-392" type="curve" smooth="yes"/>
      <point x="-153" y="-495"/>
      <point x="-53" y="-495"/>
      <point x="-14" y="-495" type="curve" smooth="yes"/>
      <point x="409" y="-495"/>
      <point x="403" y="-163"/>
      <point x="403" y="270" type="curve" smooth="yes"/>
      <point x="403" y="349"/>
      <point x="400" y="421"/>
      <point x="400" y="481" type="curve" smooth="yes"/>
      <point x="400" y="612"/>
      <point x="423" y="747"/>
    </contour>
    <contour>
      <point x="337" y="1459" type="curve" smooth="yes"/>
      <point x="289" y="1459"/>
      <point x="229" y="1390"/>
      <point x="229" y="1327" type="curve" smooth="yes"/>
      <point x="229" y="1236"/>
      <point x="305" y="1217"/>
      <point x="344" y="1217" type="curve" smooth="yes"/>
      <point x="408" y="1217"/>
      <point x="437" y="1262"/>
      <point x="437" y="1341" type="curve" smooth="yes"/>
      <point x="437" y="1435"/>
      <point x="381" y="1459"/>
    </contour>
    <contour>
      <point x="142" y="-297" type="move" name="btm"/>
    </contour>
    <contour>
      <point x="228" y="1429" type="move" name="top"/>
    </contour>
  </outline>
</glyph>
<glyph name="k" format="1">
  <advance width="894"/>
  <unicode hex="006B"/>
  <outline>
    <contour>
      <point x="130" y="175" type="curve" smooth="yes"/>
      <point x="130" y="150"/>
      <point x="129" y="112"/>
      <point x="129" y="91" type="curve" smooth="yes"/>
      <point x="129" y="57"/>
      <point x="149" y="-14"/>
      <point x="205" y="-14" type="curve" smooth="yes"/>
      <point x="254" y="-14"/>
      <point x="284" y="50"/>
      <point x="284" y="98" type="curve" smooth="yes"/>
      <point x="284" y="163"/>
      <point x="282" y="243"/>
      <point x="282" y="301" type="curve"/>
      <point x="473" y="532" type="line"/>
      <point x="645" y="69"/>
      <point x="660" y="49"/>
      <point x="660" y="49" type="curve"/>
      <point x="660" y="49"/>
      <point x="660" y="49"/>
      <point x="660" y="49" type="curve"/>
      <point x="674" y="-5"/>
      <point x="694" y="-29"/>
      <point x="724" y="-29" type="curve" smooth="yes"/>
      <point x="771" y="-29"/>
      <point x="814" y="20"/>
      <point x="814" y="85" type="curve" smooth="yes"/>
      <point x="814" y="112"/>
      <point x="783" y="184"/>
      <point x="783" y="184" type="curve"/>
      <point x="734" y="293"/>
      <point x="740" y="253"/>
      <point x="688" y="373" type="curve" smooth="yes"/>
      <point x="647" y="462"/>
      <point x="619" y="560"/>
      <point x="580" y="651" type="curve"/>
      <point x="668" y="734"/>
      <point x="814" y="850"/>
      <point x="814" y="922" type="curve" smooth="yes"/>
      <point x="814" y="932" type="line" smooth="yes"/>
      <point x="814" y="994"/>
      <point x="798" y="1023"/>
      <point x="740" y="1023" type="curve" smooth="yes"/>
      <point x="716" y="1023"/>
      <point x="689" y="998"/>
      <point x="671" y="970" type="curve" smooth="yes"/>
      <point x="282" y="462" type="line"/>
      <point x="282" y="466"/>
      <point x="282" y="471"/>
      <point x="282" y="476" type="curve" smooth="yes"/>
      <point x="282" y="796"/>
      <point x="317" y="1074"/>
      <point x="317" y="1372" type="curve" smooth="yes"/>
      <point x="317" y="1439"/>
      <point x="274" y="1475"/>
      <point x="250" y="1475" type="curve" smooth="yes"/>
      <point x="218" y="1475"/>
      <point x="177" y="1433"/>
      <point x="175" y="1375" type="curve" smooth="yes"/>
      <point x="146" y="359" type="line" smooth="yes"/>
      <point x="144" y="303"/>
      <point x="132" y="270"/>
    </contour>
    <contour>
      <point x="471" y="-297" type="move" name="btm"/>
    </contour>
    <contour>
      <point x="532" y="1515" type="move" name="top"/>
    </contour>
  </outline>
</glyph>
<glyph name="n" format="1">
  <advance width="1005"/>
  <unicode hex="006E"/>
  <outline>
    <contour>
      <point x="734" y="84" type="curve" smooth="yes"/>
      <point x="734" y="-23"/>
      <point x="769" y="-29"/>
      <point x="812" y="-29" type="curve" smooth="yes"/>
      <point x="901" y="-29"/>
      <point x="909" y="237"/>
      <point x="909" y="439" type="curve" smooth="yes"/>
      <point x="909" y="684"/>
      <point x="839" y="967"/>
      <point x="563" y="967" type="curve" smooth="yes"/>
      <point x="478" y="967"/>
      <point x="292" y="889"/>
      <point x="244" y="720" type="curve"/>
      <point x="248" y="760"/>
      <point x="253" y="798"/>
      <point x="253" y="829" type="curve" smooth="yes"/>
      <point x="253" y="920"/>
      <point x="225" y="960"/>
      <point x="177" y="960" type="curve" smooth="yes"/>
      <point x="120" y="960"/>
      <point x="105" y="818"/>
      <point x="105" y="726" type="curve" smooth="yes"/>
      <point x="105" y="696" type="line" smooth="yes"/>
      <point x="105" y="671"/>
      <point x="105" y="643"/>
      <point x="116" y="501" type="curve"/>
      <point x="112" y="109" type="line" smooth="yes"/>
      <point x="109" y="0"/>
      <point x="160" y="-12"/>
      <point x="205" y="-12" type="curve" smooth="yes"/>
      <point x="268" y="-12"/>
      <point x="274" y="40"/>
      <point x="274" y="103" type="curve" smooth="yes"/>
      <point x="274" y="195"/>
      <point x="243" y="274"/>
      <point x="243" y="367" type="curve" smooth="yes"/>
      <point x="243" y="427"/>
      <point x="247" y="521"/>
      <point x="247" y="586" type="curve"/>
      <point x="313" y="694"/>
      <point x="448" y="775"/>
      <point x="532" y="775" type="curve" smooth="yes"/>
      <point x="745" y="775"/>
      <point x="775" y="540"/>
      <point x="775" y="384" type="curve" smooth="yes"/>
      <point x="775" y="277"/>
      <point x="734" y="184"/>
    </contour>
    <contour>
      <point x="507" y="-297" type="move" name="btm"/>
    </contour>
    <contour>
      <point x="511" y="1547" type="move" name="top"/>
    </contour>
  </outline>
</glyph>
<glyph name="q" format="1">
  <advance width="968"/>
  <unicode hex="0071"/>
  <outline>
    <contour>
      <point x="696" y="-399" type="line" smooth="yes"/>
      <point x="696" y="-403"/>
      <point x="696" y="-408"/>
      <point x="696" y="-411" type="curve" smooth="yes"/>
      <point x="696" y="-473"/>
      <point x="726" y="-491"/>
      <point x="775" y="-491" type="curve" smooth="yes"/>
      <point x="800" y="-491"/>
      <point x="850" y="-471"/>
      <point x="850" y="-408" type="curve" smooth="yes"/>
      <point x="850" y="-203" type="line" smooth="yes"/>
      <point x="850" y="165"/>
      <point x="866" y="377"/>
      <point x="866" y="574" type="curve" smooth="yes"/>
      <point x="866" y="836"/>
      <point x="635" y="975"/>
      <point x="483" y="975" type="curve" smooth="yes"/>
      <point x="254" y="975"/>
      <point x="85" y="743"/>
      <point x="85" y="443" type="curve" smooth="yes"/>
      <point x="85" y="229"/>
      <point x="220" y="-5"/>
      <point x="461" y="-5" type="curve" smooth="yes"/>
      <point x="553" y="-5"/>
      <point x="696" y="74"/>
      <point x="719" y="159" type="curve"/>
      <point x="716" y="-14" type="line"/>
    </contour>
    <contour>
      <point x="220" y="468" type="curve" smooth="yes"/>
      <point x="220" y="661"/>
      <point x="354" y="788"/>
      <point x="507" y="788" type="curve" smooth="yes"/>
      <point x="590" y="788"/>
      <point x="684" y="729"/>
      <point x="724" y="621" type="curve"/>
      <point x="724" y="454"/>
      <point x="681" y="189"/>
      <point x="476" y="189" type="curve" smooth="yes"/>
      <point x="297" y="189"/>
      <point x="220" y="342"/>
    </contour>
    <contour>
      <point x="476" y="-297" type="move" name="btm"/>
    </contour>
    <contour>
      <point x="423" y="1515" type="move" name="top"/>
    </contour>
  </outline>
</glyph>
<glyph name="r" format="1">
  <advance width="808"/>
  <unicode hex="0072"/>
  <outline>
    <contour>
      <point x="580" y="783" type="curve" smooth="yes"/>
      <point x="712" y="783"/>
      <point x="661" y="706"/>
      <point x="729" y="706" type="curve" smooth="yes"/>
      <point x="773" y="706"/>
      <point x="818" y="751"/>
      <point x="818" y="814" type="curve" smooth="yes"/>
      <point x="818" y="958"/>
      <point x="685" y="973"/>
      <point x="610" y="973" type="curve" smooth="yes"/>
      <point x="513" y="973"/>
      <point x="332" y="868"/>
      <point x="289" y="732" type="curve"/>
      <point x="292" y="752"/>
      <point x="292" y="825"/>
      <point x="292" y="841" type="curve" smooth="yes"/>
      <point x="292" y="928"/>
      <point x="258" y="952"/>
      <point x="237" y="952" type="curve" smooth="yes"/>
      <point x="187" y="952"/>
      <point x="163" y="907"/>
      <point x="159" y="844" type="curve" smooth="yes"/>
      <point x="126" y="418"/>
      <point x="129" y="392"/>
      <point x="129" y="313" type="curve" smooth="yes"/>
      <point x="129" y="297"/>
      <point x="129" y="282"/>
      <point x="129" y="253" type="curve" smooth="yes"/>
      <point x="129" y="223"/>
      <point x="126" y="183"/>
      <point x="126" y="119" type="curve" smooth="yes"/>
      <point x="126" y="35"/>
      <point x="144" y="-5"/>
      <point x="210" y="-5" type="curve" smooth="yes"/>
      <point x="266" y="-5"/>
      <point x="284" y="71"/>
      <point x="284" y="98" type="curve" smooth="yes"/>
      <point x="274" y="406" type="line" smooth="yes"/>
      <point x="274" y="418"/>
      <point x="274" y="429"/>
      <point x="274" y="441" type="curve" smooth="yes"/>
      <point x="274" y="666"/>
      <point x="349" y="783"/>
      <point x="557" y="783" type="curve" smooth="yes"/>
      <point x="563" y="783"/>
      <point x="570" y="783"/>
    </contour>
    <contour>
      <point x="202" y="-297" type="move" name="btm"/>
    </contour>
    <contour>
      <point x="478" y="1515" type="move" name="top"/>
    </contour>
  </outline>
</glyph>
<glyph name="s" format="1">
  <advance width="916"/>
  <unicode hex="0073"/>
  <outline>
    <contour>
      <point x="820" y="247" type="curve" smooth="yes"/>
      <point x="820" y="544"/>
      <point x="243" y="411"/>
      <point x="243" y="619" type="curve" smooth="yes"/>
      <point x="243" y="709"/>
      <point x="403" y="792"/>
      <point x="501" y="792" type="curve" smooth="yes"/>
      <point x="590" y="792"/>
      <point x="645" y="775"/>
      <point x="645" y="709" type="curve" smooth="yes"/>
      <point x="645" y="657"/>
      <point x="649" y="623"/>
      <point x="681" y="623" type="curve" smooth="yes"/>
      <point x="750" y="623"/>
      <point x="750" y="734"/>
      <point x="750" y="802" type="curve" smooth="yes"/>
      <point x="750" y="899"/>
      <point x="660" y="988"/>
      <point x="525" y="988" type="curve" smooth="yes"/>
      <point x="334" y="988"/>
      <point x="105" y="849"/>
      <point x="105" y="607" type="curve" smooth="yes"/>
      <point x="105" y="274"/>
      <point x="686" y="382"/>
      <point x="686" y="237" type="curve" smooth="yes"/>
      <point x="686" y="215"/>
      <point x="540" y="163"/>
      <point x="429" y="163" type="curve" smooth="yes"/>
      <point x="332" y="163"/>
      <point x="292" y="173"/>
      <point x="240" y="240" type="curve" smooth="yes"/>
      <point x="229" y="250"/>
      <point x="218" y="258"/>
      <point x="215" y="258" type="curve" smooth="yes"/>
      <point x="183" y="258"/>
      <point x="150" y="187"/>
      <point x="150" y="153" type="curve" smooth="yes"/>
      <point x="150" y="-10"/>
      <point x="322" y="-31"/>
      <point x="408" y="-31" type="curve" smooth="yes"/>
      <point x="525" y="-31"/>
      <point x="820" y="40"/>
    </contour>
    <contour>
      <point x="462" y="-297" type="move" name="btm"/>
    </contour>
    <contour>
      <point x="456" y="1515" type="move" name="top"/>
    </contour>
  </outline>
</glyph>
<glyph name="v" format="1">
  <advance width="907"/>
  <unicode hex="0076"/>
  <outline>
    <contour>
      <point x="101" y="952" type="curve" smooth="yes"/>
      <point x="53" y="952"/>
      <point x="49" y="894"/>
      <point x="49" y="849" type="curve" smooth="yes"/>
      <point x="49" y="800"/>
      <point x="66" y="753"/>
      <point x="81" y="719" type="curve"/>
      <point x="181" y="356"/>
      <point x="297" y="-29"/>
      <point x="382" y="-29" type="curve" smooth="yes"/>
      <point x="476" y="-29"/>
      <point x="641" y="347"/>
      <point x="722" y="540" type="curve"/>
      <point x="849" y="786"/>
      <point x="874" y="829"/>
      <point x="874" y="874" type="curve" smooth="yes"/>
      <point x="874" y="934"/>
      <point x="853" y="983"/>
      <point x="818" y="983" type="curve" smooth="yes"/>
      <point x="786" y="983"/>
      <point x="743" y="905"/>
      <point x="666" y="751" type="curve"/>
      <point x="472" y="305"/>
      <point x="429" y="232"/>
      <point x="411" y="213" type="curve"/>
      <point x="301" y="461"/>
      <point x="258" y="645"/>
      <point x="195" y="846" type="curve" smooth="yes"/>
      <point x="175" y="916"/>
      <point x="159" y="952"/>
    </contour>
    <contour>
      <point x="461" y="-297" type="move" name="btm"/>
    </contour>
    <contour>
      <point x="426" y="1515" type="move" name="top"/>
    </contour>
  </outline>
</glyph>
<glyph name="macron" format="1">
  <advance width="899"/>
  <unicode hex="00AF"/>
  <outline>
    <contour>
      <point x="181" y="1278" type="curve" smooth="yes"/>
      <point x="150" y="1278"/>
      <point x="119" y="1226"/>
      <point x="119" y="1177" type="curve" smooth="yes"/>
      <point x="119" y="1137"/>
      <point x="139" y="1103"/>
      <point x="189" y="1103" type="curve" smooth="yes"/>
      <point x="684" y="1103" type="line" smooth="yes"/>
      <point x="691" y="1103"/>
      <point x="705" y="1100"/>
      <point x="710" y="1100" type="curve" smooth="yes"/>
      <point x="736" y="1100"/>
      <point x="753" y="1112"/>
      <point x="753" y="1184" type="curve" smooth="yes"/>
      <point x="753" y="1261"/>
      <point x="732" y="1272"/>
      <point x="694" y="1272" type="curve" smooth="yes"/>
      <point x="508" y="1272"/>
      <point x="344" y="1278"/>
    </contour>
    <contour>
      <point x="458" y="1429" type="move" name="_top"/>
    </contour>
  </outline>
</glyph>
<glyph name="cedilla" format="1">
  <advance width="552"/>
  <unicode hex="00B8"/>
  <outline>
    <contour>
      <point x="105" y="-248" type="curve"/>
      <point x="84" y="-248"/>
      <point x="55" y="-284"/>
      <point x="55" y="-342" type="curve" smooth="yes"/>
      <point x="55" y="-461"/>
      <point x="213" y="-495"/>
      <point x="260" y="-495" type="curve" smooth="yes"/>
      <point x="368" y="-495"/>
      <point x="450" y="-456"/>
      <point x="450" y="-282" type="curve" smooth="yes"/>
      <point x="450" y="-158"/>
      <point x="344" y="-101"/>
      <point x="332" y="-26" type="curve"/>
      <point x="339" y="12" type="line" smooth="yes"/>
      <point x="339" y="18"/>
      <point x="342" y="23"/>
      <point x="342" y="29" type="curve" smooth="yes"/>
      <point x="342" y="43"/>
      <point x="337" y="98"/>
      <point x="289" y="98" type="curve" smooth="yes"/>
      <point x="228" y="98"/>
      <point x="220" y="-2"/>
      <point x="220" y="-41" type="curve" smooth="yes"/>
      <point x="220" y="-181"/>
      <point x="324" y="-266"/>
      <point x="324" y="-289" type="curve" smooth="yes"/>
      <point x="324" y="-313"/>
      <point x="299" y="-315"/>
      <point x="270" y="-315" type="curve" smooth="yes"/>
      <point x="195" y="-315"/>
      <point x="153" y="-270"/>
    </contour>
    <contour>
      <point x="279" y="1515" type="move" name="_top"/>
    </contour>
  </outline>
</glyph>
<glyph name="ordmasculine" format="1">
  <advance width="965"/>
  <unicode hex="00BA"/>
  <outline>
    <contour>
      <point x="788" y="1020" type="curve" smooth="yes"/>
      <point x="788" y="1268"/>
      <point x="679" y="1449"/>
      <point x="492" y="1449" type="curve" smooth="yes"/>
      <point x="329" y="1449"/>
      <point x="153" y="1310"/>
      <point x="153" y="1020" type="curve" smooth="yes"/>
      <point x="153" y="843"/>
      <point x="303" y="602"/>
      <point x="473" y="602" type="curve" smooth="yes"/>
      <point x="639" y="602"/>
      <point x="788" y="790"/>
    </contour>
    <contour>
      <point x="463" y="783" type="curve" smooth="yes"/>
      <point x="371" y="783"/>
      <point x="283" y="930"/>
      <point x="283" y="1035" type="curve" smooth="yes"/>
      <point x="283" y="1164"/>
      <point x="403" y="1266"/>
      <point x="508" y="1266" type="curve" smooth="yes"/>
      <point x="596" y="1266"/>
      <point x="661" y="1152"/>
      <point x="661" y="1028" type="curve" smooth="yes"/>
      <point x="661" y="895"/>
      <point x="567" y="783"/>
    </contour>
    <contour>
      <point x="492" y="439" type="curve" smooth="yes"/>
      <point x="426" y="439"/>
      <point x="382" y="399"/>
      <point x="382" y="305" type="curve" smooth="yes"/>
      <point x="382" y="215"/>
      <point x="448" y="200"/>
      <point x="502" y="200" type="curve" smooth="yes"/>
      <point x="555" y="200"/>
      <point x="615" y="279"/>
      <point x="615" y="319" type="curve" smooth="yes"/>
      <point x="615" y="400"/>
      <point x="523" y="439"/>
    </contour>
    <contour>
      <point x="403" y="1649" type="move" name="top"/>
    </contour>
  </outline>
</glyph>
<glyph name="threequarters" format="1">
  <advance width="1917"/>
  <unicode hex="00BE"/>
  <outline>
    <contour>
      <point x="225" y="695"/>
      <point x="264" y="720"/>
      <point x="187" y="720" type="curve" smooth="yes"/>
      <point x="157" y="720"/>
      <point x="140" y="646"/>
      <point x="140" y="612" type="curve"/>
      <point x="140" y="577"/>
      <point x="149" y="538"/>
      <point x="195" y="538" type="curve" smooth="yes"/>
      <point x="563" y="538"/>
      <point x="780" y="566"/>
      <point x="780" y="891" type="curve" smooth="yes"/>
      <point x="780" y="973"/>
      <point x="718" y="1070"/>
      <point x="650" y="1103" type="curve"/>
      <point x="749" y="1205"/>
      <point x="799" y="1315"/>
      <point x="799" y="1368" type="curve" smooth="yes"/>
      <point x="799" y="1487"/>
      <point x="736" y="1538"/>
      <point x="616" y="1538" type="curve" smooth="yes"/>
      <point x="533" y="1538"/>
      <point x="291" y="1492"/>
      <point x="291" y="1367" type="curve" smooth="yes"/>
      <point x="291" y="1333"/>
      <point x="329" y="1307"/>
      <point x="353" y="1307" type="curve" smooth="yes"/>
      <point x="364" y="1307"/>
      <point x="371" y="1315"/>
      <point x="382" y="1319" type="curve" smooth="yes"/>
      <point x="430" y="1350"/>
      <point x="522" y="1382"/>
      <point x="588" y="1382" type="curve" smooth="yes"/>
      <point x="607" y="1382"/>
      <point x="652" y="1379"/>
      <point x="669" y="1379" type="curve"/>
      <point x="665" y="1296"/>
      <point x="558" y="1204"/>
      <point x="482" y="1153" type="curve"/>
      <point x="413" y="1132"/>
      <point x="304" y="1090"/>
      <point x="304" y="1010" type="curve" smooth="yes"/>
      <point x="304" y="962"/>
      <point x="329" y="938"/>
      <point x="375" y="938" type="curve" smooth="yes"/>
      <point x="421" y="938"/>
      <point x="452" y="968"/>
      <point x="500" y="968" type="curve" smooth="yes"/>
      <point x="580" y="968"/>
      <point x="657" y="917"/>
      <point x="657" y="865" type="curve" smooth="yes"/>
      <point x="657" y="704"/>
      <point x="443" y="695"/>
      <point x="344" y="695" type="curve" smooth="yes"/>
    </contour>
    <contour>
      <point x="1205" y="283" type="line"/>
      <point x="1205" y="270" type="line" smooth="yes"/>
      <point x="1205" y="83"/>
      <point x="1287" y="-38"/>
      <point x="1442" y="-48" type="curve"/>
      <point x="1654" y="-54" type="line"/>
      <point x="1654" y="-361" type="line" smooth="yes"/>
      <point x="1654" y="-407"/>
      <point x="1681" y="-448"/>
      <point x="1705" y="-448" type="curve" smooth="yes"/>
      <point x="1759" y="-448"/>
      <point x="1799" y="-398"/>
      <point x="1799" y="-322" type="curve" smooth="yes"/>
      <point x="1799" y="-244"/>
      <point x="1792" y="-195"/>
      <point x="1792" y="-112" type="curve"/>
      <point x="1792" y="-98"/>
      <point x="1792" y="-61"/>
      <point x="1797" y="-28" type="curve"/>
      <point x="1806" y="-15"/>
      <point x="1820" y="9"/>
      <point x="1820" y="25" type="curve" smooth="yes"/>
      <point x="1820" y="55"/>
      <point x="1811" y="77"/>
      <point x="1803" y="91" type="curve"/>
      <point x="1813" y="642"/>
      <point x="1815" y="648"/>
      <point x="1815" y="654" type="curve" smooth="yes"/>
      <point x="1815" y="692"/>
      <point x="1788" y="756"/>
      <point x="1754" y="756" type="curve" smooth="yes"/>
      <point x="1714" y="756"/>
      <point x="1685" y="721"/>
      <point x="1683" y="652" type="curve" smooth="yes"/>
      <point x="1683" y="336"/>
      <point x="1676" y="220"/>
      <point x="1671" y="148" type="curve"/>
      <point x="1598" y="148" type="line" smooth="yes"/>
      <point x="1435" y="148"/>
      <point x="1333" y="141"/>
      <point x="1333" y="288" type="curve" smooth="yes"/>
      <point x="1340" y="446" type="line"/>
      <point x="1340" y="525"/>
      <point x="1324" y="594"/>
      <point x="1282" y="594" type="curve" smooth="yes"/>
      <point x="1237" y="594"/>
      <point x="1219" y="551"/>
      <point x="1215" y="506" type="curve" smooth="yes"/>
    </contour>
    <component base="fraction" xOffset="912"/>
  </outline>
</glyph>
<glyph name="Eth" format="1">
  <advance width="1178"/>
  <unicode hex="00D0"/>
  <outline>
    <contour>
      <point x="153" y="686" type="curve" smooth="yes"/>
      <point x="114" y="686"/>
      <point x="130" y="694"/>
      <point x="105" y="694" type="curve" smooth="yes"/>
      <point x="66" y="694"/>
      <point x="36" y="647"/>
      <point x="36" y="590" type="curve" smooth="yes"/>
      <point x="36" y="499"/>
      <point x="79" y="489"/>
      <point x="116" y="489" type="curve" smooth="yes"/>
      <point x="179" y="489"/>
      <point x="229" y="501"/>
      <point x="283" y="501" type="curve" smooth="yes"/>
      <point x="354" y="501"/>
      <point x="418" y="483"/>
      <point x="483" y="483" type="curve" smooth="yes"/>
      <point x="507" y="483"/>
      <point x="574" y="518"/>
      <point x="574" y="590" type="curve" smooth="yes"/>
      <point x="574" y="652"/>
      <point x="550" y="694"/>
      <point x="507" y="694" type="curve" smooth="yes"/>
      <point x="387" y="694"/>
      <point x="268" y="686"/>
    </contour>
    <component base="D"/>
    <contour>
      <point x="550" y="-297" type="move" name="btm"/>
    </contour>
  </outline>
</glyph>
<glyph name="eth" format="1">
  <advance width="1005"/>
  <unicode hex="00F0"/>
  <outline>
    <contour>
      <point x="555" y="1058" type="line"/>
      <point x="570" y="1068"/>
      <point x="574" y="1074"/>
      <point x="643" y="1133" type="curve"/>
      <point x="777" y="1226"/>
      <point x="859" y="1236"/>
      <point x="859" y="1357" type="curve" smooth="yes"/>
      <point x="859" y="1414"/>
      <point x="820" y="1429"/>
      <point x="804" y="1429" type="curve" smooth="yes"/>
      <point x="705" y="1429"/>
      <point x="560" y="1209"/>
      <point x="489" y="1162" type="curve"/>
      <point x="332" y="1097" type="line" smooth="yes"/>
      <point x="311" y="1089"/>
      <point x="303" y="1044"/>
      <point x="303" y="998" type="curve" smooth="yes"/>
      <point x="303" y="963"/>
      <point x="317" y="914"/>
      <point x="359" y="914" type="curve" smooth="yes"/>
      <point x="409" y="914"/>
      <point x="431" y="944"/>
      <point x="557" y="1058" type="curve"/>
    </contour>
    <contour>
      <point x="907" y="532" type="curve" smooth="yes"/>
      <point x="907" y="839"/>
      <point x="643" y="1436"/>
      <point x="232" y="1436" type="curve" smooth="yes"/>
      <point x="155" y="1436"/>
      <point x="130" y="1402"/>
      <point x="130" y="1340" type="curve" smooth="yes"/>
      <point x="130" y="1295"/>
      <point x="139" y="1257"/>
      <point x="238" y="1257" type="curve" smooth="yes"/>
      <point x="492" y="1257"/>
      <point x="757" y="808"/>
      <point x="757" y="600" type="curve"/>
      <point x="705" y="751"/>
      <point x="557" y="849"/>
      <point x="441" y="849" type="curve" smooth="yes"/>
      <point x="225" y="849"/>
      <point x="76" y="668"/>
      <point x="76" y="400" type="curve" smooth="yes"/>
      <point x="76" y="130"/>
      <point x="274" y="-29"/>
      <point x="478" y="-29" type="curve" smooth="yes"/>
      <point x="739" y="-29"/>
      <point x="907" y="139"/>
    </contour>
    <contour>
      <point x="508" y="169" type="curve" smooth="yes"/>
      <point x="377" y="169"/>
      <point x="198" y="229"/>
      <point x="198" y="403" type="curve" smooth="yes"/>
      <point x="198" y="501"/>
      <point x="256" y="655"/>
      <point x="437" y="655" type="curve" smooth="yes"/>
      <point x="555" y="655"/>
      <point x="724" y="523"/>
      <point x="753" y="344" type="curve"/>
      <point x="726" y="254"/>
      <point x="621" y="169"/>
    </contour>
    <contour>
      <point x="491" y="-297" type="move" name="btm"/>
    </contour>
  </outline>
</glyph>
<glyph name="aogonek" format="1">
  <advance width="965"/>
  <unicode hex="0105"/>
  <outline>
    <contour>
      <point x="722" y="-277" type="curve" smooth="yes"/>
      <point x="686" y="-277"/>
      <point x="641" y="-244"/>
      <point x="623" y="-192" type="curve"/>
      <point x="623" y="8"/>
      <point x="853" y="36"/>
      <point x="853" y="144" type="curve" smooth="yes"/>
      <point x="853" y="200"/>
      <point x="812" y="223"/>
      <point x="798" y="223" type="curve"/>
      <point x="753" y="195"/>
      <point x="745" y="177"/>
      <point x="681" y="132" type="curve" smooth="yes"/>
      <point x="598" y="76"/>
      <point x="481" y="-43"/>
      <point x="481" y="-232" type="curve" smooth="yes"/>
      <point x="481" y="-359"/>
      <point x="582" y="-450"/>
      <point x="710" y="-450" type="curve" smooth="yes"/>
      <point x="790" y="-450"/>
      <point x="891" y="-433"/>
      <point x="891" y="-293" type="curve" smooth="yes"/>
      <point x="891" y="-254"/>
      <point x="877" y="-213"/>
      <point x="850" y="-213" type="curve" smooth="yes"/>
      <point x="792" y="-213"/>
      <point x="786" y="-277"/>
    </contour>
    <contour>
      <point x="856" y="523" type="line"/>
      <point x="856" y="808"/>
      <point x="706" y="965"/>
      <point x="481" y="965" type="curve" smooth="yes"/>
      <point x="367" y="965"/>
      <point x="116" y="942"/>
      <point x="116" y="818" type="curve" smooth="yes"/>
      <point x="116" y="739"/>
      <point x="136" y="716"/>
      <point x="195" y="716" type="curve" smooth="yes"/>
      <point x="213" y="716"/>
      <point x="243" y="734"/>
      <point x="258" y="740" type="curve" smooth="yes"/>
      <point x="287" y="753" type="line" smooth="yes"/>
      <point x="319" y="769"/>
      <point x="374" y="781"/>
      <point x="441" y="781" type="curve" smooth="yes"/>
      <point x="560" y="781"/>
      <point x="736" y="767"/>
      <point x="736" y="521" type="curve"/>
      <point x="743" y="382" type="line"/>
      <point x="849" y="175" type="line"/>
    </contour>
    <contour>
      <point x="820" y="208" type="curve" smooth="yes"/>
      <point x="833" y="222"/>
      <point x="833" y="229"/>
      <point x="833" y="243" type="curve" smooth="yes"/>
      <point x="833" y="282" type="line" smooth="yes"/>
      <point x="833" y="505"/>
      <point x="706" y="625"/>
      <point x="450" y="625" type="curve" smooth="yes"/>
      <point x="179" y="625"/>
      <point x="79" y="502"/>
      <point x="79" y="289" type="curve" smooth="yes"/>
      <point x="79" y="119"/>
      <point x="198" y="-20"/>
      <point x="400" y="-20" type="curve" smooth="yes"/>
      <point x="633" y="-20"/>
      <point x="757" y="101"/>
    </contour>
    <contour>
      <point x="200" y="297" type="curve" smooth="yes"/>
      <point x="203" y="400"/>
      <point x="301" y="441"/>
      <point x="450" y="441" type="curve" smooth="yes"/>
      <point x="563" y="441"/>
      <point x="719" y="413"/>
      <point x="732" y="317" type="curve"/>
      <point x="688" y="250"/>
      <point x="578" y="160"/>
      <point x="427" y="160" type="curve" smooth="yes"/>
      <point x="277" y="160"/>
      <point x="200" y="229"/>
    </contour>
  </outline>
</glyph>
<glyph name="Hbar" format="1">
  <advance width="1219"/>
  <unicode hex="0126"/>
  <outline>
    <contour>
      <point x="120" y="804" type="curve"/>
      <point x="1099" y="804" type="line" smooth="yes"/>
      <point x="1126" y="804"/>
      <point x="1154" y="814"/>
      <point x="1154" y="897" type="curve" smooth="yes"/>
      <point x="1154" y="968"/>
      <point x="1126" y="998"/>
      <point x="1092" y="998" type="curve" smooth="yes"/>
      <point x="940" y="998"/>
      <point x="223" y="993"/>
      <point x="112" y="988" type="curve" smooth="yes"/>
      <point x="84" y="987"/>
      <point x="49" y="958"/>
      <point x="49" y="907" type="curve" smooth="yes"/>
      <point x="49" y="866"/>
      <point x="69" y="804"/>
    </contour>
    <contour>
      <point x="364" y="382" type="curve"/>
      <point x="431" y="391"/>
      <point x="495" y="392"/>
      <point x="674" y="392" type="curve" smooth="yes"/>
      <point x="729" y="392"/>
      <point x="796" y="392"/>
      <point x="877" y="392" type="curve"/>
      <point x="871" y="136" type="line"/>
      <point x="871" y="20"/>
      <point x="894" y="-12"/>
      <point x="946" y="-12" type="curve" smooth="yes"/>
      <point x="993" y="-12"/>
      <point x="1021" y="36"/>
      <point x="1021" y="94" type="curve" smooth="yes"/>
      <point x="1021" y="134"/>
      <point x="1021" y="305"/>
      <point x="1013" y="544" type="curve"/>
      <point x="1028" y="610" type="line"/>
      <point x="1025" y="641"/>
      <point x="1015" y="671"/>
      <point x="1008" y="688" type="curve"/>
      <point x="1008" y="942"/>
      <point x="1009" y="993"/>
      <point x="1009" y="1025" type="curve" smooth="yes"/>
      <point x="1009" y="1152"/>
      <point x="998" y="1221"/>
      <point x="934" y="1221" type="curve" smooth="yes"/>
      <point x="879" y="1221"/>
      <point x="871" y="1154"/>
      <point x="868" y="1074" type="curve" smooth="yes"/>
      <point x="868" y="1057"/>
      <point x="868" y="891"/>
      <point x="874" y="588" type="curve"/>
      <point x="364" y="588" type="line"/>
      <point x="364" y="715"/>
      <point x="367" y="965"/>
      <point x="367" y="1092" type="curve" smooth="yes"/>
      <point x="367" y="1146"/>
      <point x="326" y="1216"/>
      <point x="297" y="1216" type="curve" smooth="yes"/>
      <point x="198" y="1216"/>
      <point x="223" y="905"/>
      <point x="223" y="483" type="curve" smooth="yes"/>
      <point x="223" y="394"/>
      <point x="220" y="283"/>
      <point x="220" y="146" type="curve" smooth="yes"/>
      <point x="220" y="60"/>
      <point x="228" y="-10"/>
      <point x="287" y="-10" type="curve" smooth="yes"/>
      <point x="315" y="-10"/>
      <point x="368" y="26"/>
      <point x="371" y="69" type="curve" smooth="yes"/>
      <point x="371" y="91"/>
      <point x="368" y="45"/>
    </contour>
  </outline>
</glyph>
<glyph name="idotless" format="1">
  <advance width="400"/>
  <unicode hex="0131"/>
  <outline>
    <contour>
      <point x="268" y="436" type="curve" smooth="yes"/>
      <point x="268" y="580"/>
      <point x="284" y="745"/>
      <point x="289" y="864" type="curve"/>
      <point x="289" y="920"/>
      <point x="284" y="967"/>
      <point x="240" y="967" type="curve" smooth="yes"/>
      <point x="126" y="967"/>
      <point x="126" y="463"/>
      <point x="126" y="284" type="curve" smooth="yes"/>
      <point x="126" y="136"/>
      <point x="132" y="91"/>
      <point x="134" y="79" type="curve" smooth="yes"/>
      <point x="149" y="4"/>
      <point x="177" y="-23"/>
      <point x="225" y="-23" type="curve" smooth="yes"/>
      <point x="256" y="-23"/>
      <point x="293" y="14"/>
      <point x="293" y="85" type="curve" smooth="yes"/>
      <point x="293" y="184"/>
      <point x="268" y="329"/>
    </contour>
    <contour>
      <point x="210" y="-297" type="move" name="btm"/>
    </contour>
    <contour>
      <point x="222" y="1515" type="move" name="top"/>
    </contour>
  </outline>
</glyph>
<glyph name="IJ" format="1">
  <advance width="973"/>
  <unicode hex="0132"/>
  <outline>
    <contour>
      <point x="268" y="798" type="curve"/>
      <point x="270" y="850"/>
      <point x="277" y="913"/>
      <point x="293" y="1119" type="curve"/>
      <point x="293" y="1168"/>
      <point x="287" y="1211"/>
      <point x="240" y="1216" type="curve" smooth="yes"/>
      <point x="139" y="1223"/>
      <point x="122" y="1182"/>
      <point x="119" y="661" type="curve" smooth="yes"/>
      <point x="119" y="545"/>
      <point x="130" y="404"/>
      <point x="229" y="404" type="curve" smooth="yes"/>
      <point x="266" y="404"/>
      <point x="299" y="439"/>
      <point x="299" y="503" type="curve" smooth="yes"/>
      <point x="299" y="616"/>
      <point x="268" y="689"/>
    </contour>
    <contour>
      <point x="411" y="-18" type="curve" smooth="yes"/>
      <point x="582" y="-18"/>
      <point x="720" y="58"/>
      <point x="825" y="248" type="curve" smooth="yes"/>
      <point x="856" y="305"/>
      <point x="864" y="507"/>
      <point x="866" y="671" type="curve" smooth="yes"/>
      <point x="871" y="936" type="line" smooth="yes"/>
      <point x="874" y="1094"/>
      <point x="860" y="1209"/>
      <point x="810" y="1209" type="curve" smooth="yes"/>
      <point x="743" y="1209"/>
      <point x="715" y="1129"/>
      <point x="715" y="1062" type="curve" smooth="yes"/>
      <point x="715" y="836"/>
      <point x="710" y="602"/>
      <point x="710" y="391" type="curve" smooth="yes"/>
      <point x="710" y="282"/>
      <point x="563" y="187"/>
      <point x="437" y="187" type="curve" smooth="yes"/>
      <point x="387" y="187"/>
      <point x="309" y="193"/>
      <point x="297" y="218" type="curve" smooth="yes"/>
      <point x="287" y="237"/>
      <point x="254" y="268"/>
      <point x="243" y="268" type="curve" smooth="yes"/>
      <point x="189" y="268"/>
      <point x="157" y="193"/>
      <point x="157" y="142" type="curve" smooth="yes"/>
      <point x="157" y="8"/>
      <point x="334" y="-18"/>
    </contour>
  </outline>
</glyph>
<glyph name="eng" format="1">
  <advance width="1005"/>
  <unicode hex="014B"/>
  <outline>
    <contour>
      <point x="757" y="10" type="line"/>
      <point x="753" y="-203"/>
      <point x="629" y="-228"/>
      <point x="489" y="-228" type="curve" smooth="yes"/>
      <point x="473" y="-228"/>
      <point x="461" y="-228"/>
      <point x="443" y="-228" type="curve" smooth="yes"/>
      <point x="387" y="-228"/>
      <point x="349" y="-247"/>
      <point x="349" y="-317" type="curve" smooth="yes"/>
      <point x="349" y="-421"/>
      <point x="450" y="-421"/>
      <point x="491" y="-421" type="curve" smooth="yes"/>
      <point x="846" y="-421"/>
      <point x="905" y="-189"/>
      <point x="909" y="139" type="curve" smooth="yes"/>
      <point x="913" y="319" type="line" smooth="yes"/>
      <point x="916" y="615"/>
      <point x="877" y="967"/>
      <point x="563" y="967" type="curve" smooth="yes"/>
      <point x="478" y="967"/>
      <point x="317" y="849"/>
      <point x="238" y="765" type="curve"/>
      <point x="243" y="796"/>
      <point x="244" y="820"/>
      <point x="244" y="843" type="curve" smooth="yes"/>
      <point x="244" y="926"/>
      <point x="218" y="960"/>
      <point x="177" y="960" type="curve" smooth="yes"/>
      <point x="120" y="960"/>
      <point x="105" y="818"/>
      <point x="105" y="726" type="curve"/>
      <point x="114" y="550"/>
      <point x="116" y="523"/>
      <point x="116" y="501" type="curve" smooth="yes"/>
      <point x="112" y="98" type="line" smooth="yes"/>
      <point x="109" y="-10"/>
      <point x="160" y="-25"/>
      <point x="205" y="-25" type="curve" smooth="yes"/>
      <point x="270" y="-25"/>
      <point x="273" y="31"/>
      <point x="274" y="94" type="curve" smooth="yes"/>
      <point x="274" y="116"/>
      <point x="243" y="240"/>
      <point x="243" y="352" type="curve" smooth="yes"/>
      <point x="243" y="427"/>
      <point x="247" y="521"/>
      <point x="247" y="586" type="curve"/>
      <point x="313" y="694"/>
      <point x="448" y="775"/>
      <point x="532" y="775" type="curve" smooth="yes"/>
      <point x="753" y="775"/>
      <point x="775" y="511"/>
      <point x="775" y="352" type="curve"/>
    </contour>
  </outline>
</glyph>
<glyph name="OE" format="1">
  <advance width="1858"/>
  <unicode hex="0152"/>
  <outline>
    <contour>
      <point x="1126" y="208" type="curve"/>
      <point x="1126" y="274"/>
      <point x="1128" y="368"/>
      <point x="1128" y="532" type="curve"/>
      <point x="1522" y="532" type="line" smooth="yes"/>
      <point x="1565" y="532"/>
      <point x="1583" y="612"/>
      <point x="1583" y="635" type="curve" smooth="yes"/>
      <point x="1583" y="709"/>
      <point x="1551" y="736"/>
      <point x="1516" y="736" type="curve" smooth="yes"/>
      <point x="1471" y="736"/>
      <point x="1435" y="726"/>
      <point x="1400" y="726" type="curve" smooth="yes"/>
      <point x="1335" y="726"/>
      <point x="1297" y="732"/>
      <point x="1121" y="732" type="curve"/>
      <point x="1121" y="1012" type="line"/>
      <point x="1681" y="1003" type="line" smooth="yes"/>
      <point x="1713" y="1003"/>
      <point x="1745" y="1060"/>
      <point x="1745" y="1102" type="curve" smooth="yes"/>
      <point x="1745" y="1191"/>
      <point x="1718" y="1201"/>
      <point x="1630" y="1201" type="curve" smooth="yes"/>
      <point x="1444" y="1201"/>
      <point x="1317" y="1192"/>
      <point x="1188" y="1192" type="curve" smooth="yes"/>
      <point x="1144" y="1192"/>
      <point x="1109" y="1231"/>
      <point x="1066" y="1231" type="curve" smooth="yes"/>
      <point x="1021" y="1231"/>
      <point x="1003" y="1094"/>
      <point x="998" y="1042" type="curve"/>
      <point x="932" y="1149"/>
      <point x="781" y="1221"/>
      <point x="655" y="1221" type="curve" smooth="yes"/>
      <point x="382" y="1221"/>
      <point x="116" y="1050"/>
      <point x="116" y="590" type="curve" smooth="yes"/>
      <point x="116" y="307"/>
      <point x="346" y="-23"/>
      <point x="625" y="-23" type="curve" smooth="yes"/>
      <point x="732" y="-23"/>
      <point x="942" y="53"/>
      <point x="983" y="136" type="curve"/>
      <point x="983" y="5"/>
      <point x="1021" y="-12"/>
      <point x="1066" y="-12" type="curve" smooth="yes"/>
      <point x="1142" y="-12"/>
      <point x="1201" y="-2"/>
      <point x="1254" y="-2" type="curve" smooth="yes"/>
      <point x="1620" y="-2"/>
      <point x="1565" y="-29"/>
      <point x="1625" y="-29" type="curve" smooth="yes"/>
      <point x="1679" y="-29"/>
      <point x="1728" y="-5"/>
      <point x="1728" y="76" type="curve" smooth="yes"/>
      <point x="1728" y="155"/>
      <point x="1709" y="193"/>
      <point x="1625" y="193" type="curve" smooth="yes"/>
      <point x="1456" y="193"/>
      <point x="1299" y="208"/>
    </contour>
    <contour>
      <point x="254" y="616" type="curve" smooth="yes"/>
      <point x="254" y="891"/>
      <point x="458" y="1025"/>
      <point x="671" y="1025" type="curve" smooth="yes"/>
      <point x="792" y="1025"/>
      <point x="934" y="924"/>
      <point x="999" y="814" type="curve"/>
      <point x="999" y="781"/>
      <point x="998" y="722"/>
      <point x="998" y="691" type="curve"/>
      <point x="987" y="679"/>
      <point x="977" y="652"/>
      <point x="977" y="626" type="curve" smooth="yes"/>
      <point x="977" y="605"/>
      <point x="987" y="578"/>
      <point x="993" y="555" type="curve"/>
      <point x="993" y="392" type="line"/>
      <point x="916" y="260"/>
      <point x="743" y="175"/>
      <point x="616" y="175" type="curve" smooth="yes"/>
      <point x="426" y="175"/>
      <point x="254" y="403"/>
    </contour>
    <contour>
      <point x="930" y="-297" type="move" name="btm"/>
    </contour>
  </outline>
</glyph>
<glyph name="Tbar" format="1">
  <advance width="874"/>
  <unicode hex="0166"/>
  <outline>
    <contour>
      <point x="635" y="595" type="line" smooth="yes"/>
      <point x="676" y="596"/>
      <point x="710" y="595"/>
      <point x="710" y="691" type="curve" smooth="yes"/>
      <point x="710" y="775"/>
      <point x="679" y="790"/>
      <point x="649" y="790" type="curve" smooth="yes"/>
      <point x="537" y="790"/>
      <point x="399" y="769"/>
      <point x="309" y="769" type="curve" smooth="yes"/>
      <point x="277" y="769"/>
      <point x="247" y="773"/>
      <point x="223" y="773" type="curve" smooth="yes"/>
      <point x="198" y="773"/>
      <point x="157" y="720"/>
      <point x="157" y="674" type="curve" smooth="yes"/>
      <point x="157" y="629"/>
      <point x="181" y="565"/>
      <point x="232" y="565" type="curve"/>
    </contour>
    <component base="T" xOffset="5"/>
  </outline>
</glyph>
<glyph name="bstroke" format="1">
  <advance width="942"/>
  <unicode hex="0180"/>
  <outline>
    <contour>
      <point x="859" y="492" type="curve" smooth="yes"/>
      <point x="859" y="802"/>
      <point x="732" y="960"/>
      <point x="486" y="960" type="curve" smooth="yes"/>
      <point x="403" y="960"/>
      <point x="324" y="924"/>
      <point x="253" y="881" type="curve"/>
      <point x="253" y="963"/>
      <point x="253" y="1030"/>
      <point x="254" y="1092" type="curve"/>
      <point x="317" y="1087"/>
      <point x="373" y="1072"/>
      <point x="431" y="1072" type="curve" smooth="yes"/>
      <point x="454" y="1072"/>
      <point x="523" y="1093"/>
      <point x="523" y="1164" type="curve" smooth="yes"/>
      <point x="523" y="1227"/>
      <point x="497" y="1268"/>
      <point x="454" y="1268" type="curve" smooth="yes"/>
      <point x="388" y="1268"/>
      <point x="324" y="1264"/>
      <point x="258" y="1262" type="curve"/>
      <point x="260" y="1305"/>
      <point x="260" y="1347"/>
      <point x="260" y="1390" type="curve" smooth="yes"/>
      <point x="260" y="1436"/>
      <point x="218" y="1467"/>
      <point x="193" y="1467" type="curve" smooth="yes"/>
      <point x="136" y="1467"/>
      <point x="122" y="1426"/>
      <point x="122" y="1372" type="curve" smooth="yes"/>
      <point x="120" y="1260" type="line"/>
      <point x="99" y="1260" type="line" smooth="yes"/>
      <point x="60" y="1260"/>
      <point x="77" y="1268"/>
      <point x="55" y="1268" type="curve" smooth="yes"/>
      <point x="12" y="1268"/>
      <point x="-15" y="1236"/>
      <point x="-15" y="1178" type="curve" smooth="yes"/>
      <point x="-15" y="1089"/>
      <point x="26" y="1076"/>
      <point x="63" y="1076" type="curve" smooth="yes"/>
      <point x="81" y="1076"/>
      <point x="99" y="1076"/>
      <point x="116" y="1078" type="curve"/>
      <point x="105" y="284" type="line"/>
      <point x="105" y="198" type="line" smooth="yes"/>
      <point x="105" y="69"/>
      <point x="114" y="-12"/>
      <point x="181" y="-12" type="curve" smooth="yes"/>
      <point x="213" y="-12"/>
      <point x="228" y="12"/>
      <point x="256" y="12" type="curve"/>
      <point x="301" y="-2"/>
      <point x="347" y="-10"/>
      <point x="394" y="-10" type="curve" smooth="yes"/>
      <point x="562" y="-10"/>
      <point x="859" y="119"/>
    </contour>
    <contour>
      <point x="253" y="668" type="curve"/>
      <point x="292" y="722"/>
      <point x="391" y="769"/>
      <point x="461" y="769" type="curve" smooth="yes"/>
      <point x="555" y="769"/>
      <point x="716" y="684"/>
      <point x="716" y="553" type="curve" smooth="yes"/>
      <point x="716" y="478"/>
      <point x="702" y="371"/>
      <point x="676" y="324" type="curve"/>
      <point x="625" y="243"/>
      <point x="486" y="179"/>
      <point x="394" y="179" type="curve" smooth="yes"/>
      <point x="352" y="179"/>
      <point x="292" y="181"/>
      <point x="266" y="195" type="curve"/>
      <point x="256" y="215"/>
      <point x="250" y="250"/>
      <point x="250" y="458" type="curve" smooth="yes"/>
      <point x="250" y="515"/>
      <point x="250" y="585"/>
    </contour>
  </outline>
</glyph>
<glyph name="Schwa" format="1">
  <advance width="1099"/>
  <unicode hex="018F"/>
  <outline>
    <contour>
      <point x="334" y="560" type="curve"/>
      <point x="357" y="559"/>
      <point x="743" y="565"/>
      <point x="768" y="565" type="curve" smooth="yes"/>
      <point x="816" y="565"/>
      <point x="864" y="585"/>
      <point x="864" y="666" type="curve" smooth="yes"/>
      <point x="864" y="734"/>
      <point x="806" y="765"/>
      <point x="762" y="765" type="curve" smooth="yes"/>
      <point x="727" y="765"/>
      <point x="309" y="765"/>
      <point x="257" y="759" type="curve"/>
      <point x="259" y="822" type="line" smooth="yes"/>
      <point x="262" y="928"/>
      <point x="311" y="1044"/>
      <point x="495" y="1044" type="curve" smooth="yes"/>
      <point x="696" y="1044"/>
      <point x="866" y="930"/>
      <point x="866" y="676" type="curve" smooth="yes"/>
      <point x="866" y="463"/>
      <point x="661" y="179"/>
      <point x="492" y="179" type="curve" smooth="yes"/>
      <point x="411" y="179"/>
      <point x="349" y="215"/>
      <point x="282" y="287" type="curve" smooth="yes"/>
      <point x="262" y="307"/>
      <point x="230" y="345"/>
      <point x="215" y="345" type="curve" smooth="yes"/>
      <point x="185" y="345"/>
      <point x="157" y="317"/>
      <point x="157" y="253" type="curve" smooth="yes"/>
      <point x="157" y="88"/>
      <point x="311" y="-12"/>
      <point x="481" y="-12" type="curve" smooth="yes"/>
      <point x="792" y="-12"/>
      <point x="977" y="441"/>
      <point x="977" y="649" type="curve" smooth="yes"/>
      <point x="977" y="1020"/>
      <point x="829" y="1237"/>
      <point x="517" y="1231" type="curve" smooth="yes"/>
      <point x="122" y="1223"/>
      <point x="103" y="750"/>
      <point x="103" y="652" type="curve" smooth="yes"/>
      <point x="103" y="607"/>
      <point x="139" y="555"/>
      <point x="175" y="555" type="curve" smooth="yes"/>
      <point x="232" y="555"/>
      <point x="282" y="560"/>
    </contour>
  </outline>
</glyph>
<glyph name="florin" format="1">
  <advance width="767"/>
  <unicode hex="0192"/>
  <outline>
    <contour>
      <point x="792" y="1092" type="curve" smooth="yes"/>
      <point x="831" y="1092"/>
      <point x="839" y="1168"/>
      <point x="839" y="1188" type="curve" smooth="yes"/>
      <point x="839" y="1283"/>
      <point x="678" y="1343"/>
      <point x="625" y="1343" type="curve" smooth="yes"/>
      <point x="427" y="1343"/>
      <point x="282" y="1149"/>
      <point x="248" y="836" type="curve" smooth="yes"/>
      <point x="179" y="94" type="line" smooth="yes"/>
      <point x="179" y="18"/>
      <point x="200" y="-10"/>
      <point x="274" y="-10" type="curve" smooth="yes"/>
      <point x="307" y="-10"/>
      <point x="332" y="25"/>
      <point x="334" y="99" type="curve" smooth="yes"/>
      <point x="334" y="120"/>
      <point x="332" y="132"/>
      <point x="332" y="146" type="curve" smooth="yes"/>
      <point x="352" y="550"/>
      <point x="371" y="676"/>
      <point x="384" y="796" type="curve"/>
      <point x="384" y="949"/>
      <point x="446" y="1152"/>
      <point x="612" y="1152" type="curve" smooth="yes"/>
      <point x="706" y="1152"/>
      <point x="720" y="1092"/>
    </contour>
    <contour>
      <point x="635" y="907" type="curve"/>
      <point x="253" y="907" type="line"/>
      <point x="105" y="913" type="line" smooth="yes"/>
      <point x="76" y="913"/>
      <point x="35" y="863"/>
      <point x="35" y="804" type="curve" smooth="yes"/>
      <point x="35" y="760"/>
      <point x="58" y="719"/>
      <point x="95" y="716" type="curve"/>
      <point x="311" y="726" type="line"/>
      <point x="413" y="724" type="line" smooth="yes"/>
      <point x="495" y="720"/>
      <point x="562" y="719"/>
      <point x="645" y="716" type="curve"/>
      <point x="671" y="716"/>
      <point x="747" y="724"/>
      <point x="747" y="839" type="curve" smooth="yes"/>
      <point x="747" y="897"/>
      <point x="716" y="913"/>
      <point x="688" y="913" type="curve" smooth="yes"/>
      <point x="674" y="913"/>
      <point x="649" y="909"/>
    </contour>
    <contour>
      <point x="119" y="1630" type="move" name="top"/>
    </contour>
  </outline>
</glyph>
<glyph name="Ohorn" format="1">
  <advance width="1248"/>
  <unicode hex="01A0"/>
  <outline>
    <contour>
      <point x="1142" y="1246" type="curve" smooth="yes"/>
      <point x="1178" y="1246"/>
      <point x="1246" y="1211"/>
      <point x="1246" y="1157" type="curve" smooth="yes"/>
      <point x="1246" y="1018"/>
      <point x="985" y="1030"/>
      <point x="985" y="901" type="curve" smooth="yes"/>
      <point x="985" y="850"/>
      <point x="1023" y="822"/>
      <point x="1048" y="822" type="curve"/>
      <point x="1191" y="905" type="line"/>
      <point x="1264" y="965"/>
      <point x="1388" y="1015"/>
      <point x="1388" y="1201" type="curve" smooth="yes"/>
      <point x="1388" y="1328"/>
      <point x="1286" y="1421"/>
      <point x="1156" y="1421" type="curve" smooth="yes"/>
      <point x="1080" y="1421"/>
      <point x="955" y="1404"/>
      <point x="955" y="1264" type="curve" smooth="yes"/>
      <point x="955" y="1223"/>
      <point x="965" y="1181"/>
      <point x="993" y="1181" type="curve" smooth="yes"/>
      <point x="1058" y="1181"/>
      <point x="1057" y="1246"/>
    </contour>
    <contour>
      <point x="105" y="590" type="curve"/>
      <point x="105" y="307"/>
      <point x="342" y="-23"/>
      <point x="619" y="-23" type="curve" smooth="yes"/>
      <point x="884" y="-23"/>
      <point x="1133" y="229"/>
      <point x="1133" y="598" type="curve" smooth="yes"/>
      <point x="1133" y="987"/>
      <point x="958" y="1221"/>
      <point x="651" y="1221" type="curve" smooth="yes"/>
      <point x="382" y="1221"/>
      <point x="112" y="1048"/>
    </contour>
    <contour>
      <point x="243" y="619" type="curve" smooth="yes"/>
      <point x="243" y="899"/>
      <point x="454" y="1033"/>
      <point x="666" y="1033" type="curve" smooth="yes"/>
      <point x="860" y="1033"/>
      <point x="1002" y="864"/>
      <point x="1002" y="592" type="curve" smooth="yes"/>
      <point x="1002" y="315"/>
      <point x="812" y="169"/>
      <point x="610" y="169" type="curve" smooth="yes"/>
      <point x="418" y="169"/>
      <point x="243" y="403"/>
    </contour>
    <contour>
      <point x="616" y="-297" type="move" name="btm"/>
    </contour>
    <contour>
      <point x="602" y="1515" type="move" name="top"/>
    </contour>
  </outline>
</glyph>
<glyph name="uhorn" format="1">
  <advance width="938"/>
  <unicode hex="01B0"/>
  <outline>
    <contour>
      <point x="884" y="1107" type="curve" smooth="yes"/>
      <point x="920" y="1107"/>
      <point x="987" y="1072"/>
      <point x="987" y="1020" type="curve" smooth="yes"/>
      <point x="987" y="879"/>
      <point x="726" y="952"/>
      <point x="726" y="823" type="curve" smooth="yes"/>
      <point x="726" y="773"/>
      <point x="765" y="745"/>
      <point x="790" y="745" type="curve"/>
      <point x="1048" y="815"/>
      <point x="1129" y="877"/>
      <point x="1129" y="1062" type="curve" smooth="yes"/>
      <point x="1129" y="1191"/>
      <point x="1028" y="1282"/>
      <point x="897" y="1282" type="curve" smooth="yes"/>
      <point x="822" y="1282"/>
      <point x="696" y="1246"/>
      <point x="696" y="1166" type="curve" smooth="yes"/>
      <point x="696" y="1126"/>
      <point x="706" y="1083"/>
      <point x="734" y="1083" type="curve" smooth="yes"/>
      <point x="800" y="1083"/>
      <point x="798" y="1107"/>
    </contour>
    <contour>
      <point x="215" y="960" type="curve" smooth="yes"/>
      <point x="116" y="960"/>
      <point x="88" y="674"/>
      <point x="88" y="495" type="curve" smooth="yes"/>
      <point x="88" y="307"/>
      <point x="122" y="-29"/>
      <point x="421" y="-29" type="curve" smooth="yes"/>
      <point x="523" y="-29"/>
      <point x="643" y="81"/>
      <point x="678" y="232" type="curve"/>
      <point x="676" y="200"/>
      <point x="676" y="173"/>
      <point x="676" y="149" type="curve" smooth="yes"/>
      <point x="676" y="5"/>
      <point x="696" y="-10"/>
      <point x="751" y="-10" type="curve" smooth="yes"/>
      <point x="796" y="-10"/>
      <point x="814" y="8"/>
      <point x="815" y="85" type="curve" smooth="yes"/>
      <point x="831" y="881" type="line" smooth="yes"/>
      <point x="831" y="934"/>
      <point x="798" y="960"/>
      <point x="771" y="960" type="curve" smooth="yes"/>
      <point x="745" y="960"/>
      <point x="697" y="940"/>
      <point x="697" y="875" type="curve" smooth="yes"/>
      <point x="694" y="596" type="line" smooth="yes"/>
      <point x="691" y="535"/>
      <point x="688" y="440"/>
      <point x="681" y="346" type="curve"/>
      <point x="621" y="247"/>
      <point x="547" y="163"/>
      <point x="411" y="163" type="curve" smooth="yes"/>
      <point x="247" y="163"/>
      <point x="222" y="408"/>
      <point x="222" y="518" type="curve" smooth="yes"/>
      <point x="222" y="655"/>
      <point x="270" y="804"/>
      <point x="270" y="889" type="curve" smooth="yes"/>
      <point x="270" y="932"/>
      <point x="256" y="960"/>
    </contour>
    <contour>
      <point x="433" y="-297" type="move" name="btm"/>
    </contour>
    <contour>
      <point x="347" y="1515" type="move" name="top"/>
    </contour>
  </outline>
</glyph>
<glyph name="uni02C9" format="1">
  <advance width="999"/>
  <unicode hex="02C9"/>
  <outline>
    <contour>
      <point x="228" y="1560" type="curve" smooth="yes"/>
      <point x="197" y="1560"/>
      <point x="166" y="1508"/>
      <point x="166" y="1459" type="curve" smooth="yes"/>
      <point x="166" y="1419"/>
      <point x="186" y="1385"/>
      <point x="236" y="1385" type="curve" smooth="yes"/>
      <point x="731" y="1385" type="line" smooth="yes"/>
      <point x="738" y="1385"/>
      <point x="752" y="1382"/>
      <point x="757" y="1382" type="curve" smooth="yes"/>
      <point x="783" y="1382"/>
      <point x="800" y="1394"/>
      <point x="800" y="1466" type="curve" smooth="yes"/>
      <point x="800" y="1543"/>
      <point x="779" y="1554"/>
      <point x="741" y="1554" type="curve" smooth="yes"/>
      <point x="555" y="1554"/>
      <point x="391" y="1560"/>
    </contour>
    <contour>
      <point x="488" y="1588" type="move" name="_top"/>
    </contour>
  </outline>
</glyph>
<glyph name="dotaccent" format="1">
  <advance width="368"/>
  <unicode hex="02D9"/>
  <outline>
    <contour>
      <point x="183" y="1414" type="curve" smooth="yes"/>
      <point x="136" y="1414"/>
      <point x="79" y="1345"/>
      <point x="79" y="1282" type="curve" smooth="yes"/>
      <point x="79" y="1191"/>
      <point x="153" y="1174"/>
      <point x="192" y="1174" type="curve" smooth="yes"/>
      <point x="254" y="1174"/>
      <point x="284" y="1217"/>
      <point x="284" y="1299" type="curve" smooth="yes"/>
      <point x="284" y="1392"/>
      <point x="228" y="1414"/>
    </contour>
    <contour>
      <point x="184" y="1429" type="move" name="_top"/>
    </contour>
  </outline>
</glyph>
<glyph name="tilde" format="1">
  <advance width="866"/>
  <unicode hex="02DC"/>
  <outline>
    <contour>
      <point x="307" y="1252" type="curve" smooth="yes"/>
      <point x="382" y="1252"/>
      <point x="471" y="1111"/>
      <point x="563" y="1111" type="curve" smooth="yes"/>
      <point x="676" y="1111"/>
      <point x="734" y="1221"/>
      <point x="734" y="1312" type="curve" smooth="yes"/>
      <point x="734" y="1347"/>
      <point x="720" y="1377"/>
      <point x="688" y="1377" type="curve" smooth="yes"/>
      <point x="635" y="1377"/>
      <point x="639" y="1291"/>
      <point x="563" y="1291" type="curve" smooth="yes"/>
      <point x="492" y="1291"/>
      <point x="450" y="1426"/>
      <point x="309" y="1426" type="curve" smooth="yes"/>
      <point x="218" y="1426"/>
      <point x="124" y="1341"/>
      <point x="124" y="1227" type="curve" smooth="yes"/>
      <point x="124" y="1178"/>
      <point x="153" y="1146"/>
      <point x="184" y="1146" type="curve" smooth="yes"/>
      <point x="223" y="1146"/>
      <point x="232" y="1252"/>
    </contour>
    <contour>
      <point x="441" y="1429" type="move" name="_top"/>
    </contour>
  </outline>
</glyph>
<glyph name="hungarumlaut" format="1">
  <advance width="895"/>
  <unicode hex="02DD"/>
  <outline>
    <contour>
      <point x="155" y="999" type="curve" smooth="yes"/>
      <point x="240" y="999"/>
      <point x="463" y="1307"/>
      <point x="463" y="1350" type="curve" smooth="yes"/>
      <point x="463" y="1410"/>
      <point x="431" y="1443"/>
      <point x="391" y="1443" type="curve" smooth="yes"/>
      <point x="307" y="1443"/>
      <point x="229" y="1262"/>
      <point x="160" y="1194" type="curve" smooth="yes"/>
      <point x="130" y="1168"/>
      <point x="103" y="1144"/>
      <point x="103" y="1093" type="curve" smooth="yes"/>
      <point x="103" y="1064" type="line" smooth="yes"/>
      <point x="103" y="1023"/>
      <point x="112" y="999"/>
    </contour>
    <contour>
      <point x="544" y="999" type="curve" smooth="yes"/>
      <point x="629" y="999"/>
      <point x="853" y="1307"/>
      <point x="853" y="1350" type="curve" smooth="yes"/>
      <point x="853" y="1410"/>
      <point x="820" y="1443"/>
      <point x="779" y="1443" type="curve" smooth="yes"/>
      <point x="696" y="1443"/>
      <point x="621" y="1262"/>
      <point x="552" y="1194" type="curve" smooth="yes"/>
      <point x="521" y="1168"/>
      <point x="495" y="1144"/>
      <point x="495" y="1093" type="curve" smooth="yes"/>
      <point x="495" y="1064" type="line" smooth="yes"/>
      <point x="495" y="1023"/>
      <point x="501" y="999"/>
    </contour>
    <contour>
      <point x="363" y="1429" type="move" name="_top"/>
    </contour>
  </outline>
</glyph>
<glyph name="dotbelowcomb" format="1">
  <advance width="0"/>
  <unicode hex="0323"/>
  <outline>
    <contour>
      <point x="0" y="-223" type="curve" name="hr00" smooth="yes"/>
      <point x="-47" y="-223"/>
      <point x="-104" y="-293"/>
      <point x="-104" y="-356" type="curve" smooth="yes"/>
      <point x="-104" y="-448"/>
      <point x="-31" y="-464"/>
      <point x="8" y="-464" type="curve" smooth="yes"/>
      <point x="71" y="-464"/>
      <point x="101" y="-421"/>
      <point x="101" y="-339" type="curve" smooth="yes"/>
      <point x="101" y="-247"/>
      <point x="45" y="-223"/>
    </contour>
    <contour>
      <point x="0" y="-297" type="move" name="_btm"/>
    </contour>
  </outline>
</glyph>
<glyph name="dieresisbelowcomb" format="1">
  <advance width="0"/>
  <unicode hex="0324"/>
  <outline>
    <contour>
      <point x="-215" y="-212" type="curve" name="hr00" smooth="yes"/>
      <point x="-263" y="-212"/>
      <point x="-320" y="-282"/>
      <point x="-320" y="-344" type="curve" smooth="yes"/>
      <point x="-320" y="-436"/>
      <point x="-247" y="-452"/>
      <point x="-208" y="-452" type="curve" smooth="yes"/>
      <point x="-144" y="-452"/>
      <point x="-114" y="-409"/>
      <point x="-114" y="-328" type="curve" smooth="yes"/>
      <point x="-114" y="-234"/>
      <point x="-171" y="-212"/>
    </contour>
    <contour>
      <point x="212" y="-212" type="curve" smooth="yes"/>
      <point x="165" y="-212"/>
      <point x="109" y="-282"/>
      <point x="109" y="-344" type="curve" smooth="yes"/>
      <point x="109" y="-436"/>
      <point x="181" y="-452"/>
      <point x="220" y="-452" type="curve" smooth="yes"/>
      <point x="283" y="-452"/>
      <point x="313" y="-409"/>
      <point x="313" y="-328" type="curve" smooth="yes"/>
      <point x="313" y="-234"/>
      <point x="256" y="-212"/>
    </contour>
    <contour>
      <point x="0" y="-297" type="move" name="_btm"/>
    </contour>
  </outline>
</glyph>
<glyph name="Delta" format="1">
  <advance width="1087"/>
  <unicode hex="0394"/>
  <outline>
    <contour>
      <point x="967" y="-5" type="line"/>
      <point x="998" y="-2"/>
      <point x="1044" y="4"/>
      <point x="1044" y="95" type="curve" smooth="yes"/>
      <point x="1044" y="163"/>
      <point x="1028" y="189"/>
      <point x="1003" y="195" type="curve"/>
      <point x="932" y="401"/>
      <point x="800" y="786"/>
      <point x="716" y="1058" type="curve" smooth="yes"/>
      <point x="698" y="1116"/>
      <point x="689" y="1159"/>
      <point x="639" y="1159" type="curve" smooth="yes"/>
      <point x="450" y="1159"/>
      <point x="463" y="960"/>
      <point x="189" y="462" type="curve"/>
      <point x="105" y="329" type="line" smooth="yes"/>
      <point x="71" y="274"/>
      <point x="43" y="228"/>
      <point x="43" y="205" type="curve" smooth="yes"/>
      <point x="43" y="146"/>
      <point x="88" y="-5"/>
      <point x="150" y="-5" type="curve" smooth="yes"/>
    </contour>
    <contour>
      <point x="197" y="187" type="curve"/>
      <point x="401" y="607"/>
      <point x="526" y="790"/>
      <point x="588" y="864" type="curve"/>
      <point x="595" y="864"/>
      <point x="595" y="863"/>
      <point x="598" y="863" type="curve"/>
      <point x="694" y="616"/>
      <point x="757" y="399"/>
      <point x="836" y="198" type="curve"/>
      <point x="649" y="195"/>
      <point x="347" y="187"/>
    </contour>
  </outline>
</glyph>
<glyph name="mu" format="1">
  <advance width="973"/>
  <unicode hex="03BC"/>
  <outline>
    <contour>
      <point x="240" y="967" type="curve" smooth="yes"/>
      <point x="134" y="967"/>
      <point x="119" y="689"/>
      <point x="119" y="535" type="curve" smooth="yes"/>
      <point x="119" y="495"/>
      <point x="119" y="378"/>
      <point x="122" y="297" type="curve"/>
      <point x="116" y="-284" type="line" smooth="yes"/>
      <point x="116" y="-324"/>
      <point x="134" y="-381"/>
      <point x="177" y="-381" type="curve" smooth="yes"/>
      <point x="229" y="-381"/>
      <point x="247" y="-303"/>
      <point x="247" y="-213" type="curve" smooth="yes"/>
      <point x="247" y="-158"/>
      <point x="210" y="53"/>
      <point x="210" y="99" type="curve"/>
      <point x="266" y="25"/>
      <point x="363" y="-5"/>
      <point x="448" y="-5" type="curve" smooth="yes"/>
      <point x="540" y="-5"/>
      <point x="657" y="79"/>
      <point x="705" y="175" type="curve"/>
      <point x="706" y="81"/>
      <point x="716" y="25"/>
      <point x="781" y="25" type="curve" smooth="yes"/>
      <point x="825" y="25"/>
      <point x="841" y="40"/>
      <point x="843" y="120" type="curve" smooth="yes"/>
      <point x="859" y="909" type="line" smooth="yes"/>
      <point x="859" y="965"/>
      <point x="820" y="988"/>
      <point x="802" y="988" type="curve" smooth="yes"/>
      <point x="773" y="988"/>
      <point x="729" y="970"/>
      <point x="729" y="904" type="curve" smooth="yes"/>
      <point x="724" y="641" type="line" smooth="yes"/>
      <point x="722" y="585"/>
      <point x="722" y="507"/>
      <point x="705" y="406" type="curve"/>
      <point x="660" y="329"/>
      <point x="571" y="187"/>
      <point x="439" y="187" type="curve" smooth="yes"/>
      <point x="268" y="187"/>
      <point x="253" y="458"/>
      <point x="253" y="562" type="curve" smooth="yes"/>
      <point x="253" y="655"/>
      <point x="287" y="796"/>
      <point x="287" y="881" type="curve" smooth="yes"/>
      <point x="287" y="932"/>
      <point x="277" y="967"/>
    </contour>
  </outline>
</glyph>
<glyph name="pi" format="1">
  <advance width="1009"/>
  <unicode hex="03C0"/>
  <outline>
    <contour>
      <point x="319" y="163" type="curve"/>
      <point x="364" y="431" type="line" smooth="yes"/>
      <point x="377" y="525"/>
      <point x="392" y="647"/>
      <point x="394" y="739" type="curve"/>
      <point x="555" y="739" type="line"/>
      <point x="544" y="590"/>
      <point x="532" y="471"/>
      <point x="532" y="309" type="curve"/>
      <point x="532" y="130"/>
      <point x="565" y="-25"/>
      <point x="719" y="-25" type="curve" smooth="yes"/>
      <point x="800" y="-25"/>
      <point x="924" y="50"/>
      <point x="924" y="142" type="curve" smooth="yes"/>
      <point x="924" y="193"/>
      <point x="920" y="222"/>
      <point x="884" y="222" type="curve" smooth="yes"/>
      <point x="841" y="222"/>
      <point x="820" y="189"/>
      <point x="769" y="189" type="curve" smooth="yes"/>
      <point x="691" y="189"/>
      <point x="676" y="273"/>
      <point x="676" y="374" type="curve" smooth="yes"/>
      <point x="671" y="473"/>
      <point x="696" y="600"/>
      <point x="696" y="739" type="curve"/>
      <point x="849" y="739" type="line" smooth="yes"/>
      <point x="885" y="739"/>
      <point x="924" y="739"/>
      <point x="924" y="841" type="curve" smooth="yes"/>
      <point x="924" y="916"/>
      <point x="897" y="946"/>
      <point x="860" y="946" type="curve" smooth="yes"/>
      <point x="802" y="946"/>
      <point x="684" y="949"/>
      <point x="562" y="952" type="curve" smooth="yes"/>
      <point x="411" y="952"/>
      <point x="292" y="958"/>
      <point x="144" y="958" type="curve"/>
      <point x="112" y="958"/>
      <point x="84" y="884"/>
      <point x="84" y="839" type="curve" smooth="yes"/>
      <point x="84" y="796"/>
      <point x="103" y="739"/>
      <point x="153" y="739" type="curve" smooth="yes"/>
      <point x="247" y="739" type="line"/>
      <point x="247" y="486"/>
      <point x="218" y="416"/>
      <point x="173" y="248" type="curve" smooth="yes"/>
      <point x="155" y="187"/>
      <point x="134" y="119"/>
      <point x="134" y="74" type="curve" smooth="yes"/>
      <point x="134" y="33"/>
      <point x="155" y="-26"/>
      <point x="203" y="-26" type="curve" smooth="yes"/>
      <point x="258" y="-26"/>
      <point x="287" y="2"/>
    </contour>
  </outline>
</glyph>
<glyph name="anusvara-deva" format="1">
  <advance width="540"/>
  <unicode hex="0902"/>
  <outline>
    <contour>
      <point x="177" y="1704" type="curve" smooth="yes"/>
      <point x="177" y="1674"/>
      <point x="248" y="1581"/>
      <point x="276" y="1581" type="curve" smooth="yes"/>
      <point x="297" y="1581"/>
      <point x="386" y="1677"/>
      <point x="386" y="1704" type="curve" smooth="yes"/>
      <point x="386" y="1729"/>
      <point x="297" y="1819"/>
      <point x="276" y="1819" type="curve" smooth="yes"/>
      <point x="253" y="1819"/>
      <point x="177" y="1730"/>
    </contour>
    <contour>
      <point x="271" y="1257" type="move" name="_top"/>
    </contour>
  </outline>
</glyph>
<glyph name="a-deva" format="1">
  <advance width="1773"/>
  <unicode hex="0905"/>
  <outline>
    <contour>
      <point x="1575" y="1264" type="line"/>
      <point x="1522" y="1340"/>
      <point x="1489" y="1414"/>
      <point x="1454" y="1414" type="curve" smooth="yes"/>
      <point x="1404" y="1414"/>
      <point x="1370" y="1343"/>
      <point x="1370" y="1264" type="curve"/>
      <point x="1280" y="1264" type="line" smooth="yes"/>
      <point x="1241" y="1264"/>
      <point x="1144" y="1286"/>
      <point x="1099" y="1286" type="curve" smooth="yes"/>
      <point x="1066" y="1286"/>
      <point x="1054" y="1266"/>
      <point x="1054" y="1233" type="curve" smooth="yes"/>
      <point x="1054" y="1147"/>
      <point x="1121" y="1078"/>
      <point x="1176" y="1078" type="curve" smooth="yes"/>
      <point x="1219" y="1078"/>
      <point x="1288" y="1123"/>
      <point x="1335" y="1123" type="curve" smooth="yes"/>
      <point x="1375" y="1123" type="line"/>
      <point x="1375" y="1002"/>
      <point x="1398" y="588"/>
      <point x="1398" y="473" type="curve"/>
      <point x="1392" y="473" type="line"/>
      <point x="1299" y="567" type="line"/>
      <point x="1183" y="567"/>
      <point x="1058" y="540"/>
      <point x="913" y="473" type="curve"/>
      <point x="907" y="473" type="line"/>
      <point x="814" y="571" type="line"/>
      <point x="916" y="671"/>
      <point x="988" y="775"/>
      <point x="988" y="881" type="curve" smooth="yes"/>
      <point x="988" y="1097"/>
      <point x="859" y="1286"/>
      <point x="681" y="1286" type="curve" smooth="yes"/>
      <point x="528" y="1286"/>
      <point x="299" y="1202"/>
      <point x="299" y="1123" type="curve" smooth="yes"/>
      <point x="299" y="1054"/>
      <point x="359" y="916"/>
      <point x="409" y="916" type="curve" smooth="yes"/>
      <point x="497" y="916"/>
      <point x="392" y="998"/>
      <point x="563" y="1087" type="curve" smooth="yes"/>
      <point x="631" y="1121"/>
      <point x="674" y="1139"/>
      <point x="740" y="1139" type="curve" smooth="yes"/>
      <point x="825" y="1139"/>
      <point x="895" y="1076"/>
      <point x="895" y="994" type="curve" smooth="yes"/>
      <point x="895" y="905"/>
      <point x="822" y="781"/>
      <point x="671" y="678" type="curve"/>
      <point x="666" y="678" type="line"/>
      <point x="643" y="689"/>
      <point x="598" y="694"/>
      <point x="535" y="694" type="curve" smooth="yes"/>
      <point x="473" y="694"/>
      <point x="413" y="655"/>
      <point x="413" y="610" type="curve" smooth="yes"/>
      <point x="413" y="544"/>
      <point x="505" y="433"/>
      <point x="553" y="433" type="curve" smooth="yes"/>
      <point x="619" y="433"/>
      <point x="697" y="462"/>
      <point x="739" y="511" type="curve"/>
      <point x="743" y="511" type="line"/>
      <point x="805" y="461"/>
      <point x="849" y="359"/>
      <point x="849" y="268" type="curve" smooth="yes"/>
      <point x="849" y="89"/>
      <point x="745" y="23"/>
      <point x="623" y="23" type="curve" smooth="yes"/>
      <point x="374" y="23"/>
      <point x="228" y="183"/>
      <point x="228" y="363" type="curve" smooth="yes"/>
      <point x="228" y="391"/>
      <point x="263" y="429"/>
      <point x="263" y="463" type="curve" smooth="yes"/>
      <point x="263" y="547"/>
      <point x="192" y="610"/>
      <point x="153" y="610" type="curve" smooth="yes"/>
      <point x="124" y="610"/>
      <point x="114" y="595"/>
      <point x="114" y="567" type="curve" smooth="yes"/>
      <point x="114" y="179"/>
      <point x="349" y="-149"/>
      <point x="668" y="-149" type="curve" smooth="yes"/>
      <point x="856" y="-149"/>
      <point x="1015" y="-18"/>
      <point x="1015" y="155" type="curve" smooth="yes"/>
      <point x="1015" y="195"/>
      <point x="1008" y="240"/>
      <point x="988" y="299" type="curve"/>
      <point x="990" y="299" type="line"/>
      <point x="1064" y="354"/>
      <point x="1206" y="400"/>
      <point x="1394" y="418" type="curve" smooth="yes"/>
      <point x="1398" y="418" type="line"/>
      <point x="1398" y="223"/>
      <point x="1345" y="63"/>
      <point x="1280" y="63" type="curve" smooth="yes"/>
      <point x="1254" y="63"/>
      <point x="1231" y="50"/>
      <point x="1231" y="35" type="curve" smooth="yes"/>
      <point x="1231" y="-26"/>
      <point x="1350" y="-149"/>
      <point x="1404" y="-149" type="curve" smooth="yes"/>
      <point x="1504" y="-149"/>
      <point x="1557" y="60"/>
      <point x="1557" y="299" type="curve" smooth="yes"/>
      <point x="1557" y="552"/>
      <point x="1530" y="1064"/>
      <point x="1530" y="1060" type="curve" smooth="yes"/>
      <point x="1530" y="1092"/>
      <point x="1534" y="1114"/>
      <point x="1546" y="1123" type="curve"/>
      <point x="1793" y="1123" type="line"/>
      <point x="1793" y="1264" type="line"/>
    </contour>
    <contour>
      <point x="657" y="1257" type="move" name="bin"/>
    </contour>
    <contour>
      <point x="1317" y="-59" type="move" name="bottom"/>
    </contour>
    <contour>
      <point x="1474" y="1266" type="move" name="top"/>
    </contour>
  </outline>
</glyph>
<glyph name="aa-deva" format="1">
  <advance width="2237"/>
  <unicode hex="0906"/>
  <outline>
    <component base="a-deva"/>
    <component base="aaMatra-deva" xOffset="1773"/>
    <contour>
      <point x="630" y="1262" type="move" name="bin"/>
    </contour>
    <contour>
      <point x="1830" y="-66" type="move" name="bottom"/>
    </contour>
    <contour>
      <point x="1982" y="1257" type="move" name="top"/>
    </contour>
  </outline>
</glyph>
<glyph name="u-deva" format="1">
  <advance width="877"/>
  <unicode hex="0909"/>
  <outline>
    <contour>
      <point x="-23" y="1123" type="line"/>
      <point x="747" y="1123" type="line"/>
      <point x="757" y="1021"/>
      <point x="760" y="940"/>
      <point x="760" y="881" type="curve" smooth="yes"/>
      <point x="760" y="818"/>
      <point x="757" y="760"/>
      <point x="747" y="710" type="curve"/>
      <point x="629" y="710" type="line" smooth="yes"/>
      <point x="553" y="710"/>
      <point x="502" y="661"/>
      <point x="502" y="610" type="curve" smooth="yes"/>
      <point x="502" y="550"/>
      <point x="585" y="406"/>
      <point x="641" y="406" type="curve" smooth="yes"/>
      <point x="689" y="406"/>
      <point x="760" y="443"/>
      <point x="846" y="532" type="curve"/>
      <point x="850" y="532" type="line"/>
      <point x="904" y="473"/>
      <point x="940" y="387"/>
      <point x="940" y="311" type="curve" smooth="yes"/>
      <point x="940" y="175"/>
      <point x="810" y="63"/>
      <point x="655" y="63" type="curve" smooth="yes"/>
      <point x="478" y="63"/>
      <point x="248" y="263"/>
      <point x="248" y="431" type="curve" smooth="yes"/>
      <point x="248" y="454"/>
      <point x="282" y="542"/>
      <point x="282" y="567" type="curve" smooth="yes"/>
      <point x="282" y="616"/>
      <point x="210" y="732"/>
      <point x="167" y="732" type="curve" smooth="yes"/>
      <point x="130" y="732"/>
      <point x="119" y="709"/>
      <point x="119" y="661" type="curve" smooth="yes"/>
      <point x="119" y="228"/>
      <point x="426" y="-120"/>
      <point x="796" y="-120" type="curve" smooth="yes"/>
      <point x="958" y="-120"/>
      <point x="1080" y="33"/>
      <point x="1080" y="208" type="curve" smooth="yes"/>
      <point x="1080" y="364"/>
      <point x="999" y="511"/>
      <point x="891" y="585" type="curve"/>
      <point x="922" y="616"/>
      <point x="932" y="783"/>
      <point x="932" y="994" type="curve" smooth="yes"/>
      <point x="932" y="1066"/>
      <point x="949" y="1123"/>
      <point x="973" y="1123" type="curve" smooth="yes"/>
      <point x="1257" y="1123" type="line"/>
      <point x="1257" y="1264" type="line"/>
      <point x="994" y="1264" type="line"/>
      <point x="913" y="1360"/>
      <point x="844" y="1400"/>
      <point x="812" y="1400" type="curve" smooth="yes"/>
      <point x="775" y="1400"/>
      <point x="747" y="1341"/>
      <point x="747" y="1264" type="curve"/>
      <point x="-23" y="1264" type="line"/>
    </contour>
    <contour>
      <point x="183" y="1257" type="move" name="bin"/>
    </contour>
    <contour>
      <point x="787" y="-65" type="move" name="bottom"/>
    </contour>
    <contour>
      <point x="872" y="1257" type="move" name="top"/>
    </contour>
  </outline>
</glyph>
<glyph name="lVocalic-deva" format="1">
  <advance width="1477"/>
  <unicode hex="090C"/>
  <outline>
    <contour>
      <point x="-29" y="1123" type="line"/>
      <point x="843" y="1123" type="line"/>
      <point x="849" y="1093"/>
      <point x="853" y="1047"/>
      <point x="853" y="973" type="curve" smooth="yes"/>
      <point x="853" y="881"/>
      <point x="790" y="788"/>
      <point x="712" y="722" type="curve"/>
      <point x="706" y="722" type="line"/>
      <point x="674" y="846"/>
      <point x="578" y="942"/>
      <point x="476" y="942" type="curve" smooth="yes"/>
      <point x="289" y="942"/>
      <point x="146" y="760"/>
      <point x="146" y="547" type="curve" smooth="yes"/>
      <point x="146" y="167"/>
      <point x="318" y="-76"/>
      <point x="570" y="-76" type="curve" smooth="yes"/>
      <point x="592" y="-76"/>
      <point x="600" y="-52"/>
      <point x="600" y="-23" type="curve" smooth="yes"/>
      <point x="600" y="21"/>
      <point x="557" y="58"/>
      <point x="510" y="58" type="curve" smooth="yes"/>
      <point x="356" y="58"/>
      <point x="292" y="201"/>
      <point x="292" y="431" type="curve" smooth="yes"/>
      <point x="292" y="607"/>
      <point x="397" y="753"/>
      <point x="523" y="753" type="curve" smooth="yes"/>
      <point x="560" y="753"/>
      <point x="623" y="716"/>
      <point x="661" y="661" type="curve"/>
      <point x="633" y="623"/>
      <point x="621" y="585"/>
      <point x="621" y="557" type="curve" smooth="yes"/>
      <point x="621" y="511"/>
      <point x="702" y="418"/>
      <point x="747" y="418" type="curve" smooth="yes"/>
      <point x="755" y="418"/>
      <point x="765" y="431"/>
      <point x="769" y="454" type="curve" smooth="yes"/>
      <point x="805" y="595"/>
      <point x="913" y="694"/>
      <point x="1021" y="694" type="curve" smooth="yes"/>
      <point x="1114" y="694"/>
      <point x="1186" y="605"/>
      <point x="1186" y="497" type="curve" smooth="yes"/>
      <point x="1186" y="346"/>
      <point x="1092" y="208"/>
      <point x="973" y="208" type="curve" smooth="yes"/>
      <point x="846" y="208"/>
      <point x="745" y="103"/>
      <point x="745" y="-39" type="curve" smooth="yes"/>
      <point x="745" y="-287"/>
      <point x="936" y="-481"/>
      <point x="1144" y="-481" type="curve" smooth="yes"/>
      <point x="1181" y="-481" type="line" smooth="yes"/>
      <point x="1347" y="-481"/>
      <point x="1435" y="-450"/>
      <point x="1435" y="-392" type="curve" smooth="yes"/>
      <point x="1435" y="-359"/>
      <point x="1355" y="-287"/>
      <point x="1320" y="-287" type="curve" smooth="yes"/>
      <point x="1280" y="-287"/>
      <point x="1159" y="-342"/>
      <point x="1111" y="-342" type="curve" smooth="yes"/>
      <point x="963" y="-342"/>
      <point x="863" y="-279"/>
      <point x="863" y="-173" type="curve" smooth="yes"/>
      <point x="863" y="-25"/>
      <point x="946" y="49"/>
      <point x="1084" y="49" type="curve" smooth="yes"/>
      <point x="1223" y="49"/>
      <point x="1350" y="212"/>
      <point x="1350" y="418" type="curve" smooth="yes"/>
      <point x="1350" y="623"/>
      <point x="1181" y="804"/>
      <point x="977" y="841" type="curve" smooth="yes"/>
      <point x="973" y="841" type="line"/>
      <point x="994" y="899"/>
      <point x="993" y="1123"/>
      <point x="1035" y="1123" type="curve" smooth="yes"/>
      <point x="1497" y="1123" type="line"/>
      <point x="1497" y="1264" type="line"/>
      <point x="1047" y="1264" type="line"/>
      <point x="993" y="1341"/>
      <point x="938" y="1400"/>
      <point x="881" y="1400" type="curve" smooth="yes"/>
      <point x="849" y="1400"/>
      <point x="831" y="1363"/>
      <point x="831" y="1264" type="curve"/>
      <point x="-29" y="1264" type="line"/>
    </contour>
    <contour>
      <point x="1460" y="1257" type="move" name="bin"/>
    </contour>
    <contour>
      <point x="900" y="-353" type="move" name="bottom"/>
    </contour>
    <contour>
      <point x="932" y="1257" type="move" name="top"/>
    </contour>
  </outline>
</glyph>
<glyph name="ai-deva" format="1">
  <advance width="1191"/>
  <unicode hex="0910"/>
  <outline>
    <component base="e-deva"/>
    <component base="eMatra-deva" xOffset="777"/>
    <contour>
      <point x="1137" y="1257" type="move" name="bin"/>
    </contour>
  </outline>
</glyph>
<glyph name="ka-deva" format="1">
  <advance width="1817"/>
  <unicode hex="0915"/>
  <outline>
    <contour>
      <point x="-59" y="1123" type="line"/>
      <point x="977" y="1123" type="line"/>
      <point x="977" y="732" type="line"/>
      <point x="901" y="846"/>
      <point x="745" y="916"/>
      <point x="574" y="916" type="curve" smooth="yes"/>
      <point x="297" y="916"/>
      <point x="112" y="800"/>
      <point x="112" y="623" type="curve" smooth="yes"/>
      <point x="112" y="468"/>
      <point x="392" y="232"/>
      <point x="592" y="232" type="curve" smooth="yes"/>
      <point x="729" y="232"/>
      <point x="856" y="283"/>
      <point x="977" y="364" type="curve"/>
      <point x="977" y="232" type="line" smooth="yes"/>
      <point x="977" y="144"/>
      <point x="924" y="63"/>
      <point x="836" y="63" type="curve" smooth="yes"/>
      <point x="815" y="63"/>
      <point x="786" y="50"/>
      <point x="786" y="35" type="curve" smooth="yes"/>
      <point x="786" y="-25"/>
      <point x="901" y="-120"/>
      <point x="946" y="-120" type="curve" smooth="yes"/>
      <point x="1062" y="-120"/>
      <point x="1133" y="-8"/>
      <point x="1133" y="142" type="curve" smooth="yes"/>
      <point x="1133" y="567" type="line"/>
      <point x="1213" y="615"/>
      <point x="1325" y="639"/>
      <point x="1433" y="639" type="curve" smooth="yes"/>
      <point x="1504" y="639"/>
      <point x="1563" y="582"/>
      <point x="1563" y="497" type="curve" smooth="yes"/>
      <point x="1563" y="359"/>
      <point x="1467" y="232"/>
      <point x="1337" y="232" type="curve" smooth="yes"/>
      <point x="1312" y="232"/>
      <point x="1288" y="218"/>
      <point x="1288" y="195" type="curve" smooth="yes"/>
      <point x="1288" y="183"/>
      <point x="1297" y="160"/>
      <point x="1310" y="149" type="curve"/>
      <point x="1381" y="76" type="line"/>
      <point x="1538" y="76"/>
      <point x="1679" y="203"/>
      <point x="1679" y="364" type="curve" smooth="yes"/>
      <point x="1679" y="540"/>
      <point x="1470" y="805"/>
      <point x="1318" y="805" type="curve" smooth="yes"/>
      <point x="1246" y="805"/>
      <point x="1176" y="798"/>
      <point x="1138" y="777" type="curve"/>
      <point x="1133" y="1013" type="line" smooth="yes"/>
      <point x="1133" y="1076"/>
      <point x="1147" y="1123"/>
      <point x="1202" y="1123" type="curve" smooth="yes"/>
      <point x="1837" y="1123" type="line"/>
      <point x="1837" y="1264" type="line"/>
      <point x="1176" y="1264" type="line"/>
      <point x="1123" y="1347"/>
      <point x="1070" y="1396"/>
      <point x="1021" y="1396" type="curve" smooth="yes"/>
      <point x="999" y="1396"/>
      <point x="977" y="1355"/>
      <point x="977" y="1302" type="curve" smooth="yes"/>
      <point x="977" y="1264" type="line"/>
      <point x="-59" y="1264" type="line"/>
    </contour>
    <contour>
      <point x="491" y="387" type="curve" smooth="yes"/>
      <point x="342" y="387"/>
      <point x="218" y="468"/>
      <point x="218" y="547" type="curve" smooth="yes"/>
      <point x="218" y="639"/>
      <point x="436" y="732"/>
      <point x="629" y="732" type="curve" smooth="yes"/>
      <point x="745" y="732"/>
      <point x="977" y="652"/>
      <point x="977" y="596" type="curve" smooth="yes"/>
      <point x="977" y="517"/>
      <point x="661" y="387"/>
    </contour>
    <contour>
      <point x="184" y="108" type="move" name="nukta"/>
    </contour>
    <contour>
      <point x="1076" y="1267" type="move" name="top"/>
    </contour>
    <contour>
      <point x="1038" y="1266" type="move" name="bin"/>
    </contour>
    <contour>
      <point x="975" y="-120" type="move" name="bottom"/>
    </contour>
  </outline>
</glyph>
<glyph name="cha-deva" format="1">
  <advance width="1498"/>
  <unicode hex="091B"/>
  <outline>
    <contour>
      <point x="-39" y="1123" type="line"/>
      <point x="326" y="1123" type="line"/>
      <point x="243" y="1060"/>
      <point x="187" y="973"/>
      <point x="187" y="874" type="curve" smooth="yes"/>
      <point x="187" y="781"/>
      <point x="244" y="676"/>
      <point x="326" y="610" type="curve"/>
      <point x="215" y="552"/>
      <point x="139" y="433"/>
      <point x="139" y="337" type="curve" smooth="yes"/>
      <point x="139" y="132"/>
      <point x="471" y="-120"/>
      <point x="702" y="-120" type="curve" smooth="yes"/>
      <point x="885" y="-120"/>
      <point x="1076" y="-23"/>
      <point x="1217" y="155" type="curve"/>
      <point x="1310" y="116" type="line"/>
      <point x="1332" y="116"/>
      <point x="1350" y="139"/>
      <point x="1350" y="167" type="curve" smooth="yes"/>
      <point x="1350" y="189"/>
      <point x="1291" y="228"/>
      <point x="1270" y="248" type="curve"/>
      <point x="1268" y="248" type="line"/>
      <point x="1309" y="307"/>
      <point x="1330" y="367"/>
      <point x="1330" y="431" type="curve" smooth="yes"/>
      <point x="1330" y="492"/>
      <point x="1312" y="562"/>
      <point x="1272" y="610" type="curve" smooth="yes"/>
      <point x="1264" y="619"/>
      <point x="1257" y="629"/>
      <point x="1257" y="639" type="curve" smooth="yes"/>
      <point x="1257" y="684"/>
      <point x="1315" y="621"/>
      <point x="1315" y="777" type="curve" smooth="yes"/>
      <point x="1315" y="818"/>
      <point x="1307" y="970"/>
      <point x="1307" y="1013" type="curve" smooth="yes"/>
      <point x="1307" y="1080"/>
      <point x="1347" y="1123"/>
      <point x="1392" y="1123" type="curve" smooth="yes"/>
      <point x="1518" y="1123" type="line"/>
      <point x="1518" y="1264" type="line"/>
      <point x="1350" y="1264" type="line"/>
      <point x="1243" y="1386" type="line" smooth="yes"/>
      <point x="1223" y="1408"/>
      <point x="1211" y="1408"/>
      <point x="1196" y="1412" type="curve"/>
      <point x="1167" y="1412"/>
      <point x="1133" y="1375"/>
      <point x="1133" y="1330" type="curve" smooth="yes"/>
      <point x="1133" y="1264" type="line"/>
      <point x="-39" y="1264" type="line"/>
    </contour>
    <contour>
      <point x="661" y="35" type="curve" smooth="yes"/>
      <point x="436" y="35"/>
      <point x="297" y="114"/>
      <point x="297" y="248" type="curve" smooth="yes"/>
      <point x="297" y="374"/>
      <point x="461" y="473"/>
      <point x="643" y="473" type="curve" smooth="yes"/>
      <point x="647" y="473"/>
      <point x="661" y="471"/>
      <point x="681" y="466" type="curve"/>
      <point x="684" y="466" type="line"/>
      <point x="709" y="461"/>
      <point x="736" y="454"/>
      <point x="750" y="454" type="curve" smooth="yes"/>
      <point x="757" y="454"/>
      <point x="771" y="458"/>
      <point x="771" y="473" type="curve" smooth="yes"/>
      <point x="771" y="565"/>
      <point x="743" y="652"/>
      <point x="688" y="652" type="curve" smooth="yes"/>
      <point x="631" y="652" type="line" smooth="yes"/>
      <point x="515" y="652"/>
      <point x="439" y="649"/>
      <point x="406" y="639" type="curve" smooth="yes"/>
      <point x="400" y="639" type="line"/>
      <point x="356" y="664"/>
      <point x="339" y="724"/>
      <point x="339" y="777" type="curve" smooth="yes"/>
      <point x="339" y="899"/>
      <point x="439" y="1008"/>
      <point x="555" y="1040" type="curve"/>
      <point x="607" y="1047"/>
      <point x="649" y="1083"/>
      <point x="649" y="1123" type="curve"/>
      <point x="1133" y="1123" type="line"/>
      <point x="1131" y="1102"/>
      <point x="1131" y="1083"/>
      <point x="1131" y="1054" type="curve" smooth="yes"/>
      <point x="1131" y="977"/>
      <point x="1126" y="875"/>
      <point x="1146" y="767" type="curve"/>
      <point x="1142" y="767" type="line" smooth="yes"/>
      <point x="1048" y="767"/>
      <point x="975" y="657"/>
      <point x="975" y="547" type="curve" smooth="yes"/>
      <point x="975" y="426"/>
      <point x="1018" y="326"/>
      <point x="1084" y="268" type="curve"/>
      <point x="1087" y="268" type="line"/>
      <point x="967" y="122"/>
      <point x="802" y="35"/>
    </contour>
    <contour>
      <point x="1171" y="347" type="curve" smooth="yes"/>
      <point x="1123" y="347"/>
      <point x="1092" y="406"/>
      <point x="1092" y="473" type="curve" smooth="yes"/>
      <point x="1092" y="535"/>
      <point x="1129" y="585"/>
      <point x="1171" y="585" type="curve" smooth="yes"/>
      <point x="1202" y="585"/>
      <point x="1226" y="540"/>
      <point x="1226" y="489" type="curve" smooth="yes"/>
      <point x="1226" y="426"/>
      <point x="1191" y="347"/>
    </contour>
    <contour>
      <point x="37" y="0" type="move" name="nukta"/>
    </contour>
    <contour>
      <point x="1251" y="1257" type="move" name="top"/>
    </contour>
    <contour>
      <point x="666" y="1257" type="move" name="bin"/>
    </contour>
    <contour>
      <point x="716" y="-87" type="move" name="bottom"/>
    </contour>
  </outline>
</glyph>
<glyph name="nya-deva" format="1">
  <advance width="1916"/>
  <unicode hex="091E"/>
  <outline>
    <contour>
      <point x="1701" y="1264" type="line"/>
      <point x="1660" y="1330"/>
      <point x="1621" y="1400"/>
      <point x="1596" y="1400" type="curve" smooth="yes"/>
      <point x="1520" y="1400"/>
      <point x="1520" y="1264"/>
      <point x="1520" y="1264" type="curve"/>
      <point x="-5" y="1264" type="line"/>
      <point x="-5" y="1123" type="line"/>
      <point x="1520" y="1123" type="line"/>
      <point x="1525" y="812"/>
      <point x="1542" y="605"/>
      <point x="1544" y="497" type="curve"/>
      <point x="1499" y="547"/>
      <point x="1449" y="567"/>
      <point x="1400" y="567" type="curve" smooth="yes"/>
      <point x="1343" y="567"/>
      <point x="1291" y="557"/>
      <point x="1219" y="532" type="curve"/>
      <point x="1213" y="532" type="line"/>
      <point x="1149" y="753"/>
      <point x="977" y="899"/>
      <point x="796" y="899" type="curve" smooth="yes"/>
      <point x="657" y="899"/>
      <point x="535" y="849"/>
      <point x="400" y="753" type="curve"/>
      <point x="553" y="586" type="line"/>
      <point x="645" y="666"/>
      <point x="743" y="722"/>
      <point x="849" y="722" type="curve" smooth="yes"/>
      <point x="1020" y="722"/>
      <point x="1157" y="607"/>
      <point x="1157" y="473" type="curve" smooth="yes"/>
      <point x="1157" y="311"/>
      <point x="1018" y="195"/>
      <point x="796" y="195" type="curve" smooth="yes"/>
      <point x="547" y="195"/>
      <point x="256" y="409"/>
      <point x="256" y="623" type="curve" smooth="yes"/>
      <point x="256" y="666"/>
      <point x="248" y="722"/>
      <point x="228" y="722" type="curve" smooth="yes"/>
      <point x="144" y="722"/>
      <point x="105" y="705"/>
      <point x="105" y="661" type="curve" smooth="yes"/>
      <point x="105" y="542"/>
      <point x="193" y="378"/>
      <point x="374" y="225" type="curve"/>
      <point x="555" y="69"/>
      <point x="740" y="-12"/>
      <point x="881" y="-12" type="curve" smooth="yes"/>
      <point x="1064" y="-12"/>
      <point x="1211" y="134"/>
      <point x="1226" y="322" type="curve"/>
      <point x="1227" y="322" type="line"/>
      <point x="1302" y="352"/>
      <point x="1404" y="367"/>
      <point x="1485" y="367" type="curve" smooth="yes"/>
      <point x="1512" y="367"/>
      <point x="1532" y="367"/>
      <point x="1555" y="364" type="curve"/>
      <point x="1555" y="195"/>
      <point x="1522" y="18"/>
      <point x="1454" y="18" type="curve" smooth="yes"/>
      <point x="1433" y="18"/>
      <point x="1414" y="0"/>
      <point x="1414" y="-31" type="curve" smooth="yes"/>
      <point x="1414" y="-74"/>
      <point x="1491" y="-120"/>
      <point x="1591" y="-120" type="curve" smooth="yes"/>
      <point x="1672" y="-120"/>
      <point x="1703" y="-8"/>
      <point x="1703" y="129" type="curve"/>
      <point x="1697" y="397"/>
      <point x="1685" y="664"/>
      <point x="1679" y="932" type="curve"/>
      <point x="1679" y="1102"/>
      <point x="1683" y="1123"/>
      <point x="1714" y="1123" type="curve" smooth="yes"/>
      <point x="1936" y="1123" type="line"/>
      <point x="1936" y="1264" type="line"/>
    </contour>
    <contour>
      <point x="211" y="-29" type="move" name="nukta"/>
    </contour>
    <contour>
      <point x="1621" y="1267" type="move" name="top"/>
    </contour>
    <contour>
      <point x="927" y="1267" type="move" name="bin"/>
    </contour>
    <contour>
      <point x="1527" y="-87" type="move" name="bottom"/>
    </contour>
  </outline>
</glyph>
<glyph name="tta-deva" format="1">
  <advance width="1196"/>
  <unicode hex="091F"/>
  <outline>
    <contour>
      <point x="-20" y="1123" type="line"/>
      <point x="818" y="1123" type="line"/>
      <point x="818" y="910" type="line" smooth="yes"/>
      <point x="818" y="868"/>
      <point x="771" y="827"/>
      <point x="724" y="827" type="curve" smooth="yes"/>
      <point x="337" y="827"/>
      <point x="120" y="725"/>
      <point x="120" y="513" type="curve" smooth="yes"/>
      <point x="120" y="229"/>
      <point x="391" y="-20"/>
      <point x="649" y="-20" type="curve" smooth="yes"/>
      <point x="804" y="-20"/>
      <point x="1092" y="78"/>
      <point x="1092" y="171" type="curve" smooth="yes"/>
      <point x="1092" y="219"/>
      <point x="1030" y="332"/>
      <point x="987" y="332" type="curve" smooth="yes"/>
      <point x="967" y="332"/>
      <point x="944" y="318"/>
      <point x="930" y="295" type="curve"/>
      <point x="928" y="295" type="line"/>
      <point x="781" y="205"/>
      <point x="660" y="163"/>
      <point x="553" y="163" type="curve" smooth="yes"/>
      <point x="377" y="163"/>
      <point x="237" y="245"/>
      <point x="237" y="381" type="curve" smooth="yes"/>
      <point x="237" y="551"/>
      <point x="423" y="617"/>
      <point x="775" y="617" type="curve" smooth="yes"/>
      <point x="885" y="617"/>
      <point x="983" y="702"/>
      <point x="983" y="817" type="curve" smooth="yes"/>
      <point x="983" y="1040" type="line" smooth="yes"/>
      <point x="983" y="1102"/>
      <point x="993" y="1123"/>
      <point x="1023" y="1123" type="curve" smooth="yes"/>
      <point x="1216" y="1123" type="line"/>
      <point x="1216" y="1264" type="line"/>
      <point x="1015" y="1264" type="line"/>
      <point x="960" y="1337"/>
      <point x="914" y="1400"/>
      <point x="889" y="1400" type="curve" smooth="yes"/>
      <point x="812" y="1400"/>
      <point x="812" y="1264"/>
      <point x="812" y="1264" type="curve"/>
      <point x="-20" y="1264" type="line"/>
    </contour>
    <contour>
      <point x="38" y="-20" type="move" name="nukta"/>
    </contour>
    <contour>
      <point x="924" y="1257" type="move" name="top"/>
    </contour>
    <contour>
      <point x="525" y="1257" type="move" name="bin"/>
    </contour>
    <contour>
      <point x="631" y="0" type="move" name="bottom"/>
    </contour>
  </outline>
</glyph>
<glyph name="ttha-deva" format="1">
  <advance width="1191"/>
  <unicode hex="0920"/>
  <outline>
    <contour>
      <point x="-23" y="1123" type="line"/>
      <point x="820" y="1123" type="line"/>
      <point x="820" y="921" type="line" smooth="yes"/>
      <point x="820" y="828"/>
      <point x="753" y="793"/>
      <point x="631" y="793" type="curve" smooth="yes"/>
      <point x="313" y="793"/>
      <point x="112" y="655"/>
      <point x="112" y="446" type="curve" smooth="yes"/>
      <point x="112" y="182"/>
      <point x="397" y="-80"/>
      <point x="678" y="-80" type="curve" smooth="yes"/>
      <point x="875" y="-80"/>
      <point x="1052" y="83"/>
      <point x="1052" y="272" type="curve" smooth="yes"/>
      <point x="1052" y="414"/>
      <point x="977" y="551"/>
      <point x="881" y="659" type="curve"/>
      <point x="1009" y="671"/>
      <point x="958" y="1123"/>
      <point x="994" y="1123" type="curve" smooth="yes"/>
      <point x="1211" y="1123" type="line"/>
      <point x="1211" y="1264" type="line"/>
      <point x="1021" y="1264" type="line"/>
      <point x="932" y="1343"/>
      <point x="884" y="1388"/>
      <point x="850" y="1388" type="curve" smooth="yes"/>
      <point x="834" y="1388"/>
      <point x="814" y="1361"/>
      <point x="814" y="1330" type="curve" smooth="yes"/>
      <point x="814" y="1286" type="line"/>
      <point x="810" y="1273"/>
      <point x="814" y="1264"/>
      <point x="810" y="1264" type="curve" smooth="yes"/>
      <point x="-23" y="1264" type="line"/>
    </contour>
    <contour>
      <point x="458" y="116" type="line" smooth="yes"/>
      <point x="334" y="116"/>
      <point x="248" y="223"/>
      <point x="248" y="359" type="curve" smooth="yes"/>
      <point x="248" y="558"/>
      <point x="476" y="620"/>
      <point x="815" y="630" type="curve"/>
      <point x="818" y="630" type="line"/>
      <point x="884" y="587"/>
      <point x="932" y="494"/>
      <point x="932" y="414" type="curve" smooth="yes"/>
      <point x="932" y="245"/>
      <point x="773" y="116"/>
      <point x="607" y="116" type="curve" smooth="yes"/>
    </contour>
    <contour>
      <point x="53" y="58" type="move" name="nukta"/>
    </contour>
    <contour>
      <point x="917" y="1267" type="move" name="top"/>
    </contour>
    <contour>
      <point x="545" y="1267" type="move" name="bin"/>
    </contour>
    <contour>
      <point x="640" y="-113" type="move" name="bottom"/>
    </contour>
  </outline>
</glyph>
<glyph name="dda-deva" format="1">
  <advance width="1379"/>
  <unicode hex="0921"/>
  <outline>
    <contour>
      <point x="-20" y="1123" type="line"/>
      <point x="915" y="1123" type="line"/>
      <point x="935" y="955" type="line"/>
      <point x="928" y="955" type="line"/>
      <point x="904" y="970"/>
      <point x="826" y="975"/>
      <point x="699" y="975" type="curve" smooth="yes"/>
      <point x="626" y="975" type="line" smooth="yes"/>
      <point x="452" y="975"/>
      <point x="289" y="881"/>
      <point x="289" y="777" type="curve" smooth="yes"/>
      <point x="289" y="588"/>
      <point x="507" y="347"/>
      <point x="675" y="347" type="curve" smooth="yes"/>
      <point x="739" y="347"/>
      <point x="975" y="418"/>
      <point x="1052" y="418" type="curve" smooth="yes"/>
      <point x="1107" y="418"/>
      <point x="1146" y="371"/>
      <point x="1146" y="322" type="curve" smooth="yes"/>
      <point x="1146" y="192"/>
      <point x="900" y="63"/>
      <point x="675" y="63" type="curve" smooth="yes"/>
      <point x="467" y="63"/>
      <point x="277" y="187"/>
      <point x="213" y="374" type="curve"/>
      <point x="208" y="456"/>
      <point x="178" y="547"/>
      <point x="129" y="547" type="curve" smooth="yes"/>
      <point x="92" y="547"/>
      <point x="76" y="502"/>
      <point x="76" y="454" type="curve" smooth="yes"/>
      <point x="76" y="167"/>
      <point x="446" y="-120"/>
      <point x="791" y="-120" type="curve" smooth="yes"/>
      <point x="1054" y="-120"/>
      <point x="1278" y="31"/>
      <point x="1278" y="208" type="curve" smooth="yes"/>
      <point x="1278" y="367"/>
      <point x="1106" y="567"/>
      <point x="962" y="567" type="curve" smooth="yes"/>
      <point x="898" y="567"/>
      <point x="631" y="517"/>
      <point x="556" y="517" type="curve" smooth="yes"/>
      <point x="492" y="517"/>
      <point x="426" y="557"/>
      <point x="426" y="610" type="curve" smooth="yes"/>
      <point x="426" y="724"/>
      <point x="542" y="805"/>
      <point x="727" y="805" type="curve" smooth="yes"/>
      <point x="793" y="805"/>
      <point x="1014" y="777"/>
      <point x="1067" y="777" type="curve" smooth="yes"/>
      <point x="1093" y="777"/>
      <point x="1114" y="796"/>
      <point x="1114" y="818" type="curve" smooth="yes"/>
      <point x="1114" y="859"/>
      <point x="1092" y="1009"/>
      <point x="1092" y="1052" type="curve" smooth="yes"/>
      <point x="1092" y="1092"/>
      <point x="1133" y="1123"/>
      <point x="1169" y="1123" type="curve" smooth="yes"/>
      <point x="1399" y="1123" type="line"/>
      <point x="1399" y="1264" type="line"/>
      <point x="1148" y="1264" type="line"/>
      <point x="1062" y="1341"/>
      <point x="993" y="1388"/>
      <point x="943" y="1388" type="curve" smooth="yes"/>
      <point x="923" y="1388"/>
      <point x="904" y="1330"/>
      <point x="904" y="1264" type="curve"/>
      <point x="-20" y="1264" type="line"/>
    </contour>
    <contour>
      <point x="183" y="-190" type="move" name="nukta"/>
    </contour>
    <contour>
      <point x="1022" y="1267" type="move" name="top"/>
    </contour>
    <contour>
      <point x="618" y="1269" type="move" name="bin"/>
    </contour>
    <contour>
      <point x="791" y="-120" type="move" name="bottom"/>
    </contour>
  </outline>
</glyph>
<glyph name="ddha-deva" format="1">
  <advance width="1617"/>
  <unicode hex="0922"/>
  <outline>
    <contour>
      <point x="-20" y="1123" type="line"/>
      <point x="1247" y="1123" type="line"/>
      <point x="1249" y="922"/>
      <point x="1255" y="719"/>
      <point x="1257" y="517" type="curve"/>
      <point x="1249" y="517" type="line"/>
      <point x="1245" y="544"/>
      <point x="1218" y="557"/>
      <point x="1194" y="557" type="curve" smooth="yes"/>
      <point x="1178" y="557"/>
      <point x="1066" y="411"/>
      <point x="961" y="368" type="curve" smooth="yes"/>
      <point x="889" y="337"/>
      <point x="811" y="322"/>
      <point x="732" y="322" type="curve" smooth="yes"/>
      <point x="587" y="322"/>
      <point x="505" y="364"/>
      <point x="505" y="443" type="curve" smooth="yes"/>
      <point x="505" y="550"/>
      <point x="707" y="678"/>
      <point x="847" y="678" type="curve" smooth="yes"/>
      <point x="878" y="678"/>
      <point x="975" y="652"/>
      <point x="1008" y="652" type="curve" smooth="yes"/>
      <point x="1024" y="652"/>
      <point x="1042" y="661"/>
      <point x="1042" y="678" type="curve" smooth="yes"/>
      <point x="1042" y="743"/>
      <point x="948" y="881"/>
      <point x="889" y="881" type="curve" smooth="yes"/>
      <point x="864" y="881"/>
      <point x="821" y="875"/>
      <point x="799" y="860" type="curve"/>
      <point x="652" y="800"/>
      <point x="457" y="767"/>
      <point x="222" y="767" type="curve"/>
      <point x="172" y="775"/>
      <point x="66" y="818"/>
      <point x="56" y="818" type="curve" smooth="yes"/>
      <point x="41" y="818"/>
      <point x="25" y="790"/>
      <point x="25" y="767" type="curve" smooth="yes"/>
      <point x="25" y="674"/>
      <point x="155" y="574"/>
      <point x="247" y="567" type="curve"/>
      <point x="324" y="565" type="line" smooth="yes"/>
      <point x="351" y="565"/>
      <point x="377" y="565"/>
      <point x="383" y="567" type="curve" smooth="yes"/>
      <point x="390" y="567" type="line"/>
      <point x="390" y="374"/>
      <point x="614" y="155"/>
      <point x="796" y="155" type="curve" smooth="yes"/>
      <point x="942" y="155"/>
      <point x="1097" y="208"/>
      <point x="1260" y="322" type="curve"/>
      <point x="1268" y="322" type="line"/>
      <point x="1268" y="189"/>
      <point x="1212" y="76"/>
      <point x="1128" y="76" type="curve" smooth="yes"/>
      <point x="1102" y="76"/>
      <point x="1082" y="60"/>
      <point x="1082" y="35" type="curve" smooth="yes"/>
      <point x="1082" y="-23"/>
      <point x="1202" y="-120"/>
      <point x="1252" y="-120" type="curve" smooth="yes"/>
      <point x="1348" y="-120"/>
      <point x="1427" y="88"/>
      <point x="1427" y="311" type="curve" smooth="yes"/>
      <point x="1427" y="899" type="line" smooth="yes"/>
      <point x="1427" y="1013"/>
      <point x="1452" y="1107"/>
      <point x="1489" y="1123" type="curve"/>
      <point x="1637" y="1123" type="line"/>
      <point x="1637" y="1264" type="line"/>
      <point x="1468" y="1264" type="line"/>
      <point x="1425" y="1343"/>
      <point x="1348" y="1400"/>
      <point x="1285" y="1400" type="curve" smooth="yes"/>
      <point x="1267" y="1400"/>
      <point x="1247" y="1341"/>
      <point x="1247" y="1264" type="curve"/>
      <point x="-20" y="1264" type="line"/>
    </contour>
    <contour>
      <point x="247" y="124" type="move" name="nukta"/>
    </contour>
    <contour>
      <point x="1358" y="1267" type="move" name="top"/>
    </contour>
    <contour>
      <point x="753" y="1267" type="move" name="bin"/>
    </contour>
    <contour>
      <point x="792" y="-3" type="move" name="bottom"/>
    </contour>
  </outline>
</glyph>
<glyph name="nna-deva" format="1">
  <advance width="1490"/>
  <unicode hex="0923"/>
  <outline>
    <contour>
      <point x="483" y="349" type="curve" smooth="yes"/>
      <point x="368" y="349"/>
      <point x="311" y="439"/>
      <point x="311" y="567" type="curve" smooth="yes"/>
      <point x="311" y="767"/>
      <point x="313" y="946"/>
      <point x="406" y="1123" type="curve"/>
      <point x="691" y="1123" type="line"/>
      <point x="755" y="1052"/>
      <point x="792" y="940"/>
      <point x="792" y="818" type="curve" smooth="yes"/>
      <point x="792" y="563"/>
      <point x="647" y="349"/>
    </contour>
    <contour>
      <point x="483" y="1264" type="line"/>
      <point x="431" y="1337"/>
      <point x="368" y="1412"/>
      <point x="334" y="1412" type="curve" smooth="yes"/>
      <point x="283" y="1412"/>
      <point x="248" y="1341"/>
      <point x="248" y="1264" type="curve"/>
      <point x="-20" y="1264" type="line"/>
      <point x="-20" y="1123" type="line"/>
      <point x="212" y="1123" type="line"/>
      <point x="169" y="993"/>
      <point x="149" y="834"/>
      <point x="149" y="652" type="curve" smooth="yes"/>
      <point x="149" y="468"/>
      <point x="427" y="167"/>
      <point x="590" y="167" type="curve" smooth="yes"/>
      <point x="765" y="167"/>
      <point x="907" y="418"/>
      <point x="907" y="710" type="curve" smooth="yes"/>
      <point x="907" y="856"/>
      <point x="866" y="1003"/>
      <point x="773" y="1123" type="curve"/>
      <point x="1142" y="1123" type="line"/>
      <point x="1142" y="633"/>
      <point x="1171" y="76"/>
      <point x="1018" y="76" type="curve" smooth="yes"/>
      <point x="994" y="76"/>
      <point x="977" y="66"/>
      <point x="977" y="49" type="curve" smooth="yes"/>
      <point x="977" y="-12"/>
      <point x="1083" y="-120"/>
      <point x="1139" y="-120" type="curve" smooth="yes"/>
      <point x="1226" y="-120"/>
      <point x="1291" y="36"/>
      <point x="1291" y="222" type="curve" smooth="yes"/>
      <point x="1288" y="1028" type="line" smooth="yes"/>
      <point x="1288" y="1033"/>
      <point x="1288" y="1040"/>
      <point x="1288" y="1048" type="curve" smooth="yes"/>
      <point x="1288" y="1089"/>
      <point x="1297" y="1123"/>
      <point x="1327" y="1123" type="curve" smooth="yes"/>
      <point x="1510" y="1123" type="line"/>
      <point x="1510" y="1264" type="line"/>
      <point x="1345" y="1264" type="line"/>
      <point x="1295" y="1337"/>
      <point x="1246" y="1412"/>
      <point x="1211" y="1412" type="curve" smooth="yes"/>
      <point x="1159" y="1412"/>
      <point x="1126" y="1341"/>
      <point x="1126" y="1264" type="curve"/>
    </contour>
    <contour>
      <point x="271" y="58" type="move" name="nukta"/>
    </contour>
    <contour>
      <point x="1228" y="1267" type="move" name="top"/>
    </contour>
    <contour>
      <point x="767" y="1267" type="move" name="bin"/>
    </contour>
    <contour>
      <point x="1139" y="-80" type="move" name="bottom"/>
    </contour>
  </outline>
</glyph>
<glyph name="ta-deva" format="1">
  <advance width="1370"/>
  <unicode hex="0924"/>
  <outline>
    <contour>
      <point x="-20" y="1123" type="line"/>
      <point x="987" y="1123" type="line"/>
      <point x="977" y="1070"/>
      <point x="970" y="1023"/>
      <point x="970" y="973" type="curve" smooth="yes"/>
      <point x="970" y="944"/>
      <point x="973" y="889"/>
      <point x="985" y="814" type="curve"/>
      <point x="999" y="689" type="line"/>
      <point x="993" y="689" type="line"/>
      <point x="907" y="782"/>
      <point x="709" y="841"/>
      <point x="562" y="841" type="curve" smooth="yes"/>
      <point x="277" y="841"/>
      <point x="88" y="694"/>
      <point x="88" y="453" type="curve" smooth="yes"/>
      <point x="88" y="225"/>
      <point x="330" y="-109"/>
      <point x="492" y="-109" type="curve" smooth="yes"/>
      <point x="517" y="-109"/>
      <point x="527" y="-92"/>
      <point x="527" y="-60" type="curve" smooth="yes"/>
      <point x="527" y="-21"/>
      <point x="504" y="18"/>
      <point x="462" y="45" type="curve"/>
      <point x="300" y="87"/>
      <point x="253" y="226"/>
      <point x="253" y="347" type="curve" smooth="yes"/>
      <point x="253" y="535"/>
      <point x="397" y="649"/>
      <point x="610" y="649" type="curve" smooth="yes"/>
      <point x="747" y="649"/>
      <point x="884" y="650"/>
      <point x="985" y="582" type="curve"/>
      <point x="990" y="551" type="line"/>
      <point x="994" y="511"/>
      <point x="999" y="429"/>
      <point x="999" y="406" type="curve" smooth="yes"/>
      <point x="999" y="222"/>
      <point x="938" y="76"/>
      <point x="866" y="76" type="curve" smooth="yes"/>
      <point x="843" y="76"/>
      <point x="822" y="60"/>
      <point x="822" y="35" type="curve" smooth="yes"/>
      <point x="822" y="-26"/>
      <point x="946" y="-120"/>
      <point x="1023" y="-120" type="curve" smooth="yes"/>
      <point x="1112" y="-120"/>
      <point x="1178" y="109"/>
      <point x="1178" y="374" type="curve" smooth="yes"/>
      <point x="1178" y="491"/>
      <point x="1149" y="879"/>
      <point x="1149" y="994" type="curve" smooth="yes"/>
      <point x="1149" y="1070"/>
      <point x="1156" y="1123"/>
      <point x="1188" y="1123" type="curve" smooth="yes"/>
      <point x="1390" y="1123" type="line"/>
      <point x="1390" y="1264" type="line"/>
      <point x="1226" y="1264" type="line"/>
      <point x="1164" y="1337"/>
      <point x="1111" y="1400"/>
      <point x="1066" y="1400" type="curve" smooth="yes"/>
      <point x="1035" y="1400"/>
      <point x="999" y="1341"/>
      <point x="999" y="1264" type="curve"/>
      <point x="-20" y="1264" type="line"/>
    </contour>
    <contour>
      <point x="38" y="-50" type="move" name="nukta"/>
    </contour>
    <contour>
      <point x="1109" y="1267" type="move" name="top"/>
    </contour>
    <contour>
      <point x="605" y="1267" type="move" name="bin"/>
    </contour>
    <contour>
      <point x="1002" y="-59" type="move" name="bottom"/>
    </contour>
  </outline>
</glyph>
<glyph name="tha-deva" format="1">
  <advance width="1529"/>
  <unicode hex="0925"/>
  <outline>
    <contour>
      <point x="90" y="678" type="curve" smooth="yes"/>
      <point x="90" y="374"/>
      <point x="379" y="129"/>
      <point x="721" y="129" type="curve" smooth="yes"/>
      <point x="867" y="129"/>
      <point x="1027" y="215"/>
      <point x="1158" y="374" type="curve"/>
      <point x="1158" y="283" type="line" smooth="yes"/>
      <point x="1158" y="163"/>
      <point x="1102" y="23"/>
      <point x="1030" y="23" type="curve" smooth="yes"/>
      <point x="1018" y="23"/>
      <point x="1000" y="10"/>
      <point x="1000" y="-6" type="curve" smooth="yes"/>
      <point x="1000" y="-67"/>
      <point x="1117" y="-120"/>
      <point x="1162" y="-120" type="curve" smooth="yes"/>
      <point x="1269" y="-120"/>
      <point x="1321" y="-12"/>
      <point x="1321" y="116" type="curve" smooth="yes"/>
      <point x="1321" y="274"/>
      <point x="1302" y="812"/>
      <point x="1302" y="973" type="curve" smooth="yes"/>
      <point x="1302" y="1089"/>
      <point x="1307" y="1123"/>
      <point x="1321" y="1123" type="curve" smooth="yes"/>
      <point x="1549" y="1123" type="line"/>
      <point x="1549" y="1264" type="line"/>
      <point x="1342" y="1264" type="line"/>
      <point x="1311" y="1312"/>
      <point x="1246" y="1400"/>
      <point x="1208" y="1400" type="curve" smooth="yes"/>
      <point x="1151" y="1400"/>
      <point x="1132" y="1337"/>
      <point x="1132" y="1264" type="curve"/>
      <point x="1005" y="1264" type="line" smooth="yes"/>
      <point x="975" y="1264"/>
      <point x="928" y="1286"/>
      <point x="900" y="1286" type="curve" smooth="yes"/>
      <point x="865" y="1286"/>
      <point x="851" y="1257"/>
      <point x="851" y="1221" type="curve" smooth="yes"/>
      <point x="851" y="1157"/>
      <point x="894" y="1033"/>
      <point x="937" y="1033" type="curve" smooth="yes"/>
      <point x="968" y="1033"/>
      <point x="1036" y="1123"/>
      <point x="1072" y="1123" type="curve" smooth="yes"/>
      <point x="1138" y="1123" type="line"/>
      <point x="1138" y="1099"/>
      <point x="1138" y="1078"/>
      <point x="1138" y="1054" type="curve" smooth="yes"/>
      <point x="1138" y="885"/>
      <point x="1148" y="697"/>
      <point x="1148" y="571" type="curve" smooth="yes"/>
      <point x="1148" y="540"/>
      <point x="1148" y="511"/>
      <point x="1146" y="489" type="curve"/>
      <point x="1053" y="596" type="line"/>
      <point x="928" y="416"/>
      <point x="751" y="299"/>
      <point x="611" y="299" type="curve" smooth="yes"/>
      <point x="436" y="299"/>
      <point x="269" y="399"/>
      <point x="202" y="567" type="curve"/>
      <point x="208" y="567" type="line" smooth="yes"/>
      <point x="541" y="607"/>
      <point x="758" y="779"/>
      <point x="758" y="1013" type="curve" smooth="yes"/>
      <point x="758" y="1171"/>
      <point x="570" y="1441"/>
      <point x="461" y="1441" type="curve" smooth="yes"/>
      <point x="338" y="1441"/>
      <point x="185" y="1266"/>
      <point x="185" y="1139" type="curve" smooth="yes"/>
      <point x="185" y="1023"/>
      <point x="269" y="881"/>
      <point x="399" y="818" type="curve"/>
      <point x="357" y="805"/>
      <point x="289" y="781"/>
      <point x="188" y="767" type="curve" smooth="yes"/>
      <point x="125" y="755"/>
      <point x="90" y="719"/>
    </contour>
    <contour>
      <point x="491" y="841" type="line"/>
      <point x="491" y="859" type="line" smooth="yes"/>
      <point x="491" y="932"/>
      <point x="441" y="946"/>
      <point x="391" y="960" type="curve"/>
      <point x="388" y="960" type="line"/>
      <point x="338" y="973"/>
      <point x="296" y="987"/>
      <point x="296" y="1052" type="curve" smooth="yes"/>
      <point x="296" y="1162"/>
      <point x="378" y="1248"/>
      <point x="481" y="1248" type="curve" smooth="yes"/>
      <point x="572" y="1248"/>
      <point x="646" y="1164"/>
      <point x="646" y="1066" type="curve" smooth="yes"/>
      <point x="646" y="967"/>
      <point x="580" y="874"/>
      <point x="496" y="841" type="curve"/>
    </contour>
    <contour>
      <point x="182" y="61" type="move" name="nukta"/>
    </contour>
    <contour>
      <point x="1253" y="1257" type="move" name="top"/>
    </contour>
    <contour>
      <point x="805" y="1257" type="move" name="bin"/>
    </contour>
    <contour>
      <point x="1131" y="-60" type="move" name="bottom"/>
    </contour>
  </outline>
</glyph>
<glyph name="dha-deva" format="1">
  <advance width="1568"/>
  <unicode hex="0927"/>
  <outline>
    <contour>
      <point x="153" y="387" type="curve" smooth="yes"/>
      <point x="153" y="195"/>
      <point x="403" y="-2"/>
      <point x="639" y="-2" type="curve" smooth="yes"/>
      <point x="843" y="-2"/>
      <point x="1025" y="103"/>
      <point x="1178" y="283" type="curve"/>
      <point x="1178" y="153"/>
      <point x="1147" y="49"/>
      <point x="1087" y="14" type="curve"/>
      <point x="1084" y="14" type="line"/>
      <point x="1070" y="14"/>
      <point x="1060" y="-2"/>
      <point x="1060" y="-12" type="curve" smooth="yes"/>
      <point x="1060" y="-55"/>
      <point x="1144" y="-130"/>
      <point x="1176" y="-130" type="curve" smooth="yes"/>
      <point x="1272" y="-130"/>
      <point x="1340" y="-55"/>
      <point x="1340" y="123" type="curve" smooth="yes"/>
      <point x="1340" y="274"/>
      <point x="1328" y="822"/>
      <point x="1328" y="973" type="curve" smooth="yes"/>
      <point x="1328" y="1083"/>
      <point x="1332" y="1123"/>
      <point x="1355" y="1123" type="curve" smooth="yes"/>
      <point x="1588" y="1123" type="line"/>
      <point x="1588" y="1264" type="line"/>
      <point x="1381" y="1264" type="line"/>
      <point x="1335" y="1337"/>
      <point x="1273" y="1404"/>
      <point x="1227" y="1404" type="curve" smooth="yes"/>
      <point x="1188" y="1404"/>
      <point x="1171" y="1367"/>
      <point x="1171" y="1302" type="curve" smooth="yes"/>
      <point x="1171" y="1264" type="line"/>
      <point x="1031" y="1264" type="line" smooth="yes"/>
      <point x="1013" y="1264"/>
      <point x="970" y="1280"/>
      <point x="940" y="1280" type="curve" smooth="yes"/>
      <point x="922" y="1280"/>
      <point x="907" y="1273"/>
      <point x="907" y="1248" type="curve" smooth="yes"/>
      <point x="907" y="1168"/>
      <point x="978" y="1028"/>
      <point x="1020" y="1028" type="curve" smooth="yes"/>
      <point x="1078" y="1028"/>
      <point x="1102" y="1123"/>
      <point x="1171" y="1123" type="curve"/>
      <point x="1173" y="408" type="line"/>
      <point x="1139" y="448"/>
      <point x="1133" y="486"/>
      <point x="1114" y="486" type="curve" smooth="yes"/>
      <point x="1015" y="486"/>
      <point x="913" y="150"/>
      <point x="562" y="150" type="curve" smooth="yes"/>
      <point x="521" y="150" type="line" smooth="yes"/>
      <point x="384" y="150"/>
      <point x="289" y="184"/>
      <point x="289" y="283" type="curve" smooth="yes"/>
      <point x="289" y="423"/>
      <point x="456" y="473"/>
      <point x="623" y="473" type="curve" smooth="yes"/>
      <point x="649" y="473"/>
      <point x="734" y="454"/>
      <point x="753" y="454" type="curve" smooth="yes"/>
      <point x="777" y="454"/>
      <point x="800" y="476"/>
      <point x="800" y="497" type="curve" smooth="yes"/>
      <point x="800" y="595"/>
      <point x="753" y="678"/>
      <point x="668" y="678" type="curve" smooth="yes"/>
      <point x="578" y="678"/>
      <point x="495" y="661"/>
      <point x="400" y="639" type="curve"/>
      <point x="337" y="661"/>
      <point x="289" y="726"/>
      <point x="289" y="805" type="curve" smooth="yes"/>
      <point x="289" y="934"/>
      <point x="349" y="1048"/>
      <point x="448" y="1060" type="curve"/>
      <point x="466" y="942"/>
      <point x="544" y="841"/>
      <point x="623" y="841" type="curve" smooth="yes"/>
      <point x="739" y="841"/>
      <point x="831" y="926"/>
      <point x="831" y="1028" type="curve" smooth="yes"/>
      <point x="831" y="1164"/>
      <point x="688" y="1302"/>
      <point x="555" y="1302" type="curve" smooth="yes"/>
      <point x="367" y="1302"/>
      <point x="153" y="1089"/>
      <point x="153" y="899" type="curve" smooth="yes"/>
      <point x="153" y="786"/>
      <point x="237" y="661"/>
      <point x="334" y="596" type="curve"/>
      <point x="229" y="555"/>
      <point x="153" y="463"/>
    </contour>
    <contour>
      <point x="649" y="955" type="curve" smooth="yes"/>
      <point x="574" y="955"/>
      <point x="533" y="1028"/>
      <point x="533" y="1092" type="curve" smooth="yes"/>
      <point x="533" y="1107"/>
      <point x="570" y="1132"/>
      <point x="623" y="1132" type="curve" smooth="yes"/>
      <point x="664" y="1132"/>
      <point x="712" y="1087"/>
      <point x="712" y="1040" type="curve" smooth="yes"/>
      <point x="712" y="1002"/>
      <point x="671" y="955"/>
    </contour>
    <contour>
      <point x="210" y="-155" type="move" name="nukta"/>
    </contour>
    <contour>
      <point x="1246" y="1257" type="move" name="top"/>
    </contour>
    <contour>
      <point x="771" y="1257" type="move" name="bin"/>
    </contour>
    <contour>
      <point x="1154" y="-74" type="move" name="bottom"/>
    </contour>
  </outline>
</glyph>
<glyph name="na-deva" format="1">
  <advance width="1454"/>
  <unicode hex="0928"/>
  <outline>
    <contour>
      <point x="-20" y="1123" type="line"/>
      <point x="1060" y="1123" type="line"/>
      <point x="1060" y="875"/>
      <point x="1060" y="722"/>
      <point x="1074" y="652" type="curve"/>
      <point x="985" y="739"/>
      <point x="856" y="790"/>
      <point x="706" y="790" type="curve" smooth="yes"/>
      <point x="580" y="790"/>
      <point x="463" y="771"/>
      <point x="347" y="722" type="curve"/>
      <point x="344" y="722" type="line"/>
      <point x="292" y="790"/>
      <point x="237" y="831"/>
      <point x="205" y="831" type="curve" smooth="yes"/>
      <point x="175" y="831"/>
      <point x="157" y="804"/>
      <point x="157" y="767" type="curve" smooth="yes"/>
      <point x="157" y="755"/>
      <point x="173" y="724"/>
      <point x="212" y="702" type="curve"/>
      <point x="238" y="661" type="line"/>
      <point x="237" y="661" type="line"/>
      <point x="167" y="615"/>
      <point x="116" y="553"/>
      <point x="116" y="473" type="curve" smooth="yes"/>
      <point x="116" y="309"/>
      <point x="253" y="167"/>
      <point x="408" y="167" type="curve" smooth="yes"/>
      <point x="497" y="167"/>
      <point x="553" y="256"/>
      <point x="553" y="364" type="curve" smooth="yes"/>
      <point x="553" y="441"/>
      <point x="537" y="525"/>
      <point x="517" y="567" type="curve"/>
      <point x="518" y="567" type="line"/>
      <point x="595" y="605"/>
      <point x="676" y="623"/>
      <point x="757" y="623" type="curve" smooth="yes"/>
      <point x="849" y="623"/>
      <point x="955" y="596"/>
      <point x="1076" y="547" type="curve"/>
      <point x="1076" y="483"/>
      <point x="1078" y="426"/>
      <point x="1078" y="347" type="curve" smooth="yes"/>
      <point x="1078" y="193"/>
      <point x="1020" y="53"/>
      <point x="946" y="53" type="curve" smooth="yes"/>
      <point x="926" y="53"/>
      <point x="909" y="35"/>
      <point x="909" y="4" type="curve" smooth="yes"/>
      <point x="909" y="-55"/>
      <point x="1020" y="-110"/>
      <point x="1068" y="-110" type="curve" smooth="yes"/>
      <point x="1173" y="-110"/>
      <point x="1216" y="43"/>
      <point x="1216" y="248" type="curve" smooth="yes"/>
      <point x="1216" y="382"/>
      <point x="1216" y="860"/>
      <point x="1216" y="994" type="curve" smooth="yes"/>
      <point x="1216" y="1107"/>
      <point x="1233" y="1123"/>
      <point x="1257" y="1123" type="curve" smooth="yes"/>
      <point x="1474" y="1123" type="line"/>
      <point x="1474" y="1264" type="line"/>
      <point x="1272" y="1264" type="line"/>
      <point x="1227" y="1325"/>
      <point x="1171" y="1400"/>
      <point x="1128" y="1400" type="curve" smooth="yes"/>
      <point x="1087" y="1400"/>
      <point x="1064" y="1341"/>
      <point x="1064" y="1264" type="curve"/>
      <point x="-20" y="1264" type="line"/>
    </contour>
    <contour>
      <point x="371" y="299" type="curve" smooth="yes"/>
      <point x="313" y="299"/>
      <point x="274" y="352"/>
      <point x="274" y="418" type="curve" smooth="yes"/>
      <point x="274" y="471"/>
      <point x="313" y="517"/>
      <point x="346" y="517" type="curve" smooth="yes"/>
      <point x="406" y="517"/>
      <point x="454" y="463"/>
      <point x="454" y="406" type="curve" smooth="yes"/>
      <point x="454" y="359"/>
      <point x="409" y="299"/>
    </contour>
    <contour>
      <point x="344" y="-86" type="move" name="nukta"/>
    </contour>
    <contour>
      <point x="1173" y="1257" type="move" name="top"/>
    </contour>
    <contour>
      <point x="664" y="1257" type="move" name="bin"/>
    </contour>
    <contour>
      <point x="1028" y="-55" type="move" name="bottom"/>
    </contour>
  </outline>
</glyph>
<glyph name="ba-deva" format="1">
  <advance width="1344"/>
  <unicode hex="092C"/>
  <outline>
    <contour>
      <point x="-20" y="1123" type="line"/>
      <point x="967" y="1123" type="line"/>
      <point x="967" y="922"/>
      <point x="975" y="734"/>
      <point x="985" y="521" type="curve"/>
      <point x="957" y="544" type="line"/>
      <point x="912" y="511" type="line"/>
      <point x="852" y="743"/>
      <point x="673" y="905"/>
      <point x="478" y="905" type="curve" smooth="yes"/>
      <point x="281" y="905"/>
      <point x="101" y="790"/>
      <point x="101" y="647" type="curve" smooth="yes"/>
      <point x="101" y="439"/>
      <point x="339" y="222"/>
      <point x="534" y="222" type="curve" smooth="yes"/>
      <point x="686" y="222"/>
      <point x="842" y="266"/>
      <point x="991" y="377" type="curve"/>
      <point x="991" y="232"/>
      <point x="962" y="58"/>
      <point x="897" y="58" type="curve" smooth="yes"/>
      <point x="858" y="58"/>
      <point x="817" y="41"/>
      <point x="817" y="9" type="curve" smooth="yes"/>
      <point x="817" y="-44"/>
      <point x="941" y="-124"/>
      <point x="986" y="-124" type="curve" smooth="yes"/>
      <point x="1079" y="-124"/>
      <point x="1131" y="98"/>
      <point x="1131" y="346" type="curve" smooth="yes"/>
      <point x="1130" y="967" type="line" smooth="yes"/>
      <point x="1130" y="1064"/>
      <point x="1138" y="1123"/>
      <point x="1165" y="1123" type="curve" smooth="yes"/>
      <point x="1364" y="1123" type="line"/>
      <point x="1364" y="1264" type="line"/>
      <point x="1156" y="1264" type="line"/>
      <point x="1094" y="1355"/>
      <point x="1062" y="1400"/>
      <point x="1039" y="1400" type="curve" smooth="yes"/>
      <point x="980" y="1400"/>
      <point x="967" y="1340"/>
      <point x="967" y="1264" type="curve"/>
      <point x="-20" y="1264" type="line"/>
    </contour>
    <contour>
      <point x="421" y="378" type="curve" smooth="yes"/>
      <point x="305" y="378"/>
      <point x="229" y="441"/>
      <point x="229" y="521" type="curve" smooth="yes"/>
      <point x="229" y="598"/>
      <point x="314" y="712"/>
      <point x="453" y="732" type="curve"/>
      <point x="487" y="626"/>
      <point x="527" y="499"/>
      <point x="557" y="394" type="curve"/>
      <point x="518" y="387"/>
      <point x="478" y="378"/>
    </contour>
    <contour>
      <point x="525" y="753" type="line"/>
      <point x="557" y="760"/>
      <point x="580" y="765"/>
      <point x="599" y="765" type="curve" smooth="yes"/>
      <point x="694" y="765"/>
      <point x="806" y="645"/>
      <point x="866" y="491" type="curve"/>
      <point x="784" y="461"/>
      <point x="708" y="437"/>
      <point x="637" y="421" type="curve"/>
    </contour>
    <contour>
      <point x="281" y="0" type="move" name="nukta"/>
    </contour>
    <contour>
      <point x="1057" y="1257" type="move" name="top"/>
    </contour>
    <contour>
      <point x="665" y="1257" type="move" name="bin"/>
    </contour>
    <contour>
      <point x="918" y="-51" type="move" name="bottom"/>
    </contour>
  </outline>
</glyph>
<glyph name="bha-deva" format="1">
  <advance width="1382"/>
  <unicode hex="092D"/>
  <outline>
    <contour>
      <point x="70" y="1164" type="curve" smooth="yes"/>
      <point x="70" y="1013"/>
      <point x="206" y="875"/>
      <point x="358" y="841" type="curve"/>
      <point x="358" y="563" type="line"/>
      <point x="283" y="518"/>
      <point x="244" y="491"/>
      <point x="244" y="439" type="curve" smooth="yes"/>
      <point x="244" y="368"/>
      <point x="338" y="228"/>
      <point x="421" y="228" type="curve" smooth="yes"/>
      <point x="492" y="228"/>
      <point x="506" y="299"/>
      <point x="506" y="416" type="curve"/>
      <point x="543" y="436"/>
      <point x="601" y="431"/>
      <point x="751" y="431" type="curve" smooth="yes"/>
      <point x="943" y="431"/>
      <point x="1045" y="381"/>
      <point x="1045" y="322" type="curve" smooth="yes"/>
      <point x="1045" y="187"/>
      <point x="974" y="63"/>
      <point x="907" y="63" type="curve"/>
      <point x="876" y="36" type="line"/>
      <point x="876" y="-29"/>
      <point x="979" y="-120"/>
      <point x="1051" y="-120" type="curve" smooth="yes"/>
      <point x="1133" y="-120"/>
      <point x="1192" y="88"/>
      <point x="1192" y="311" type="curve" smooth="yes"/>
      <point x="1192" y="403"/>
      <point x="1172" y="724"/>
      <point x="1172" y="818" type="curve" smooth="yes"/>
      <point x="1172" y="967"/>
      <point x="1184" y="1078"/>
      <point x="1222" y="1123" type="curve"/>
      <point x="1402" y="1123" type="line"/>
      <point x="1402" y="1264" type="line"/>
      <point x="1263" y="1264" type="line"/>
      <point x="1220" y="1337"/>
      <point x="1168" y="1400"/>
      <point x="1133" y="1400" type="curve" smooth="yes"/>
      <point x="1090" y="1400"/>
      <point x="1055" y="1341"/>
      <point x="1055" y="1264" type="curve"/>
      <point x="862" y="1264" type="line" smooth="yes"/>
      <point x="826" y="1264"/>
      <point x="727" y="1302"/>
      <point x="699" y="1302" type="curve" smooth="yes"/>
      <point x="642" y="1302"/>
      <point x="609" y="1268"/>
      <point x="609" y="1233" type="curve" smooth="yes"/>
      <point x="609" y="1162"/>
      <point x="710" y="1070"/>
      <point x="752" y="1070" type="curve" smooth="yes"/>
      <point x="803" y="1070"/>
      <point x="850" y="1123"/>
      <point x="945" y="1123" type="curve" smooth="yes"/>
      <point x="1034" y="1123" type="line"/>
      <point x="1023" y="1070"/>
      <point x="1019" y="987"/>
      <point x="1019" y="860" type="curve" smooth="yes"/>
      <point x="1019" y="771"/>
      <point x="1034" y="666"/>
      <point x="1055" y="567" type="curve"/>
      <point x="979" y="596"/>
      <point x="900" y="610"/>
      <point x="710" y="610" type="curve" smooth="yes"/>
      <point x="601" y="610"/>
      <point x="526" y="602"/>
      <point x="506" y="596" type="curve"/>
      <point x="506" y="818" type="line"/>
      <point x="522" y="810"/>
      <point x="543" y="805"/>
      <point x="553" y="805" type="curve" smooth="yes"/>
      <point x="574" y="805"/>
      <point x="586" y="833"/>
      <point x="586" y="874" type="curve" smooth="yes"/>
      <point x="586" y="879"/>
      <point x="582" y="885"/>
      <point x="571" y="895" type="curve" smooth="yes"/>
      <point x="528" y="932" type="line" smooth="yes"/>
      <point x="520" y="940"/>
      <point x="506" y="958"/>
      <point x="506" y="973" type="curve" smooth="yes"/>
      <point x="506" y="1109" type="line" smooth="yes"/>
      <point x="506" y="1264"/>
      <point x="405" y="1388"/>
      <point x="277" y="1388" type="curve" smooth="yes"/>
      <point x="159" y="1388"/>
      <point x="70" y="1286"/>
    </contour>
    <contour>
      <point x="349" y="987" type="curve"/>
      <point x="268" y="987"/>
      <point x="159" y="1047"/>
      <point x="159" y="1123" type="curve" smooth="yes"/>
      <point x="159" y="1178"/>
      <point x="206" y="1206"/>
      <point x="233" y="1206" type="curve" smooth="yes"/>
      <point x="303" y="1206"/>
      <point x="355" y="1157"/>
      <point x="355" y="1092" type="curve" smooth="yes"/>
      <point x="355" y="1050"/>
      <point x="355" y="1009"/>
    </contour>
    <contour>
      <point x="392" y="0" type="move" name="nukta"/>
    </contour>
    <contour>
      <point x="1151" y="1257" type="move" name="top"/>
    </contour>
    <contour>
      <point x="652" y="1257" type="move" name="bin"/>
    </contour>
    <contour>
      <point x="1013" y="-60" type="move" name="bottom"/>
    </contour>
  </outline>
</glyph>
<glyph name="ya-deva" format="1">
  <advance width="1394"/>
  <unicode hex="092F"/>
  <outline>
    <contour>
      <point x="-20" y="1123" type="line"/>
      <point x="431" y="1123" type="line"/>
      <point x="448" y="1093"/>
      <point x="463" y="1060"/>
      <point x="463" y="1028" type="curve" smooth="yes"/>
      <point x="463" y="913"/>
      <point x="411" y="841"/>
      <point x="326" y="841" type="curve" smooth="yes"/>
      <point x="208" y="841" type="line" smooth="yes"/>
      <point x="163" y="841"/>
      <point x="134" y="818"/>
      <point x="134" y="777" type="curve" smooth="yes"/>
      <point x="134" y="458"/>
      <point x="342" y="195"/>
      <point x="605" y="195" type="curve" smooth="yes"/>
      <point x="745" y="195"/>
      <point x="899" y="287"/>
      <point x="1058" y="431" type="curve"/>
      <point x="1060" y="409"/>
      <point x="1060" y="381"/>
      <point x="1060" y="363" type="curve" smooth="yes"/>
      <point x="1060" y="192"/>
      <point x="1002" y="63"/>
      <point x="940" y="63" type="curve" smooth="yes"/>
      <point x="899" y="63"/>
      <point x="871" y="45"/>
      <point x="871" y="14" type="curve" smooth="yes"/>
      <point x="871" y="-49"/>
      <point x="983" y="-149"/>
      <point x="1054" y="-149" type="curve" smooth="yes"/>
      <point x="1139" y="-149"/>
      <point x="1206" y="74"/>
      <point x="1206" y="322" type="curve" smooth="yes"/>
      <point x="1206" y="427"/>
      <point x="1168" y="804"/>
      <point x="1168" y="916" type="curve" smooth="yes"/>
      <point x="1168" y="999"/>
      <point x="1178" y="1089"/>
      <point x="1201" y="1123" type="curve"/>
      <point x="1414" y="1123" type="line"/>
      <point x="1414" y="1264" type="line"/>
      <point x="1256" y="1264" type="line"/>
      <point x="1213" y="1337"/>
      <point x="1156" y="1400"/>
      <point x="1132" y="1400" type="curve" smooth="yes"/>
      <point x="1080" y="1400"/>
      <point x="1035" y="1340"/>
      <point x="1035" y="1264" type="curve"/>
      <point x="-20" y="1264" type="line"/>
    </contour>
    <contour>
      <point x="517" y="347" type="curve"/>
      <point x="371" y="347"/>
      <point x="240" y="468"/>
      <point x="240" y="590" type="curve" smooth="yes"/>
      <point x="240" y="616"/>
      <point x="266" y="647"/>
      <point x="289" y="647" type="curve" smooth="yes"/>
      <point x="367" y="647" type="line" smooth="yes"/>
      <point x="502" y="647"/>
      <point x="574" y="755"/>
      <point x="574" y="899" type="curve" smooth="yes"/>
      <point x="574" y="977"/>
      <point x="552" y="1052"/>
      <point x="502" y="1123" type="curve"/>
      <point x="1021" y="1123" type="line"/>
      <point x="1018" y="1102"/>
      <point x="1013" y="1040"/>
      <point x="1013" y="938" type="curve" smooth="yes"/>
      <point x="1013" y="899" type="line" smooth="yes"/>
      <point x="1013" y="833"/>
      <point x="1031" y="607"/>
      <point x="1031" y="547" type="curve"/>
      <point x="973" y="596"/>
      <point x="960" y="610"/>
      <point x="955" y="610" type="curve" smooth="yes"/>
      <point x="944" y="607"/>
      <point x="771" y="441"/>
      <point x="691" y="399" type="curve" smooth="yes"/>
      <point x="626" y="364"/>
      <point x="567" y="349"/>
    </contour>
    <contour>
      <point x="237" y="22" type="move" name="nukta"/>
    </contour>
    <contour>
      <point x="1151" y="1267" type="move" name="top"/>
    </contour>
    <contour>
      <point x="677" y="1267" type="move" name="bin"/>
    </contour>
    <contour>
      <point x="1017" y="-97" type="move" name="bottom"/>
    </contour>
  </outline>
</glyph>
<glyph name="va-deva" format="1">
  <advance width="1341"/>
  <unicode hex="0935"/>
  <outline>
    <contour>
      <point x="-33" y="1123" type="line"/>
      <point x="973" y="1123" type="line"/>
      <point x="973" y="497" type="line"/>
      <point x="944" y="528" type="line"/>
      <point x="895" y="497" type="line"/>
      <point x="849" y="732"/>
      <point x="674" y="916"/>
      <point x="468" y="916" type="curve" smooth="yes"/>
      <point x="270" y="916"/>
      <point x="89" y="781"/>
      <point x="89" y="639" type="curve" smooth="yes"/>
      <point x="89" y="423"/>
      <point x="303" y="208"/>
      <point x="511" y="208" type="curve" smooth="yes"/>
      <point x="657" y="208"/>
      <point x="812" y="260"/>
      <point x="977" y="347" type="curve"/>
      <point x="985" y="347" type="line"/>
      <point x="985" y="193"/>
      <point x="932" y="40"/>
      <point x="853" y="40" type="curve" smooth="yes"/>
      <point x="833" y="40"/>
      <point x="808" y="29"/>
      <point x="808" y="12" type="curve" smooth="yes"/>
      <point x="808" y="-41"/>
      <point x="913" y="-130"/>
      <point x="946" y="-130" type="curve" smooth="yes"/>
      <point x="1058" y="-130"/>
      <point x="1133" y="74"/>
      <point x="1133" y="311" type="curve" smooth="yes"/>
      <point x="1133" y="413"/>
      <point x="1112" y="773"/>
      <point x="1112" y="874" type="curve" smooth="yes"/>
      <point x="1112" y="1094"/>
      <point x="1126" y="1123"/>
      <point x="1146" y="1123" type="curve" smooth="yes"/>
      <point x="1361" y="1123" type="line"/>
      <point x="1361" y="1264" type="line"/>
      <point x="1149" y="1264" type="line"/>
      <point x="1094" y="1327"/>
      <point x="1057" y="1377"/>
      <point x="1028" y="1377" type="curve" smooth="yes"/>
      <point x="977" y="1377"/>
      <point x="958" y="1337"/>
      <point x="958" y="1264" type="curve"/>
      <point x="-33" y="1264" type="line"/>
    </contour>
    <contour>
      <point x="443" y="374" type="curve" smooth="yes"/>
      <point x="303" y="374"/>
      <point x="218" y="431"/>
      <point x="218" y="517" type="curve" smooth="yes"/>
      <point x="218" y="661"/>
      <point x="359" y="732"/>
      <point x="550" y="732" type="curve" smooth="yes"/>
      <point x="643" y="732"/>
      <point x="779" y="635"/>
      <point x="834" y="473" type="curve"/>
      <point x="732" y="411"/>
      <point x="610" y="374"/>
    </contour>
    <contour>
      <point x="205" y="58" type="move" name="nukta"/>
    </contour>
    <contour>
      <point x="1057" y="1267" type="move" name="top"/>
    </contour>
    <contour>
      <point x="611" y="1267" type="move" name="bin"/>
    </contour>
    <contour>
      <point x="916" y="-61" type="move" name="bottom"/>
    </contour>
  </outline>
</glyph>
<glyph name="ssa-deva" format="1">
  <advance width="1310"/>
  <unicode hex="0937"/>
  <outline>
    <contour>
      <point x="-20" y="1123" type="line"/>
      <point x="326" y="1123" type="line"/>
      <point x="215" y="1021"/>
      <point x="153" y="841"/>
      <point x="153" y="661" type="curve" smooth="yes"/>
      <point x="153" y="454"/>
      <point x="374" y="167"/>
      <point x="563" y="167" type="curve" smooth="yes"/>
      <point x="684" y="167"/>
      <point x="815" y="229"/>
      <point x="958" y="364" type="curve"/>
      <point x="958" y="205"/>
      <point x="899" y="53"/>
      <point x="805" y="53" type="curve" smooth="yes"/>
      <point x="788" y="53"/>
      <point x="777" y="40"/>
      <point x="777" y="25" type="curve" smooth="yes"/>
      <point x="777" y="-49"/>
      <point x="885" y="-120"/>
      <point x="965" y="-120" type="curve" smooth="yes"/>
      <point x="1050" y="-120"/>
      <point x="1102" y="89"/>
      <point x="1102" y="311" type="curve" smooth="yes"/>
      <point x="1102" y="418"/>
      <point x="1084" y="790"/>
      <point x="1084" y="899" type="curve" smooth="yes"/>
      <point x="1084" y="1070"/>
      <point x="1097" y="1123"/>
      <point x="1114" y="1123" type="curve" smooth="yes"/>
      <point x="1330" y="1123" type="line"/>
      <point x="1330" y="1264" type="line"/>
      <point x="1119" y="1264" type="line"/>
      <point x="1068" y="1332"/>
      <point x="1028" y="1400"/>
      <point x="993" y="1400" type="curve" smooth="yes"/>
      <point x="942" y="1400"/>
      <point x="928" y="1340"/>
      <point x="928" y="1264" type="curve"/>
      <point x="-20" y="1264" type="line"/>
    </contour>
    <contour>
      <point x="454" y="337" type="curve" smooth="yes"/>
      <point x="354" y="337"/>
      <point x="277" y="421"/>
      <point x="277" y="532" type="curve" smooth="yes"/>
      <point x="277" y="664"/>
      <point x="346" y="839"/>
      <point x="476" y="1028" type="curve"/>
      <point x="486" y="1028" type="line"/>
      <point x="868" y="517" type="line"/>
      <point x="729" y="400"/>
      <point x="580" y="337"/>
    </contour>
    <contour>
      <point x="537" y="1123" type="line"/>
      <point x="928" y="1123" type="line"/>
      <point x="926" y="1107"/>
      <point x="926" y="1080"/>
      <point x="926" y="1048" type="curve" smooth="yes"/>
      <point x="926" y="909"/>
      <point x="936" y="664"/>
      <point x="958" y="578" type="curve"/>
      <point x="946" y="567" type="line"/>
    </contour>
    <contour>
      <point x="170" y="-43" type="move" name="nukta"/>
    </contour>
    <contour>
      <point x="1028" y="1261" type="move" name="top"/>
    </contour>
    <contour>
      <point x="655" y="1257" type="move" name="bin"/>
    </contour>
    <contour>
      <point x="904" y="-71" type="move" name="bottom"/>
    </contour>
  </outline>
</glyph>
<glyph name="ooeMatra-deva" format="1">
  <advance width="464"/>
  <unicode hex="093B"/>
  <outline>
    <contour>
      <point x="80" y="1206" type="line"/>
      <point x="235" y="1206" type="line"/>
      <point x="235" y="1607" type="line"/>
      <point x="80" y="1607" type="line"/>
    </contour>
    <component base="aaMatra-deva"/>
  </outline>
</glyph>
<glyph name="nukta-deva" format="1">
  <advance width="570"/>
  <unicode hex="093C"/>
  <outline>
    <contour>
      <point x="275" y="124" type="curve" smooth="yes"/>
      <point x="228" y="124"/>
      <point x="171" y="54"/>
      <point x="171" y="-9" type="curve" smooth="yes"/>
      <point x="171" y="-101"/>
      <point x="244" y="-117"/>
      <point x="283" y="-117" type="curve" smooth="yes"/>
      <point x="346" y="-117"/>
      <point x="376" y="-74"/>
      <point x="376" y="8" type="curve" smooth="yes"/>
      <point x="376" y="100"/>
      <point x="320" y="124"/>
    </contour>
    <contour>
      <point x="275" y="0" type="move" name="_nukta"/>
    </contour>
  </outline>
</glyph>
<glyph name="aaMatra-deva" format="1">
  <advance width="464"/>
  <unicode hex="093E"/>
  <outline>
    <contour>
      <point x="-11" y="1123" type="line"/>
      <point x="105" y="1123" type="line"/>
      <point x="105" y="283" type="line" smooth="yes"/>
      <point x="105" y="157"/>
      <point x="61" y="49"/>
      <point x="-13" y="49" type="curve" smooth="yes"/>
      <point x="-33" y="49"/>
      <point x="-60" y="36"/>
      <point x="-60" y="14" type="curve" smooth="yes"/>
      <point x="-60" y="-29"/>
      <point x="58" y="-120"/>
      <point x="101" y="-120" type="curve" smooth="yes"/>
      <point x="181" y="-120"/>
      <point x="259" y="-2"/>
      <point x="259" y="142" type="curve" smooth="yes"/>
      <point x="259" y="955" type="line" smooth="yes"/>
      <point x="259" y="1050"/>
      <point x="299" y="1123"/>
      <point x="339" y="1123" type="curve" smooth="yes"/>
      <point x="484" y="1123" type="line"/>
      <point x="484" y="1264" type="line"/>
      <point x="336" y="1264" type="line"/>
      <point x="218" y="1367" type="line" smooth="yes"/>
      <point x="186" y="1396"/>
      <point x="167" y="1396"/>
      <point x="157" y="1400" type="curve"/>
      <point x="117" y="1400"/>
      <point x="78" y="1367"/>
      <point x="78" y="1312" type="curve" smooth="yes"/>
      <point x="78" y="1264" type="line"/>
      <point x="-11" y="1264" type="line"/>
    </contour>
    <contour>
      <point x="215" y="1257" type="move" name="top"/>
    </contour>
  </outline>
</glyph>
<glyph name="iMatra-deva" format="1">
  <advance width="652"/>
  <unicode hex="093F"/>
  <outline>
    <contour>
      <point x="8" y="1123" type="line"/>
      <point x="287" y="1123" type="line"/>
      <point x="287" y="283" type="line" smooth="yes"/>
      <point x="287" y="157"/>
      <point x="247" y="49"/>
      <point x="169" y="49" type="curve" smooth="yes"/>
      <point x="149" y="49"/>
      <point x="122" y="36"/>
      <point x="122" y="14" type="curve" smooth="yes"/>
      <point x="122" y="-29"/>
      <point x="244" y="-120"/>
      <point x="283" y="-120" type="curve" smooth="yes"/>
      <point x="363" y="-120"/>
      <point x="441" y="-2"/>
      <point x="441" y="142" type="curve" smooth="yes"/>
      <point x="441" y="955" type="line" smooth="yes"/>
      <point x="441" y="1050"/>
      <point x="481" y="1123"/>
      <point x="521" y="1123" type="curve" smooth="yes"/>
      <point x="686" y="1123" type="line"/>
      <point x="686" y="1264" type="line"/>
      <point x="443" y="1264" type="line"/>
      <point x="363" y="1282"/>
      <point x="305" y="1439"/>
      <point x="305" y="1532" type="curve" smooth="yes"/>
      <point x="305" y="1713"/>
      <point x="426" y="1775"/>
      <point x="580" y="1775" type="curve" smooth="yes"/>
      <point x="810" y="1775"/>
      <point x="1062" y="1670"/>
      <point x="1252" y="1474" type="curve"/>
      <point x="1282" y="1431"/>
      <point x="1312" y="1400"/>
      <point x="1337" y="1400" type="curve"/>
      <point x="1345" y="1406"/>
      <point x="1357" y="1425"/>
      <point x="1357" y="1461" type="curve"/>
      <point x="1297" y="1678"/>
      <point x="864" y="1948"/>
      <point x="525" y="1948" type="curve" smooth="yes"/>
      <point x="299" y="1948"/>
      <point x="149" y="1780"/>
      <point x="149" y="1565" type="curve" smooth="yes"/>
      <point x="149" y="1449"/>
      <point x="198" y="1328"/>
      <point x="284" y="1264" type="curve"/>
      <point x="8" y="1264" type="line"/>
    </contour>
    <contour>
      <point x="1345" y="1257" type="move" name="bin"/>
    </contour>
    <contour>
      <point x="1228" y="1427" type="move" name="imatra"/>
    </contour>
    <contour>
      <point x="1302" y="1425" type="move" name="top"/>
    </contour>
  </outline>
</glyph>
<glyph name="iiMatra-deva" format="1">
  <advance width="661"/>
  <unicode hex="0940"/>
  <outline>
    <contour>
      <point x="-363" y="1580" type="curve" smooth="yes"/>
      <point x="-363" y="1431"/>
      <point x="-293" y="1286"/>
      <point x="-253" y="1264" type="curve"/>
      <point x="-114" y="1264" type="line"/>
      <point x="-179" y="1320"/>
      <point x="-198" y="1426"/>
      <point x="-198" y="1506" type="curve" smooth="yes"/>
      <point x="-198" y="1733"/>
      <point x="-126" y="1786"/>
      <point x="-29" y="1786" type="curve" smooth="yes"/>
      <point x="76" y="1786"/>
      <point x="258" y="1594"/>
      <point x="329" y="1264" type="curve"/>
      <point x="0" y="1264" type="line"/>
      <point x="0" y="1123" type="line"/>
      <point x="287" y="1123" type="line"/>
      <point x="287" y="283" type="line" smooth="yes"/>
      <point x="287" y="157"/>
      <point x="247" y="49"/>
      <point x="169" y="49" type="curve" smooth="yes"/>
      <point x="150" y="49"/>
      <point x="122" y="36"/>
      <point x="122" y="14" type="curve" smooth="yes"/>
      <point x="122" y="-29"/>
      <point x="244" y="-120"/>
      <point x="283" y="-120" type="curve" smooth="yes"/>
      <point x="364" y="-120"/>
      <point x="441" y="-2"/>
      <point x="441" y="142" type="curve" smooth="yes"/>
      <point x="441" y="955" type="line" smooth="yes"/>
      <point x="441" y="1050"/>
      <point x="450" y="1123"/>
      <point x="491" y="1123" type="curve" smooth="yes"/>
      <point x="681" y="1123" type="line"/>
      <point x="681" y="1264" type="line"/>
      <point x="416" y="1264" type="line"/>
      <point x="349" y="1679"/>
      <point x="153" y="1948"/>
      <point x="-53" y="1948" type="curve" smooth="yes"/>
      <point x="-189" y="1948"/>
      <point x="-363" y="1823"/>
    </contour>
    <contour>
      <point x="625" y="1257" type="move" name="bin"/>
    </contour>
    <contour>
      <point x="379" y="1257" type="move" name="iimatra"/>
    </contour>
    <contour>
      <point x="416" y="1264" type="move" name="top"/>
    </contour>
  </outline>
</glyph>
<glyph name="eCandraMatra-deva" format="1">
  <advance width="634"/>
  <unicode hex="0945"/>
  <outline>
    <contour>
      <point x="481" y="1411"/>
      <point x="595" y="1502"/>
      <point x="595" y="1617" type="curve" smooth="yes"/>
      <point x="595" y="1655"/>
      <point x="558" y="1742"/>
      <point x="531" y="1742" type="curve" smooth="yes"/>
      <point x="529" y="1742"/>
      <point x="523" y="1736"/>
      <point x="519" y="1723" type="curve"/>
      <point x="509" y="1645" type="line"/>
      <point x="494" y="1585"/>
      <point x="414" y="1540"/>
      <point x="332" y="1540" type="curve" smooth="yes"/>
      <point x="198" y="1540"/>
      <point x="141" y="1611"/>
      <point x="111" y="1709" type="curve"/>
      <point x="110" y="1719"/>
      <point x="111" y="1724"/>
      <point x="108" y="1724" type="curve" smooth="yes"/>
      <point x="93" y="1724"/>
      <point x="61" y="1680"/>
      <point x="61" y="1659" type="curve" smooth="yes"/>
      <point x="61" y="1535"/>
      <point x="190" y="1411"/>
      <point x="332" y="1411" type="curve" smooth="yes"/>
    </contour>
    <contour>
      <point x="329" y="1411" type="move" name="top"/>
    </contour>
    <contour>
      <point x="321" y="1262" type="move" name="_bin"/>
    </contour>
  </outline>
</glyph>
<glyph name="eShortMatra-deva" format="1">
  <advance width="540"/>
  <unicode hex="0946"/>
  <outline>
    <contour>
      <point x="-395" y="1842" type="curve" smooth="yes"/>
      <point x="-395" y="1641"/>
      <point x="-226" y="1478"/>
      <point x="121" y="1478" type="curve" smooth="yes"/>
      <point x="285" y="1478"/>
      <point x="392" y="1393"/>
      <point x="392" y="1257" type="curve"/>
      <point x="511" y="1257" type="line"/>
      <point x="511" y="1470"/>
      <point x="351" y="1604"/>
      <point x="91" y="1604" type="curve" smooth="yes"/>
      <point x="-171" y="1604"/>
      <point x="-242" y="1716"/>
      <point x="-268" y="1852" type="curve" smooth="yes"/>
      <point x="-273" y="1877"/>
      <point x="-283" y="1895"/>
      <point x="-291" y="1895" type="curve" smooth="yes"/>
      <point x="-318" y="1895"/>
      <point x="-395" y="1857"/>
    </contour>
    <contour>
      <point x="633" y="1374" type="move" name="bin"/>
    </contour>
    <contour>
      <point x="588" y="1373" type="move" name="top"/>
    </contour>
    <contour>
      <point x="450" y="1262" type="move" name="_top"/>
    </contour>
  </outline>
</glyph>
<glyph name="eMatra-deva" format="1">
  <advance width="540"/>
  <unicode hex="0947"/>
  <outline>
    <contour>
      <point x="-454" y="1930" type="line"/>
      <point x="-441" y="1829"/>
      <point x="-392" y="1748"/>
      <point x="-353" y="1748" type="curve" smooth="yes"/>
      <point x="-328" y="1748"/>
      <point x="-265" y="1816"/>
      <point x="-234" y="1816" type="curve" smooth="yes"/>
      <point x="-64" y="1816"/>
      <point x="115" y="1558"/>
      <point x="207" y="1257" type="curve"/>
      <point x="297" y="1257" type="line"/>
      <point x="177" y="1644"/>
      <point x="-66" y="1962"/>
      <point x="-289" y="1962" type="curve" smooth="yes"/>
      <point x="-375" y="1962"/>
      <point x="-430" y="1947"/>
      <point x="-457" y="1930" type="curve"/>
    </contour>
    <contour>
      <point x="394" y="1375" type="move" name="bin"/>
    </contour>
    <contour>
      <point x="251" y="1257" type="move" name="_top"/>
    </contour>
  </outline>
</glyph>
<glyph name="aiMatra-deva" format="1">
  <advance width="540"/>
  <unicode hex="0948"/>
  <outline>
    <contour>
      <point x="-564" y="1786" type="line" smooth="yes"/>
      <point x="-533" y="1735"/>
      <point x="-503" y="1703"/>
      <point x="-487" y="1703" type="curve" smooth="yes"/>
      <point x="-447" y="1703"/>
      <point x="-370" y="1786"/>
      <point x="-284" y="1786" type="curve" smooth="yes"/>
      <point x="-147" y="1786"/>
      <point x="32" y="1553"/>
      <point x="158" y="1257" type="curve"/>
      <point x="223" y="1257" type="line"/>
      <point x="93" y="1652"/>
      <point x="-160" y="1957"/>
      <point x="-373" y="1957" type="curve" smooth="yes"/>
      <point x="-485" y="1957"/>
      <point x="-575" y="1933"/>
      <point x="-627" y="1893" type="curve"/>
    </contour>
    <contour>
      <point x="-12" y="1872" type="curve" smooth="yes"/>
      <point x="-12" y="1813"/>
      <point x="56" y="1732"/>
      <point x="112" y="1732" type="curve" smooth="yes"/>
      <point x="129" y="1732"/>
      <point x="162" y="1738"/>
      <point x="174" y="1744" type="curve"/>
      <point x="256" y="1742"/>
      <point x="311" y="1606"/>
      <point x="311" y="1453" type="curve" smooth="yes"/>
      <point x="311" y="1396"/>
      <point x="286" y="1291"/>
      <point x="254" y="1257" type="curve"/>
      <point x="341" y="1257" type="line"/>
      <point x="367" y="1307"/>
      <point x="397" y="1423"/>
      <point x="397" y="1520" type="curve" smooth="yes"/>
      <point x="397" y="1755"/>
      <point x="217" y="1957"/>
      <point x="-1" y="1957" type="curve"/>
      <point x="-8" y="1931"/>
      <point x="-12" y="1904"/>
    </contour>
    <contour>
      <point x="223" y="1257" type="move" name="_top"/>
    </contour>
  </outline>
</glyph>
<glyph name="oShortMatra-deva" format="1">
  <advance width="464"/>
  <unicode hex="094A"/>
  <outline>
    <component base="aaMatra-deva"/>
    <component base="eShortMatra-deva" xOffset="-235" yOffset="-5"/>
    <contour>
      <point x="336" y="1264" type="move" name="top"/>
    </contour>
  </outline>
</glyph>
